<svg xmlns="http://www.w3.org/2000/svg" width="24" height="25" viewBox="0 0 24 25" fill="none">
  <mask id="mask0_2393_23746" style="mask-type:alpha" maskUnits="userSpaceOnUse" x="0" y="0" width="24" height="25">
    <rect y="0.665039" width="24" height="24" fill="#D9D9D9"/>
  </mask>
  <g mask="url(#mask0_2393_23746)">
    <path d="M4 20.665C3.45 20.665 2.97917 20.4692 2.5875 20.0775C2.19583 19.6859 2 19.215 2 18.665V6.66504C2 6.11504 2.19583 5.64421 2.5875 5.25254C2.97917 4.86087 3.45 4.66504 4 4.66504H20C20.55 4.66504 21.0208 4.86087 21.4125 5.25254C21.8042 5.64421 22 6.11504 22 6.66504V18.665C22 19.215 21.8042 19.6859 21.4125 20.0775C21.0208 20.4692 20.55 20.665 20 20.665H4ZM12 13.665L20 8.66504V6.66504L12 11.665L4 6.66504V8.66504L12 13.665Z" fill="#F1EEEA"/>
  </g>
</svg>