<svg xmlns="http://www.w3.org/2000/svg" width="24" height="25" viewBox="0 0 24 25" fill="none">
  <path d="M19.6799 2.58496H4.31992C2.99512 2.58496 1.91992 3.66016 1.91992 4.98496V20.345C1.91992 21.6698 2.99512 22.745 4.31992 22.745H19.6799C21.0047 22.745 22.0799 21.6698 22.0799 20.345V4.98496C22.0799 3.66016 21.0047 2.58496 19.6799 2.58496ZM8.15992 10.265V19.385H5.27992V10.265H8.15992ZM5.27992 7.61056C5.27992 6.93856 5.85592 6.42496 6.71992 6.42496C7.58392 6.42496 8.12632 6.93856 8.15992 7.61056C8.15992 8.28256 7.62232 8.82496 6.71992 8.82496C5.85592 8.82496 5.27992 8.28256 5.27992 7.61056ZM18.7199 19.385H15.8399C15.8399 19.385 15.8399 14.9402 15.8399 14.585C15.8399 13.625 15.3599 12.665 14.1599 12.6458H14.1215C12.9599 12.6458 12.4799 13.6346 12.4799 14.585C12.4799 15.0218 12.4799 19.385 12.4799 19.385H9.59992V10.265H12.4799V11.4938C12.4799 11.4938 13.4063 10.265 15.2687 10.265C17.1743 10.265 18.7199 11.5754 18.7199 14.2298V19.385Z" fill="#F1EEEA"/>
</svg>