<svg xmlns="http://www.w3.org/2000/svg" width="24" height="25" viewBox="0 0 24 25" fill="none">
  <path d="M5.27992 2.58496C3.42424 2.58496 1.91992 4.08928 1.91992 5.94496V19.385C1.91992 21.2406 3.42424 22.745 5.27992 22.745H18.7199C20.5756 22.745 22.0799 21.2406 22.0799 19.385V5.94496C22.0799 4.08928 20.5756 2.58496 18.7199 2.58496H5.27992ZM6.28117 6.90496H10.0912L12.7968 10.7496L16.0799 6.90496H17.2799L13.3387 11.5193L18.1987 18.425H14.3896L11.2499 13.9643L7.43992 18.425H6.23992L10.708 13.1946L6.28117 6.90496ZM8.11867 7.86496L14.8902 17.465H16.3612L9.58961 7.86496H8.11867Z" fill="#F1EEEA"/>
</svg>