<svg width="119" height="94" viewBox="0 0 119 94" fill="none" xmlns="http://www.w3.org/2000/svg">
<g id="Group">
<g id="Layer 1">
<g id="Group_2">
<path id="Vector" d="M92.3039 18.8209C93.8567 11.5461 93.0402 5.05077 92.1278 0.991167C91.6795 0.877498 91.2313 0.780068 90.7831 0.682637C85.9966 -0.25919 81.2261 -0.113045 76.4557 0.715114C72.1174 1.46208 67.8592 2.53382 63.8411 4.36876C60.8636 5.71655 57.9661 7.27543 55.805 9.85734C54.5243 11.3838 53.4037 13.0076 53.1956 15.0861C52.8915 18.1714 54.0761 20.6721 56.2052 22.7344C58.4464 24.8779 61.1037 26.453 63.8251 27.882C68.2594 30.2041 72.9979 31.698 77.7684 33.127C79.9615 33.7765 82.1546 34.4585 84.4278 35.1568C86.845 32.1689 88.638 29.1323 89.9667 26.1282C89.9346 26.1282 89.9026 26.112 89.8866 26.0958C89.8546 26.0958 89.8066 26.0633 89.7746 26.047C88.8461 25.8197 87.9016 25.6086 86.9571 25.3813C82.0426 24.2608 77.112 23.2216 72.3095 21.6464C68.9318 20.5422 65.6821 19.162 62.8166 17.0022C62.4804 16.7424 62.1763 16.4501 61.7921 16.1254C62.0482 15.8818 62.2403 15.6707 62.4644 15.4921C64.1133 14.2255 65.9222 13.3648 67.9072 12.764C73.158 11.1564 78.4887 10.5881 83.9475 11.3188C86.0927 11.6111 88.2057 12.017 90.1107 13.105C92.3999 14.4203 92.7201 14.875 92.496 17.5706C92.4639 17.9928 92.3999 18.415 92.3359 18.8209H92.3039Z" fill="url(#paint0_linear_1576_21693)"/>
<path id="Vector_2" d="M92.1079 0.991479C92.1079 0.991479 84.392 -1.18447 75.3633 0.910287L76.6119 11.0918C76.6119 11.0918 85.5926 10.6046 90.0589 13.1053C90.0589 13.1053 91.2915 13.8361 91.5476 14.0796C91.5476 14.0796 92.5242 14.7454 92.4921 16.0282C92.4921 16.0282 92.4921 17.8632 92.316 18.6426C92.316 18.6426 94.3331 9.63031 92.0919 0.991479H92.1079Z" fill="url(#paint1_linear_1576_21693)"/>
<path id="Vector_3" d="M116.687 44.6241C114.365 38.4048 109.883 34.2477 104.264 31.1462C104.056 31.0325 103.848 30.9351 103.64 30.8214C102.855 33.176 101.463 36.6835 98.9974 41.5712C99.0134 41.5712 99.0454 41.6037 99.0614 41.62C99.0774 41.62 99.0934 41.6524 99.1095 41.6687C101.607 43.6335 103.544 45.8744 104.472 49.0247C105.401 52.1587 104.376 54.6594 102.663 57.0627C100.63 59.9207 97.9889 62.1291 95.1714 64.1426C90.7531 67.2929 85.9506 69.6799 80.9881 71.7909C80.86 71.8559 80.7159 71.8884 80.4598 71.9696C80.4598 71.9696 80.4598 71.9696 80.4438 71.9696H80.4118C80.4118 71.9696 80.3798 71.9858 80.3638 72.002C80.3638 72.002 80.3477 72.002 80.3317 72.002C75.8654 78.4 70.5987 85.6098 64.3555 93.6803C68.6777 94.5085 72.8078 93.5991 76.922 92.4137C87.0392 89.4746 96.0999 84.5381 104.152 77.653C108.266 74.1293 111.948 70.2158 114.734 65.5229C117.455 60.9274 118.912 55.991 118.383 50.5673C118.175 48.4888 117.439 46.5564 116.719 44.6403L116.687 44.6241Z" fill="url(#paint2_linear_1576_21693)"/>
<path id="Vector_4" style="mix-blend-mode:multiply" opacity="0.63" d="M80.2966 72.002L64.3203 93.6803C64.3203 93.6803 72.8047 96.4083 92.5109 85.8209L92.3988 65.9775C92.3988 65.9775 87.7084 69.3226 80.2966 72.0182V72.002Z" fill="url(#paint3_linear_1576_21693)"/>
<g id="Group_3">
<path id="Vector_5" d="M76.6151 92.8196L47.0318 8.13626C46.9037 7.48672 46.7756 7.35681 46.1353 7.35681H28.3341C27.8218 7.35681 27.5657 7.74653 27.5657 8.26616C27.3096 12.683 26.9254 13.9821 26.4131 15.2812L0.0314471 91.4068C-0.0966192 92.3162 0.159513 92.7059 0.927911 92.7059H13.7345C14.4549 92.7059 14.8231 92.4623 15.0792 91.7966H15.1112C21.6907 80.2348 24.5081 76.6299 33.2486 71.4174C39.78 67.5364 46.0072 65.4579 51.0979 64.3212L52.8108 70.2157L60.2386 91.9102C60.4947 92.4299 60.8789 92.6897 61.5193 92.6897L65.0891 93.9887H75.8627C76.6311 93.9887 76.7591 93.599 76.6311 92.8196H76.6151ZM26.7493 60.2128C26.0449 60.635 25.3726 61.041 24.7162 61.4632L26.285 56.0558C30.127 44.2342 35.2497 29.0351 37.2987 20.3313H37.4268C39.6199 28.1257 44.3584 42.4967 47.3519 51.8501C41.3648 53.2628 34.1931 55.7798 26.7493 60.2128Z" fill="#214D6D"/>
<g id="Group_4" opacity="0.6">
<g id="Group_5" style="mix-blend-mode:screen">
<path id="Vector_6" opacity="0.01" d="M37.2422 7.4054C44.1898 7.03191 53.1224 20.2013 48.48 25.8847C46.9272 27.8008 43.2613 27.947 36.842 28.3367C31.143 28.6777 27.5572 25.6411 25.7002 24.2122C22.4986 21.7602 29.3501 7.8276 37.2422 7.38916V7.4054Z" fill="#030303"/>
<path id="Vector_7" opacity="0.03" d="M37.2357 7.45423C44.1032 7.08074 52.9398 20.0715 48.3614 25.69C46.8246 27.5899 43.1907 27.736 36.8515 28.1095C31.2166 28.4505 27.6467 25.4464 25.8218 24.0336C22.6681 21.6141 29.4556 7.86019 37.2357 7.43799V7.45423Z" fill="#070605"/>
<path id="Vector_8" opacity="0.04" d="M37.253 7.50287C44.0405 7.12938 52.781 19.9415 48.2667 25.4788C46.7459 27.3462 43.144 27.4924 36.8688 27.8821C31.2819 28.2231 27.7601 25.2677 25.9511 23.8712C22.8455 21.4679 29.569 7.92507 37.237 7.50287H37.253Z" fill="#0A0908"/>
<path id="Vector_9" opacity="0.06" d="M37.2593 7.53551C43.9668 7.17826 52.6113 19.7955 48.161 25.2679C46.6722 27.119 43.0863 27.2652 36.8911 27.6387C31.3683 27.9634 27.8625 25.0568 26.0855 23.6765C23.028 21.3057 29.6714 7.95771 37.2593 7.55175V7.53551Z" fill="#0E0C0B"/>
<path id="Vector_10" opacity="0.07" d="M37.2533 7.58395C43.8807 7.22671 52.4291 19.6653 48.0428 25.0565C46.5701 26.8914 43.0162 27.0213 36.8851 27.3948C31.4262 27.7196 27.9524 24.8454 26.1915 23.4814C23.182 21.1268 29.7614 7.98991 37.2372 7.58395H37.2533Z" fill="#110F0D"/>
<path id="Vector_11" opacity="0.08" d="M37.2503 7.63294C43.7977 7.27569 52.2341 19.5195 47.9279 24.8457C46.4711 26.6481 42.9493 26.7943 36.8982 27.1515C31.4874 27.4763 28.0456 24.6508 26.3327 23.2868C23.3712 20.9647 29.8865 8.02266 37.2503 7.6167V7.63294Z" fill="#141210"/>
<path id="Vector_12" opacity="0.1" d="M37.2533 7.68135C43.7206 7.3241 52.0609 19.3892 47.8187 24.6505C46.378 26.4367 42.8882 26.5666 36.9011 26.9239C31.5543 27.2324 28.1446 24.4556 26.4477 23.1241C23.5342 20.8182 29.9695 8.07107 37.2373 7.68135H37.2533Z" fill="#181513"/>
<path id="Vector_13" opacity="0.11" d="M37.2546 7.73009C43.6419 7.38909 51.8862 19.2594 47.708 24.4394C46.2993 26.1932 42.8255 26.3393 36.9185 26.6966C31.6357 27.0051 28.242 24.2608 26.5771 22.9455C23.7116 20.6721 30.0829 8.11982 37.2546 7.73009Z" fill="#1B1815"/>
<path id="Vector_14" opacity="0.13" d="M37.2611 7.77903C43.5684 7.43802 51.7006 19.1297 47.6025 24.2448C46.2097 25.9823 42.768 26.1284 36.941 26.4694C31.7223 26.778 28.3605 24.0824 26.7117 22.7671C23.8942 20.5099 30.1855 8.16875 37.2611 7.79527V7.77903Z" fill="#1F1A18"/>
<path id="Vector_15" opacity="0.14" d="M37.2513 7.82748C43.4785 7.48647 51.5146 18.9995 47.4806 24.0334C46.1038 25.7547 42.6941 25.8846 36.9311 26.2256C31.7604 26.5179 28.4307 23.871 26.8139 22.572C24.0444 20.3311 30.2717 8.20096 37.2353 7.82748H37.2513Z" fill="#221D1B"/>
<path id="Vector_16" opacity="0.15" d="M37.2758 7.87647C43.4229 7.5517 51.363 18.8536 47.393 23.8226C46.0483 25.5114 42.6545 25.6575 36.9716 25.9823C31.865 26.2746 28.5672 23.6764 26.9824 22.3774C24.261 20.1689 30.4242 8.23371 37.2918 7.86023L37.2758 7.87647Z" fill="#25201D"/>
<path id="Vector_17" opacity="0.17" d="M37.2749 7.90882C43.342 7.58405 51.1861 18.7074 47.28 23.6114C45.9514 25.2839 42.5896 25.4138 36.9707 25.7386C31.9281 26.0309 28.6464 23.4652 27.0936 22.1986C24.4202 20.0064 30.5034 8.2823 37.2749 7.90882Z" fill="#292320"/>
<path id="Vector_18" opacity="0.18" d="M37.2725 7.95763C43.2596 7.63287 50.9916 18.5776 47.1656 23.4004C45.853 25.0404 42.5232 25.1866 36.9844 25.5114C31.9898 25.8036 28.7401 23.2705 27.2193 22.0201C24.594 19.8604 30.6131 8.31488 37.2725 7.95763Z" fill="#2C2623"/>
<path id="Vector_19" opacity="0.2" d="M37.2745 8.00626C43.1816 7.69773 50.8175 18.4476 47.0556 23.2054C45.7749 24.8293 42.4612 24.9592 36.9864 25.2839C32.0558 25.56 28.8381 23.0917 27.3334 21.8414C24.756 19.6979 30.7111 8.3635 37.2585 8.00626H37.2745Z" fill="#302925"/>
<path id="Vector_20" opacity="0.21" d="M37.2732 8.05471C43.1002 7.74618 50.6401 18.3174 46.9422 22.994C45.6776 24.6017 42.4119 24.7316 37.0011 25.0401C32.1346 25.3161 28.9329 22.8804 27.4602 21.6463C24.9308 19.5353 30.8059 8.39571 37.2732 8.05471Z" fill="#332C28"/>
<path id="Vector_21" opacity="0.23" d="M37.2749 8.10366C43.0219 7.79513 50.4657 18.1715 46.8318 22.7832C45.5832 24.3583 42.3495 24.4882 37.0028 24.7967C32.1843 25.0728 29.0306 22.6695 27.5899 21.4679C25.1086 19.3731 30.9196 8.44466 37.2749 8.10366Z" fill="#372F2B"/>
<path id="Vector_22" opacity="0.24" d="M37.2688 8.15236C42.9357 7.84383 50.2835 18.0415 46.7137 22.5883C45.497 24.1472 42.2794 24.2771 37.0127 24.5694C32.2582 24.8292 29.1206 22.4909 27.7118 21.2892C25.2786 19.227 31.0256 8.49336 37.2688 8.15236Z" fill="#3A322D"/>
<path id="Vector_23" opacity="0.25" d="M37.2719 8.20122C42.8588 7.90892 50.0945 17.9118 46.6047 22.3774C45.4041 23.92 42.2184 24.0499 37.0157 24.3422C32.3253 24.602 29.2197 22.2962 27.827 21.1108C25.4418 19.0647 31.1087 8.54222 37.2719 8.20122Z" fill="#3D3530"/>
<path id="Vector_24" opacity="0.27" d="M37.2854 8.23343C42.7922 7.94114 49.9319 17.7654 46.5061 22.166C45.3215 23.6762 42.1679 23.8061 37.0452 24.0984C32.4188 24.3582 29.3292 22.0848 27.9685 20.9156C25.6313 18.9021 31.2342 8.5582 37.2854 8.23343Z" fill="#413833"/>
<path id="Vector_25" opacity="0.28" d="M37.2886 8.28213C42.7154 7.98984 49.759 17.6355 46.3973 21.9549C45.2447 23.4488 42.1071 23.5787 37.0484 23.8548C32.4701 24.0983 29.4285 21.8899 28.0838 20.7208C25.7946 18.7234 31.3175 8.59066 37.2726 8.28213H37.2886Z" fill="#443B36"/>
<path id="Vector_26" opacity="0.3" d="M37.2822 8.331C42.629 8.05495 49.5766 17.4895 46.2789 21.7439C45.1423 23.2216 42.0367 23.3353 37.0581 23.6114C32.5438 23.8549 29.5182 21.679 28.2215 20.5423C25.9804 18.5774 31.4392 8.63953 37.2822 8.331Z" fill="#483E38"/>
<path id="Vector_27" opacity="0.31" d="M37.2844 8.37994C42.5512 8.10389 49.4027 17.3598 46.169 21.5493C45.0485 22.9945 41.9749 23.1244 37.0603 23.3842C32.61 23.6278 29.6165 21.5006 28.3358 20.3639C26.1427 18.4153 31.5375 8.68847 37.2844 8.37994Z" fill="#4B413B"/>
<path id="Vector_28" opacity="0.32" d="M37.2913 8.42852C42.478 8.15247 49.2174 17.2297 46.0638 21.3381C44.9752 22.767 41.9177 22.8807 37.0832 23.1568C32.6809 23.3841 29.7194 21.3056 28.4707 20.1851C26.3256 18.269 31.6404 8.73705 37.2913 8.42852Z" fill="#4E443E"/>
<path id="Vector_29" opacity="0.34" d="M37.2894 8.47701C42.396 8.2172 49.0394 17.0996 45.9498 21.143C44.8773 22.5395 41.8517 22.6694 37.0973 22.9292C32.759 23.1565 29.8295 21.1105 28.5969 20.0063C26.4998 18.1064 31.7505 8.76931 37.2894 8.47701Z" fill="#524740"/>
<path id="Vector_30" opacity="0.35" d="M37.2917 8.52595C42.3183 8.26614 48.8657 16.9699 45.8401 20.9321C44.7836 22.3124 41.79 22.426 37.0996 22.6859C32.8254 22.9132 29.9119 20.9159 28.7113 19.8279C26.6622 17.9605 31.8489 8.81825 37.2917 8.52595Z" fill="#554A43"/>
<path id="Vector_31" opacity="0.37" d="M37.2866 8.5583C42.2331 8.29848 48.6845 16.8237 45.7229 20.7046C44.6984 22.0687 41.7208 22.1823 37.1105 22.4259C32.9003 22.637 30.0028 20.6884 28.8502 19.6167C26.8492 17.7655 31.9558 8.83435 37.3026 8.5583H37.2866Z" fill="#594D46"/>
<path id="Vector_32" opacity="0.38" d="M37.3047 8.60714C42.1712 8.34732 48.5105 16.6776 45.629 20.5099C44.6205 21.8414 41.675 21.9551 37.1286 22.1987C32.9665 22.4098 30.117 20.4937 28.9804 19.4382C27.0274 17.6195 32.07 8.88319 37.3047 8.60714Z" fill="#5C4F48"/>
<path id="Vector_33" opacity="0.39" d="M37.3039 8.65574C42.0904 8.41216 48.3336 16.5476 45.5162 20.2987C44.5237 21.614 41.6101 21.7277 37.1438 21.9712C33.0457 22.1823 30.2122 20.3149 29.1077 19.2594C27.2027 17.457 32.1653 8.93179 37.3039 8.65574Z" fill="#5F524B"/>
<path id="Vector_34" opacity="0.41" d="M37.3065 8.70469C42.0129 8.46111 48.1601 16.4179 45.4067 20.1041C44.4302 21.4031 41.5487 21.5168 37.1464 21.7441C33.1123 21.939 30.3109 20.1203 29.2223 19.081C27.3654 17.311 32.2639 8.98074 37.3065 8.70469Z" fill="#63554E"/>
<path id="Vector_35" opacity="0.42" d="M37.3006 8.75315C41.927 8.50957 47.9782 16.2878 45.2888 19.8927C44.3443 21.1593 41.4788 21.273 37.1566 21.5003C33.1705 21.6952 30.4011 19.9089 29.3605 18.9022C27.5516 17.1484 32.3861 9.01296 37.3166 8.75315H37.3006Z" fill="#665850"/>
<path id="Vector_36" opacity="0.44" d="M37.3043 8.80175C41.8506 8.57442 47.8057 16.1578 45.1803 19.6815C44.2519 20.9318 41.4184 21.0455 37.1602 21.2566C33.2382 21.4515 30.5008 19.714 29.4762 18.7072C27.7153 16.9859 32.4698 9.04533 37.3043 8.80175Z" fill="#6A5B53"/>
<path id="Vector_37" opacity="0.45" d="M37.2989 8.8507C41.7652 8.62336 47.6082 16.0281 45.0629 19.4869C44.1504 20.721 41.349 20.8184 37.1708 21.0295C33.3128 21.2244 30.5914 19.5193 29.5989 18.5288C27.886 16.8238 32.5764 9.09427 37.3149 8.8507H37.2989Z" fill="#6D5E56"/>
<path id="Vector_38" opacity="0.46" d="M37.3018 8.8993C41.6881 8.67196 47.435 15.8818 44.9537 19.2756C44.0733 20.4773 41.2879 20.591 37.1737 20.8021C33.3638 20.9807 30.6904 19.3244 29.7139 18.3501C28.049 16.6775 32.6754 9.14287 37.3018 8.8993Z" fill="#706158"/>
<path id="Vector_39" opacity="0.48" d="M37.3013 8.9319C41.6076 8.70456 47.2585 15.7358 44.8412 19.0647C43.9768 20.2501 41.2234 20.3475 37.1893 20.5586C33.4433 20.7372 30.786 19.1296 29.8415 18.1716C28.2246 16.5152 32.771 9.19171 37.3013 8.94814V8.9319Z" fill="#74645B"/>
<path id="Vector_40" opacity="0.49" d="M37.3196 8.98049C41.5458 8.76939 47.1007 15.6058 44.7475 18.8534C43.899 20.0064 41.1776 20.12 37.2076 20.3149C33.5257 20.4935 30.9003 18.9184 29.9878 17.9766C28.419 16.3527 32.9014 9.22406 37.3196 8.98049Z" fill="#77675E"/>
<path id="Vector_41" opacity="0.51" d="M37.3185 9.02918C41.4646 8.81808 46.9234 15.4758 44.6343 18.6423C43.8178 19.779 41.1124 19.8764 37.2224 20.0713C33.6046 20.2337 30.9952 18.7235 30.1148 17.7817C28.594 16.1741 33.0123 9.24028 37.3345 9.01294L37.3185 9.02918Z" fill="#7B6A60"/>
<path id="Vector_42" opacity="0.52" d="M37.3186 9.07803C41.3847 8.86693 46.7315 15.3461 44.5223 18.4476C43.7219 19.568 41.0485 19.6655 37.2226 19.8441C33.6527 20.0065 31.0914 18.5288 30.2269 17.6032C28.7542 16.0281 33.0924 9.28913 37.3186 9.07803Z" fill="#7E6D63"/>
<path id="Vector_43" opacity="0.54" d="M37.3177 9.12662C41.3037 8.93176 46.5545 15.216 44.4093 18.2364C43.6249 19.3243 40.9836 19.438 37.2376 19.6166C33.7318 19.779 31.1865 18.3338 30.3541 17.4407C28.9293 15.8818 33.2035 9.35396 37.3177 9.14286V9.12662Z" fill="#827066"/>
<path id="Vector_44" opacity="0.55" d="M37.3254 9.17547C41.2314 8.9806 46.3861 15.07 44.305 18.0416C43.5526 19.1134 40.9273 19.2108 37.2614 19.3894C33.8196 19.5356 31.2903 18.1553 30.4899 17.2622C29.1131 15.7358 33.3073 9.4028 37.3254 9.1917V9.17547Z" fill="#857368"/>
<path id="Vector_45" opacity="0.56" d="M37.3207 9.22443C41.1467 9.02957 46.2053 14.9404 44.1883 17.8308C43.4519 18.8863 40.8586 18.9837 37.2567 19.1461C33.8629 19.2922 31.3817 17.9445 30.6133 17.0676C29.2846 15.5574 33.4147 9.43553 37.3367 9.22443H37.3207Z" fill="#88766B"/>
<path id="Vector_46" opacity="0.58" d="M37.3162 9.25647C41.0782 9.07785 46.0247 14.7938 44.0717 17.603C43.3513 18.626 40.79 18.7235 37.2682 18.8859C33.9385 19.032 31.4732 17.7167 30.7368 16.8561C29.4562 15.3784 33.5223 9.4351 37.3322 9.24023L37.3162 9.25647Z" fill="#8C796E"/>
<path id="Vector_47" opacity="0.59" d="M37.3363 9.30561C41.0182 9.12699 45.8527 14.6643 43.9798 17.4086C43.2914 18.4154 40.7461 18.5128 37.2883 18.6589C34.0226 18.7888 31.5894 17.5385 30.869 16.6779C29.6364 15.2164 33.6224 9.48423 37.3363 9.30561Z" fill="#8F7C70"/>
<path id="Vector_48" opacity="0.61" d="M37.336 9.35384C40.9378 9.17522 45.6763 14.5339 43.8673 17.197C43.195 18.1875 40.6817 18.2687 37.3039 18.4311C34.0863 18.561 31.685 17.3431 30.9967 16.515C29.8121 15.086 33.7341 9.5487 37.352 9.37008L37.336 9.35384Z" fill="#937F73"/>
<path id="Vector_49" opacity="0.62" d="M37.3362 9.4027C40.858 9.22407 45.5004 14.4041 43.7555 17.0023C43.0991 17.9603 40.6179 18.0578 37.3041 18.2039C34.1505 18.3338 31.7813 17.1484 31.1089 16.3365C29.9723 14.9238 33.8303 9.59756 37.3362 9.41894V9.4027Z" fill="#968276"/>
<path id="Vector_50" opacity="0.63" d="M37.3367 9.45175C40.7785 9.28936 45.3249 14.2746 43.628 16.7915C43.0037 17.7333 40.5384 17.8145 37.3047 17.9607C34.2151 18.0743 31.8619 16.9539 31.2376 16.142C30.149 14.7617 33.927 9.63037 37.3367 9.45175Z" fill="#998478"/>
<path id="Vector_51" opacity="0.65" d="M37.3333 9.50012C40.6951 9.33774 45.1454 14.1281 43.5125 16.5801C42.9042 17.5057 40.4709 17.5869 37.3013 17.7168C34.2757 17.8304 31.9545 16.7425 31.3462 15.9468C30.3057 14.5827 34.0196 9.66251 37.3173 9.48389L37.3333 9.50012Z" fill="#9D877B"/>
<path id="Vector_52" opacity="0.66" d="M37.342 9.54886C40.6237 9.38647 44.9779 13.9982 43.4091 16.3852C42.8168 17.2783 40.4156 17.3758 37.326 17.4894C34.3484 17.6031 32.0592 16.5639 31.4829 15.7844C30.4904 14.4529 34.1243 9.71124 37.342 9.54886Z" fill="#A08A7E"/>
<path id="Vector_53" opacity="0.68" d="M37.335 9.58154C40.5367 9.4354 44.7789 13.8522 43.2901 16.1581C42.7298 17.035 40.3446 17.1162 37.319 17.2461C34.4055 17.3435 32.1483 16.353 31.5881 15.5898C30.6436 14.2744 34.2134 9.74393 37.319 9.59778L37.335 9.58154Z" fill="#A48D80"/>
<path id="Vector_54" opacity="0.69" d="M37.3318 9.63003C40.4534 9.48388 44.5996 13.7221 43.1748 15.963C42.6306 16.8236 40.2773 16.9048 37.3318 17.0185C34.4823 17.1159 32.2412 16.1579 31.7129 15.4109C30.8165 14.1118 34.3223 9.79241 37.3158 9.64627L37.3318 9.63003Z" fill="#A79083"/>
<path id="Vector_55" opacity="0.7" d="M37.3527 9.67901C40.3943 9.53287 44.4444 13.5925 43.0837 15.7522C42.5554 16.5803 40.2342 16.6615 37.3527 16.7752C34.5513 16.8726 32.3582 15.9633 31.8619 15.2163C31.0135 13.9497 34.4392 9.82516 37.3527 9.67901Z" fill="#AA9386"/>
<path id="Vector_56" opacity="0.72" d="M37.35 9.72754C40.3115 9.5814 44.2656 13.4624 42.9689 15.5409C42.4726 16.3528 40.1674 16.434 37.366 16.5314C34.6286 16.6289 32.4515 15.752 31.9872 15.0213C31.1868 13.7709 34.5485 9.85745 37.35 9.7113V9.72754Z" fill="#AE9688"/>
<path id="Vector_57" opacity="0.73" d="M37.3479 9.77642C40.2294 9.64651 44.0874 13.3326 42.8547 15.3462C42.3745 16.1419 40.1013 16.2231 37.3639 16.3043C34.6265 16.3854 32.5294 15.5573 32.0972 14.859C31.3448 13.6412 34.6425 9.92256 37.3319 9.77642H37.3479Z" fill="#B1998B"/>
<path id="Vector_58" opacity="0.75" d="M37.35 9.8252C40.1515 9.69529 43.9134 13.2028 42.7448 15.1352C42.2806 15.8984 40.0394 15.9796 37.382 16.0608C34.7247 16.1419 32.6436 15.3625 32.2274 14.6642C31.523 13.4626 34.7407 9.93887 37.334 9.80896L37.35 9.8252Z" fill="#B59C8E"/>
<path id="Vector_59" opacity="0.76" d="M37.3481 9.87405C40.0695 9.74415 43.7354 13.073 42.6308 14.9404C42.1986 15.6874 39.9895 15.7686 37.3961 15.8498C34.8028 15.931 32.7377 15.184 32.3535 14.502C31.6972 13.3328 34.8508 10.004 37.3481 9.89029V9.87405Z" fill="#B89F91"/>
<path id="Vector_60" opacity="0.77" d="M37.3466 9.92256C39.9879 9.8089 43.5418 12.9429 42.5172 14.7291C42.101 15.4599 39.9239 15.5248 37.3946 15.606C34.8653 15.6872 32.8322 14.9727 32.48 14.3069C31.8717 13.154 34.9613 10.0362 37.3466 9.92256Z" fill="#BBA293"/>
<path id="Vector_61" opacity="0.79" d="M37.3535 9.95485C39.9148 9.84118 43.3726 12.7966 42.4121 14.5016C42.0119 15.1999 39.8668 15.281 37.4175 15.346C34.9683 15.411 32.9352 14.7614 32.6151 14.1119C32.0548 12.9914 35.0643 10.0685 37.3535 9.95485Z" fill="#BFA596"/>
<path id="Vector_62" opacity="0.8" d="M37.3492 10.0035C39.8305 9.88984 43.1922 12.6666 42.2958 14.3067C41.9276 14.9887 39.7985 15.0537 37.4132 15.1186C35.028 15.1836 33.027 14.5665 32.7228 13.9332C32.2106 12.829 35.1561 10.1172 37.3492 10.0035Z" fill="#C2A899"/>
<path id="Vector_63" opacity="0.82" d="M37.3726 10.0522C39.7738 9.95482 43.0395 12.5367 42.2071 14.0956C41.8549 14.7614 39.7578 14.8263 37.4526 14.8751C35.1474 14.9238 33.1464 14.3554 32.8742 13.7384C32.41 12.6666 35.2755 10.1334 37.3726 10.036V10.0522Z" fill="#C6AB9B"/>
<path id="Vector_64" opacity="0.83" d="M37.3688 10.1009C39.69 10.0035 42.8597 12.4068 42.0913 13.9007C41.7551 14.534 39.69 14.5989 37.4489 14.6639C35.2077 14.7288 33.2387 14.193 32.9986 13.5759C32.5824 12.5204 35.3838 10.1983 37.3688 10.1171V10.1009Z" fill="#C9AE9E"/>
<path id="Vector_65" opacity="0.85" d="M37.3696 10.1496C39.6107 10.0521 42.6843 12.2768 41.9799 13.6896C41.6758 14.3066 39.6267 14.3716 37.4656 14.4203C35.3045 14.469 33.3355 13.9818 33.1274 13.381C32.7592 12.358 35.4966 10.2308 37.3696 10.1496Z" fill="#CDB1A1"/>
<path id="Vector_66" opacity="0.86" d="M37.3636 10.1982C39.5247 10.1007 42.5023 12.1468 41.8619 13.4783C41.5738 14.0792 39.5567 14.1279 37.4597 14.1766C35.3626 14.2253 33.4256 13.7869 33.2335 13.2023C32.9133 12.1955 35.5707 10.2794 37.3636 10.1982Z" fill="#D0B4A3"/>
<path id="Vector_67" opacity="0.87" d="M37.3617 10.2471C39.4428 10.1659 42.3243 12.0171 41.748 13.2837C41.4919 13.8683 39.4908 13.917 37.4738 13.9494C35.3927 13.9819 33.5197 13.5922 33.3597 13.0239C33.0875 12.0496 35.6809 10.3283 37.3617 10.2471Z" fill="#D3B7A6"/>
<path id="Vector_68" opacity="0.89" d="M37.3688 10.2795C39.3698 10.1984 42.1553 11.8709 41.643 13.0563C41.4029 13.6084 39.4339 13.6571 37.4809 13.6896C35.4478 13.7221 33.6229 13.3648 33.4788 12.8127C33.2547 11.8547 35.784 10.3283 37.3528 10.2633L37.3688 10.2795Z" fill="#D7B9A9"/>
<path id="Vector_69" opacity="0.9" d="M37.3721 10.3281C39.2931 10.2469 41.9825 11.7409 41.5343 12.8613C41.3102 13.3972 39.3732 13.4459 37.5002 13.4784C35.5312 13.4946 33.7222 13.2023 33.6262 12.6502C33.4501 11.7246 35.8994 10.3931 37.3881 10.3281H37.3721Z" fill="#DABCAB"/>
<path id="Vector_70" opacity="0.92" d="M37.3693 10.3772C39.2103 10.3123 41.8196 11.6113 41.4194 12.6506C41.2273 13.1702 39.3063 13.2027 37.4974 13.2352C35.5924 13.2514 33.7995 12.9916 33.7354 12.472C33.6074 11.5626 35.9926 10.4422 37.3693 10.3935V10.3772Z" fill="#DEBFAE"/>
<path id="Vector_71" opacity="0.93" d="M37.3789 10.4262C39.1398 10.3612 41.6531 11.4817 41.317 12.4397C41.1409 12.9269 39.2519 12.9756 37.523 12.9918C35.6821 12.9918 33.9211 12.7807 33.8731 12.2773C33.7931 11.4005 36.0983 10.4749 37.3789 10.4262Z" fill="#E1C2B1"/>
<path id="Vector_72" opacity="0.94" d="M37.3863 10.4746C39.0672 10.4097 41.4844 11.3515 41.2123 12.2446C41.0682 12.7155 39.1952 12.7642 37.5304 12.7642C35.7374 12.7642 34.0085 12.6018 33.9925 12.0985C33.9605 11.2378 36.2017 10.5233 37.3703 10.4746H37.3863Z" fill="#E4C5B3"/>
<path id="Vector_73" opacity="0.96" d="M37.3829 10.5231C38.9837 10.4744 41.3049 11.2376 41.0968 12.0332C40.9687 12.4879 39.1278 12.5204 37.543 12.5204C35.8141 12.5204 34.1172 12.3905 34.1172 11.9033C34.1172 11.0752 36.3103 10.5556 37.3829 10.5068V10.5231Z" fill="#E8C8B6"/>
<path id="Vector_74" opacity="0.97" d="M37.3843 10.5719C38.9051 10.5232 41.1463 11.1078 40.9862 11.8385C40.8902 12.277 39.0652 12.3094 37.5604 12.3094C35.8956 12.3094 34.2147 12.212 34.2627 11.7411C34.3268 10.9292 36.4238 10.6206 37.4003 10.5719H37.3843Z" fill="#EBCBB9"/>
<path id="Vector_75" opacity="0.99" d="M37.3825 10.6044C38.8232 10.5557 40.9843 10.9617 40.8723 11.6112C40.8082 12.0334 38.9993 12.0496 37.5586 12.0496C35.9417 12.0496 34.3089 12.0009 34.3729 11.5462C34.485 10.7668 36.518 10.6369 37.3825 10.6206V10.6044Z" fill="#EFCEBB"/>
<path id="Vector_76" d="M37.3856 10.6531C38.7463 10.6044 40.8113 10.8318 40.7633 11.4001C40.7313 11.7898 38.9384 11.8223 37.5777 11.8061C36.0249 11.8061 34.408 11.8061 34.5041 11.3514C34.6642 10.5882 36.6332 10.6694 37.3856 10.6531Z" fill="#F2D1BE"/>
</g>
</g>
<g id="Group_6" opacity="0.6">
<g id="Group_7" style="mix-blend-mode:screen">
<path id="Vector_77" opacity="0.01" d="M17.157 54.8381C24.873 52.4997 24.4408 59.2549 24.0566 63.2333C23.7844 66.1238 13.1709 90.8873 5.88716 92.5112C-0.580187 93.9402 4.27032 81.4366 6.9277 76.3215C8.32042 73.6259 11.5701 56.5269 17.157 54.8381Z" fill="#030303"/>
<path id="Vector_78" opacity="0.03" d="M17.1244 55.0007C24.7283 52.6948 24.2641 59.4338 23.8799 63.3959C23.5917 66.2701 13.0743 90.8551 5.87057 92.4465C-0.532744 93.8592 4.34978 81.3394 6.97514 76.2892C8.35185 73.6099 11.6015 56.6732 17.1084 55.0007H17.1244Z" fill="#070605"/>
<path id="Vector_79" opacity="0.04" d="M17.0761 55.1629C24.584 52.8895 24.0877 59.6284 23.7035 63.5419C23.4154 66.3998 12.978 90.8062 5.85429 92.3813C-0.484985 93.7616 4.42956 81.2417 7.0229 76.2565C8.39961 73.6097 11.6333 56.8192 17.0761 55.1791V55.1629Z" fill="#0A0908"/>
<path id="Vector_80" opacity="0.06" d="M17.0438 55.3253C24.4396 53.1006 23.9273 59.8233 23.5271 63.6881C23.239 66.5136 12.8816 90.7575 5.85396 92.3002C-0.421282 93.6479 4.52528 81.1281 7.0866 76.1917C8.44731 73.561 11.681 56.9167 17.0438 55.3253Z" fill="#0E0C0B"/>
<path id="Vector_81" opacity="0.07" d="M16.9926 55.5036C24.2924 53.3114 23.7481 60.0179 23.3319 63.8502C23.0277 66.6594 12.7664 90.7248 5.8188 92.2349C-0.39241 93.5502 4.58616 81.0467 7.11547 76.1589C8.47618 73.5445 11.7099 57.0625 16.9926 55.4874V55.5036Z" fill="#110F0D"/>
<path id="Vector_82" opacity="0.08" d="M16.9464 55.6666C24.1341 53.5069 23.5578 60.2134 23.1416 64.0132C22.8374 66.8062 12.6561 90.7091 5.78859 92.1706C-0.342582 93.4696 4.652 80.9498 7.14929 76.127C8.49399 73.5289 11.7277 57.2093 16.9464 55.6666Z" fill="#141210"/>
<path id="Vector_83" opacity="0.1" d="M16.9189 55.8288C24.0106 53.7178 23.4023 60.3918 22.986 64.1591C22.6659 66.9359 12.5807 90.6602 5.79315 92.0892C-0.27399 93.3558 4.75261 80.836 7.21789 76.0781C8.54657 73.4962 11.7802 57.3552 16.9189 55.8288Z" fill="#181513"/>
<path id="Vector_84" opacity="0.11" d="M16.8687 55.9911C23.8483 53.9288 23.224 60.5865 22.7918 64.3051C22.4716 67.0657 12.4665 90.6276 5.75898 92.0241C-0.244121 93.2745 4.8145 80.7384 7.24776 76.0455C8.57644 73.4799 11.7941 57.5012 16.8687 55.9911Z" fill="#1B1815"/>
<path id="Vector_85" opacity="0.13" d="M16.8224 56.1537C23.706 54.1239 23.0496 60.7654 22.6014 64.4516C22.2812 67.1959 12.3561 90.5792 5.7447 91.9432C-0.194376 93.1611 4.89626 80.625 7.2975 75.9971C8.61018 73.4476 11.8278 57.6314 16.8224 56.1537Z" fill="#1F1A18"/>
<path id="Vector_86" opacity="0.14" d="M16.7886 56.3158C23.5601 54.3347 22.8717 60.9599 22.4235 64.5973C22.0873 67.3254 12.2742 90.5301 5.72685 91.8616C-0.148189 93.0633 4.97446 80.511 7.34369 75.948C8.64036 73.4148 11.858 57.761 16.7886 56.3158Z" fill="#221D1B"/>
<path id="Vector_87" opacity="0.15" d="M16.7398 56.4945C23.4152 54.5459 22.6948 61.1549 22.2466 64.7761C21.9104 67.4879 12.1774 90.514 5.71006 91.813C-0.0849416 92.9822 5.05372 80.4299 7.39092 75.9319C8.6876 73.4149 11.8893 57.9072 16.7558 56.4945H16.7398Z" fill="#25201D"/>
<path id="Vector_88" opacity="0.17" d="M16.691 56.6572C23.2544 54.7573 22.518 61.3501 22.0538 64.9226C21.7016 67.6182 12.0646 90.4656 5.6773 91.7485C-0.0536678 92.9014 5.11701 80.3328 7.4222 75.8835C8.70286 73.3828 11.9205 58.0375 16.691 56.6572Z" fill="#292320"/>
<path id="Vector_89" opacity="0.18" d="M16.6582 56.8195C23.1256 54.9521 22.3412 61.5287 21.8769 65.0686C21.5247 67.7317 11.9678 90.4168 5.66053 91.6672C-0.0064044 92.7876 5.19629 80.2191 7.46946 75.8347C8.75013 73.3665 11.9518 58.1673 16.6582 56.8195Z" fill="#2C2623"/>
<path id="Vector_90" opacity="0.2" d="M16.6102 56.9818C22.9655 55.1468 22.1651 61.7234 21.6848 65.2147C21.3326 67.8615 11.8557 90.368 5.6285 91.5858C0.0256033 92.6738 5.26031 80.1053 7.50147 75.7859C8.76612 73.3339 11.9678 58.2971 16.5942 56.9655L16.6102 56.9818Z" fill="#302925"/>
<path id="Vector_91" opacity="0.21" d="M16.5657 57.1441C22.8249 55.3578 21.9925 61.9019 21.5122 65.3769C21.144 68.0076 11.7632 90.3516 5.63201 91.5208C0.0931413 92.5925 5.35987 80.0078 7.56901 75.7533C8.81765 73.3175 12.0193 58.4431 16.5817 57.1441H16.5657Z" fill="#332C28"/>
<path id="Vector_92" opacity="0.23" d="M16.5308 57.323C22.678 55.5692 21.8135 62.1133 21.3333 65.5396C20.9651 68.154 11.6643 90.3194 5.61316 91.4724C0.154335 92.5116 5.43707 79.9268 7.61419 75.7373C8.86284 73.3178 12.0485 58.6058 16.5468 57.3392L16.5308 57.323Z" fill="#372F2B"/>
<path id="Vector_93" opacity="0.24" d="M16.4839 57.4849C22.535 55.7799 21.6386 62.2915 21.1423 65.6853C20.7581 68.2835 11.5534 90.2703 5.58228 91.3907C0.187485 92.3975 5.50223 79.829 7.64734 75.6882C8.87998 73.2849 12.0656 58.7353 16.4839 57.4849Z" fill="#3A322D"/>
<path id="Vector_94" opacity="0.25" d="M16.4563 57.6475C22.3954 55.975 21.4829 62.4866 20.9706 65.8317C20.5864 68.4136 11.4617 90.2218 5.57066 91.3098C0.239898 92.3003 5.57066 79.7155 7.69976 75.6397C8.91639 73.2527 12.102 58.8654 16.4563 57.6475Z" fill="#3D3530"/>
<path id="Vector_95" opacity="0.27" d="M16.4066 57.8099C22.2496 56.186 21.3051 62.6652 20.7928 65.994C20.3926 68.5597 11.3639 90.1893 5.55294 91.2448C0.286211 92.2028 5.66499 79.6181 7.74607 75.5909C8.9627 73.2201 12.1323 58.9953 16.4066 57.8099Z" fill="#413833"/>
<path id="Vector_96" opacity="0.28" d="M16.357 57.9722C22.088 56.3808 21.1115 62.8599 20.5992 66.1401C20.199 68.6895 11.2504 90.1405 5.53542 91.1635C0.33273 92.0891 5.74353 79.5043 7.77658 75.5421C8.9772 73.1876 12.1468 59.1251 16.357 57.9559V57.9722Z" fill="#443B36"/>
<path id="Vector_97" opacity="0.3" d="M16.3234 58.1507C21.9583 56.5918 20.9498 63.0547 20.4215 66.3024C20.0213 68.8356 11.1527 90.1079 5.51783 91.1147C0.379175 92.024 5.82199 79.423 7.82303 75.5258C9.02365 73.1875 12.1773 59.2874 16.3234 58.1507Z" fill="#483E38"/>
<path id="Vector_98" opacity="0.31" d="M16.2715 58.3134C21.7943 56.8033 20.7698 63.2499 20.2255 66.4489C19.8093 68.9658 11.0367 90.0758 5.48188 91.0338C0.423259 91.9107 5.88208 79.3097 7.8511 75.4774C9.03571 73.1716 12.2054 59.4176 16.2555 58.3134H16.2715Z" fill="#4B413B"/>
<path id="Vector_99" opacity="0.32" d="M16.2266 58.4757C21.6534 56.998 20.5809 63.4284 20.0526 66.6111C19.6364 69.0956 10.9439 90.0431 5.46903 90.9687C0.474449 91.8293 5.96529 79.2121 7.90229 75.4448C9.0709 73.1552 12.2405 59.5636 16.2266 58.4757Z" fill="#4E443E"/>
<path id="Vector_100" opacity="0.34" d="M16.1943 58.638C21.509 57.209 20.4204 63.6232 19.8762 66.7572C19.4439 69.2254 10.8475 89.9943 5.45271 90.8874C0.522156 91.7156 6.04501 79.0984 7.95 75.396C9.1186 73.1226 12.2722 59.6935 16.1783 58.638H16.1943Z" fill="#524740"/>
<path id="Vector_101" opacity="0.35" d="M16.1503 58.8003C21.369 57.4038 20.2484 63.818 19.6881 66.9033C19.2559 69.3553 10.7395 89.9456 5.44071 90.8225C0.574197 91.6182 6.12907 79.0009 8.00204 75.3635C9.15464 73.1064 12.3083 59.8396 16.1503 58.8003Z" fill="#554A43"/>
<path id="Vector_102" opacity="0.37" d="M16.1032 58.9792C21.2098 57.6314 20.0572 64.0131 19.4969 67.0659C19.0487 69.5017 10.6283 89.9133 5.40962 90.7577C0.607139 91.5372 6.19403 78.9037 8.03498 75.3313C9.18758 73.0904 12.3252 59.986 16.1032 58.9792Z" fill="#594D46"/>
<path id="Vector_103" opacity="0.38" d="M16.0678 59.1415C21.0784 57.8262 19.8938 64.2079 19.3335 67.2283C18.8853 69.6478 10.545 89.8809 5.40631 90.6928C0.667863 91.4397 6.28677 78.8225 8.09571 75.2825C9.23229 73.0579 12.3699 60.1158 16.0678 59.1415Z" fill="#5C4F48"/>
<path id="Vector_104" opacity="0.39" d="M16.0225 59.3038C20.921 58.021 19.7204 64.3864 19.1441 67.3743C18.6798 69.7776 10.4356 89.832 5.37694 90.6115C0.718534 91.326 6.35345 78.7087 8.13037 75.2337C9.26696 73.0253 12.3886 60.2456 16.0225 59.2876V59.3038Z" fill="#5F524B"/>
<path id="Vector_105" opacity="0.41" d="M15.9728 59.4662C20.7753 58.2321 19.5266 64.5813 18.9503 67.5205C18.4861 69.9075 10.3219 89.7833 5.3433 90.5466C0.74892 91.2448 6.41585 78.6113 8.16075 75.2013C9.28133 73.0091 12.4029 60.3918 15.9568 59.4662H15.9728Z" fill="#63554E"/>
<path id="Vector_106" opacity="0.42" d="M15.9392 59.6285C20.6296 58.4268 19.365 64.7598 18.7727 67.6665C18.2924 70.0373 10.2243 89.7507 5.32573 90.4652C0.795386 91.131 6.49433 78.4975 8.20722 75.1524C9.31179 72.9764 12.4334 60.5053 15.9232 59.6285H15.9392Z" fill="#665850"/>
<path id="Vector_107" opacity="0.44" d="M15.8936 59.8073C20.488 58.6544 19.1753 64.9711 18.599 67.8453C18.1188 70.1999 10.1306 89.7347 5.32816 90.4167C0.861845 91.05 6.59281 78.4165 8.27368 75.1364C9.37825 72.9929 12.4999 60.6679 15.9096 59.8073H15.8936Z" fill="#6A5B53"/>
<path id="Vector_108" opacity="0.45" d="M15.8453 59.9696C20.3277 58.8492 18.999 65.1497 18.4067 67.9914C17.9264 70.3297 10.0183 89.6859 5.29589 90.3355C0.893612 90.9525 6.65659 78.3028 8.30545 75.0876C9.39401 72.9604 12.5156 60.7978 15.8453 59.9696Z" fill="#6D5E56"/>
<path id="Vector_109" opacity="0.46" d="M15.8171 60.1321C20.2033 59.0441 18.8426 65.3446 18.2343 68.1376C17.7381 70.4435 9.92603 89.6373 5.28363 90.2706C0.945383 90.8552 6.74038 78.2055 8.35722 75.0552C9.42977 72.9442 12.5514 60.944 15.8171 60.1483V60.1321Z" fill="#706158"/>
<path id="Vector_110" opacity="0.48" d="M15.7616 60.2943C20.0358 59.255 18.643 65.5231 18.0507 68.2836C17.5545 70.5732 9.82248 89.5884 5.26012 90.1892C0.98591 90.7413 6.81292 78.0916 8.39774 75.0063C9.4703 72.9115 12.5759 61.0737 15.7616 60.2943Z" fill="#74645B"/>
<path id="Vector_111" opacity="0.49" d="M15.7313 60.4567C19.9095 59.4499 18.4848 65.7179 17.8765 68.446C17.3642 70.7193 9.72824 89.5559 5.24592 90.1242C1.05175 90.6601 6.89477 77.9941 8.44758 74.9576C9.50412 72.879 12.6097 61.2036 15.7313 60.4567Z" fill="#77675E"/>
<path id="Vector_112" opacity="0.51" d="M15.6846 60.6354C19.7507 59.6773 18.31 65.9129 17.6857 68.6084C17.1734 70.8656 9.6175 89.5235 5.23123 90.0594C1.10109 90.5628 6.97613 77.8968 8.49692 74.9252C9.55346 72.8629 12.6431 61.3499 15.7006 60.6354H15.6846Z" fill="#7B6A60"/>
<path id="Vector_113" opacity="0.52" d="M15.6349 60.7977C19.6049 59.8721 18.1162 66.1077 17.4919 68.7545C16.9636 70.9954 9.50372 89.4747 5.1975 89.9781C1.13139 90.449 7.03845 77.7831 8.52722 74.8764C9.56776 72.8304 12.6574 61.4797 15.6349 60.7815V60.7977Z" fill="#7E6D63"/>
<path id="Vector_114" opacity="0.54" d="M15.6048 60.9602C19.4628 60.0833 17.958 66.2864 17.3337 68.9007C16.8054 71.1254 9.42561 89.4261 5.19942 89.9132C1.19735 90.3679 7.13642 77.6857 8.59318 74.844C9.61771 72.8142 12.7073 61.6259 15.6208 60.9602H15.6048Z" fill="#827066"/>
<path id="Vector_115" opacity="0.55" d="M15.56 61.1225C19.3059 60.2781 17.7691 66.4812 17.1448 69.0631C16.6005 71.2715 9.31675 89.4099 5.1706 89.8483C1.23257 90.2705 7.20365 77.6045 8.62839 74.8115C9.65292 72.798 12.7265 61.7721 15.56 61.1388V61.1225Z" fill="#857368"/>
<path id="Vector_116" opacity="0.56" d="M15.5095 61.2848C19.1594 60.4729 17.5906 66.6597 16.9502 69.2091C16.406 71.4013 9.20223 89.361 5.13613 89.767C1.07002 90.1729 7.26523 77.4907 8.65795 74.7627C9.66647 72.7816 12.7401 61.9018 15.5095 61.2848Z" fill="#88766B"/>
<path id="Vector_117" opacity="0.58" d="M15.4789 61.4475C19.0168 60.6843 17.432 66.8549 16.7756 69.3556C16.2153 71.5315 9.10765 89.3126 5.1376 89.6861C1.16754 90.0595 7.36275 77.3773 8.72345 74.7142C9.73197 72.7494 12.7896 62.032 15.495 61.4475H15.4789Z" fill="#8C796E"/>
<path id="Vector_118" opacity="0.59" d="M15.4283 61.6259C18.8701 60.8952 17.2372 67.0495 16.5969 69.5178C16.0366 71.6775 9.00898 89.2799 5.11897 89.6372C1.22895 89.9944 7.44017 77.296 8.76886 74.6978C9.76137 72.7492 12.8189 62.1942 15.4443 61.6421L15.4283 61.6259Z" fill="#8F7C70"/>
<path id="Vector_119" opacity="0.61" d="M15.3825 61.7884C18.7123 61.0901 17.0634 67.2445 16.4071 69.6802C15.8308 71.8075 8.89918 89.2475 5.08921 89.5723C1.27924 89.8971 7.50646 77.1986 8.80313 74.6492C9.77964 72.7168 12.8532 62.3242 15.3985 61.7884H15.3825Z" fill="#937F73"/>
<path id="Vector_120" opacity="0.62" d="M15.3491 61.9505C18.5828 61.301 16.8859 67.4229 16.2296 69.8262C15.6533 71.9372 8.80171 89.1986 5.07178 89.4909C1.34185 89.7832 7.58508 77.0847 8.84973 74.6003C9.82624 72.6841 12.8838 62.4539 15.3491 61.9505Z" fill="#968276"/>
<path id="Vector_121" opacity="0.63" d="M15.3008 62.1131C18.4224 61.4961 16.7095 67.618 16.0372 69.9725C15.4449 72.0673 8.68939 89.1501 5.0395 89.4099C1.38962 89.6697 7.64885 76.9713 8.86548 74.5518C9.82598 72.6519 12.8836 62.5841 15.2848 62.1131H15.3008Z" fill="#998478"/>
<path id="Vector_122" opacity="0.65" d="M15.2565 62.2753C18.2821 61.707 16.5212 67.8126 15.8648 70.1185C15.2725 72.197 8.59705 89.1012 5.02721 89.3447C1.45736 89.5883 7.73261 76.8736 8.91722 74.5191C9.86171 72.6354 12.9193 62.73 15.2565 62.2753Z" fill="#9D877B"/>
<path id="Vector_123" opacity="0.66" d="M15.2182 62.4541C18.1317 61.9183 16.3548 68.0077 15.6824 70.2973C15.0741 72.3596 8.49473 89.0851 5.02093 89.2962C1.54714 89.5073 7.82238 76.7927 8.97498 74.503C9.91947 72.6356 12.961 62.8763 15.2182 62.4704V62.4541Z" fill="#A08A7E"/>
<path id="Vector_124" opacity="0.68" d="M15.1678 62.6164C17.9853 62.113 16.1603 68.2024 15.488 70.4433C14.8637 72.4893 8.3803 89.0362 4.98655 89.2149C1.59279 89.3935 7.88404 76.6788 9.00462 74.4541C9.9331 72.603 12.9747 63.0061 15.1678 62.6164Z" fill="#A48D80"/>
<path id="Vector_125" opacity="0.69" d="M15.1415 62.7789C17.8469 62.3242 16.006 68.3812 15.3176 70.5896C14.6933 72.6194 8.28997 88.9877 4.97626 89.1339C1.66254 89.28 7.96981 76.5653 9.05837 74.4056C9.98685 72.5707 13.0124 63.1362 15.1255 62.7789H15.1415Z" fill="#A79083"/>
<path id="Vector_126" opacity="0.7" d="M15.0921 62.9412C17.6854 62.519 15.8125 68.5759 15.1401 70.7356C14.4998 72.7492 8.19251 88.9389 4.95884 89.0525C1.72516 89.1662 8.04844 76.4515 9.10498 74.3568C10.0175 72.5543 13.043 63.2659 15.0921 62.9412Z" fill="#AA9386"/>
<path id="Vector_127" opacity="0.72" d="M15.0437 63.1037C17.541 62.714 15.636 68.7547 14.9477 70.8981C14.3073 72.8955 8.08011 88.9065 4.92648 89.004C1.77285 89.1014 8.11213 76.3705 9.13666 74.3245C10.0331 72.5382 13.0587 63.4122 15.0437 63.1037Z" fill="#AE9688"/>
<path id="Vector_128" opacity="0.73" d="M15.0131 63.2821C17.3983 62.9411 15.4613 68.9655 14.773 71.0603C14.1166 73.0251 7.98545 88.8738 4.92787 88.9388C1.87029 89.0037 8.20957 76.2891 9.20208 74.2917C10.0985 72.5218 13.1081 63.5581 15.0131 63.2821Z" fill="#B1998B"/>
<path id="Vector_129" opacity="0.75" d="M14.9623 63.4446C17.2515 63.136 15.2825 69.1442 14.5781 71.2065C13.9218 73.1551 7.87064 88.8252 4.8931 88.8577C1.91556 88.8902 8.27084 76.1755 9.23134 74.2431C10.1118 72.4894 13.1214 63.6881 14.9623 63.4446Z" fill="#B59C8E"/>
<path id="Vector_130" opacity="0.76" d="M14.9119 63.6069C17.089 63.3309 15.088 69.3391 14.3996 71.3527C13.7113 73.3662 7.77218 88.7765 4.87468 88.7765C1.97718 88.7765 8.34848 76.0618 9.27696 74.1944C10.1414 72.4569 13.151 63.818 14.9119 63.5907V63.6069Z" fill="#B89F91"/>
<path id="Vector_131" opacity="0.77" d="M14.886 63.7695C16.9511 63.5422 14.934 69.5179 14.2297 71.499C13.5253 73.4801 7.68228 88.7279 4.86482 88.7117C2.04736 88.6955 8.43467 75.9645 9.33113 74.1621C10.2276 72.3596 13.1891 63.9644 14.886 63.7695Z" fill="#BBA293"/>
<path id="Vector_132" opacity="0.79" d="M14.8375 63.9318C16.8065 63.7369 14.7414 69.7127 14.037 71.6613C13.3327 73.6099 7.5697 88.6954 4.83228 88.6466C2.09486 88.5979 8.49818 75.867 9.36262 74.1295C10.2271 72.392 13.2046 64.1104 14.8375 63.948V63.9318Z" fill="#BFA596"/>
<path id="Vector_133" opacity="0.8" d="M14.7858 64.1104C16.6427 63.948 14.5617 69.9075 13.8413 71.8237C13.1209 73.7398 7.45398 88.6629 4.79661 88.5817C2.13923 88.5005 8.55855 75.7696 9.39098 74.0971C10.2234 72.4245 13.217 64.2566 14.7698 64.1104H14.7858Z" fill="#C2A899"/>
<path id="Vector_134" opacity="0.82" d="M14.7559 64.2727C16.5008 64.1428 14.3877 70.0861 13.6834 71.9697C12.979 73.8534 7.37612 88.6141 4.81479 88.5004C2.25347 88.3868 8.67279 75.6559 9.4732 74.0482C10.2736 72.4406 13.2832 64.3702 14.7719 64.2727H14.7559Z" fill="#C6AB9B"/>
<path id="Vector_135" opacity="0.83" d="M14.7106 64.435C16.3274 64.1427 14.2144 70.2808 13.494 72.1158C12.7736 73.9507 7.26676 88.5653 4.78547 88.4354C2.17612 88.2892 8.73952 75.5583 9.50792 73.9994C10.3243 72.3431 13.3179 64.6786 14.7106 64.435Z" fill="#C9AE9E"/>
<path id="Vector_136" opacity="0.85" d="M14.6622 64.5974C16.183 64.3376 14.0219 70.4594 13.3015 72.2781C12.5811 74.0969 7.1543 88.5328 4.75306 88.3704C2.20774 88.1918 8.80315 75.4609 9.53954 73.9669C10.356 72.3431 13.3335 64.8247 14.6622 64.5974Z" fill="#CDB1A1"/>
<path id="Vector_137" opacity="0.86" d="M14.6261 64.76C16.0348 64.5489 13.8577 70.6545 13.1213 72.4245C12.3849 74.1945 7.05419 88.4843 4.73299 88.2894C2.25171 88.0783 8.87913 75.3474 9.5835 73.9184C10.3839 72.3108 13.3615 64.9548 14.6261 64.76Z" fill="#D0B4A3"/>
<path id="Vector_138" opacity="0.87" d="M14.5786 64.9385C15.8912 64.7599 13.6661 70.8493 12.9457 72.5868C12.2253 74.3243 6.95861 88.4518 4.71745 88.2244C2.3002 87.9971 8.95965 75.2499 9.632 73.8859C10.4164 72.2945 13.3939 65.1009 14.5786 64.9385Z" fill="#D3B7A6"/>
<path id="Vector_139" opacity="0.89" d="M14.5443 65.1008C15.7609 64.9709 13.5037 71.0441 12.7673 72.7329C12.031 74.4217 6.86028 88.403 4.71517 88.1431C2.36196 87.8833 9.03741 75.1362 9.69375 73.8371C10.4782 72.262 13.4237 65.2145 14.5603 65.0846L14.5443 65.1008Z" fill="#D7B9A9"/>
<path id="Vector_140" opacity="0.9" d="M14.4971 65.2634C15.6017 65.1659 13.3125 71.2229 12.5762 72.8954C11.8078 74.6492 6.74914 88.3544 4.68407 88.0946C2.41089 87.8023 9.10236 75.0551 9.72668 73.821C10.4951 72.2621 13.4406 65.377 14.4971 65.2796V65.2634Z" fill="#DABCAB"/>
<path id="Vector_141" opacity="0.92" d="M14.4519 65.4254C15.4605 65.5391 13.1233 71.4174 12.3869 73.0412C11.6025 74.7625 6.6399 88.3053 4.65488 88.013C2.44573 87.6883 9.16921 74.9411 9.76152 73.772C10.5139 72.2293 13.4594 65.328 14.4519 65.4417V65.4254Z" fill="#DEBFAE"/>
<path id="Vector_142" opacity="0.93" d="M14.4187 65.588C15.3152 65.7342 12.962 71.5962 12.2256 73.1876C11.4252 74.8926 6.55866 88.2569 4.65368 87.9321C2.50857 87.5748 9.26406 74.8277 9.82435 73.7072C10.5767 72.1808 13.5063 65.4256 14.4347 65.5718L14.4187 65.588Z" fill="#E1C2B1"/>
<path id="Vector_143" opacity="0.94" d="M14.3709 65.7666C15.1553 65.929 12.7701 71.8073 12.0337 73.35C11.2333 75.0388 6.44683 88.2244 4.62188 87.8671C2.54081 87.4774 9.32832 74.7465 9.85659 73.6747C10.593 72.1646 13.5225 65.5718 14.3709 65.7504V65.7666Z" fill="#E4C5B3"/>
<path id="Vector_144" opacity="0.96" d="M14.3234 65.929C15.0118 66.1239 12.5945 71.9859 11.8421 73.5124C11.0257 75.1849 6.33527 88.1757 4.60638 87.8184C2.58933 87.3962 9.40886 74.6653 9.90512 73.6585C10.6255 72.1646 13.555 65.7179 14.3394 65.929H14.3234Z" fill="#E8C8B6"/>
<path id="Vector_145" opacity="0.97" d="M14.2886 66.0915C14.8649 66.3026 12.4157 72.1647 11.6633 73.6586C10.8309 75.315 6.25249 88.1271 4.58763 87.7373C2.63462 87.2827 9.48616 74.5518 9.9504 73.6099C10.6708 72.1322 13.5843 65.8317 14.2886 66.0915Z" fill="#EBCBB9"/>
<path id="Vector_146" opacity="0.99" d="M14.2419 66.2537C14.7222 66.481 12.2249 72.3593 11.4885 73.8046C10.6561 75.4284 6.15775 88.0781 4.57293 87.6559C2.69996 87.1525 9.56752 74.4379 9.98373 73.561C10.6881 72.0995 13.6016 65.9289 14.2419 66.2537Z" fill="#EFCEBB"/>
<path id="Vector_147" d="M10.0305 73.5288C10.7188 72.0836 13.6483 66.0591 14.2086 66.4164C14.5928 66.6762 12.0635 72.5383 11.3111 73.951C10.4627 75.5586 6.06042 88.0135 4.55564 87.575C2.7467 87.0392 9.64627 74.3245 10.0305 73.5126V73.5288Z" fill="#F2D1BE"/>
</g>
</g>
</g>
<path id="Vector_148" d="M100.634 5.40818C98.1364 3.16728 95.2709 1.78702 92.1173 0.991333C93.0458 5.05094 93.8622 11.5463 92.2934 18.8211C92.0693 19.8279 91.8132 20.8509 91.493 21.8902C90.1803 26.2258 87.9712 30.7401 84.4013 35.1245L73.9159 49.2194C72.267 51.3304 70.6022 53.4414 68.9533 55.5524C65.5916 59.8556 62.3899 64.2887 59.2043 68.7218C58.676 69.4687 58.1797 70.2319 57.6835 71.0114C56.9951 72.1318 56.3228 73.2685 55.6504 74.4052C55.3303 74.9411 55.1382 75.5419 54.9621 76.1427C54.6899 77.0683 54.5138 78.0101 54.2257 78.9357C53.7455 80.4946 53.7294 82.0697 54.0016 83.6449C54.0336 83.791 54.0176 83.9534 54.0336 84.1158L54.3378 85.2525C54.77 86.1618 55.1382 87.1361 55.6664 87.9805C57.6675 91.1633 60.581 92.917 64.2149 93.6315C64.2469 93.6315 64.2789 93.6315 64.3109 93.6477C92.7256 56.9002 101.162 38.1611 103.627 30.7888C103.627 30.7888 103.595 30.7888 103.579 30.7726C104.043 29.0676 104.524 27.4112 104.956 25.7387C106.012 21.6466 106.157 17.4733 105.26 13.365C104.588 10.2472 103.019 7.55165 100.602 5.3757L100.634 5.40818Z" fill="url(#paint4_linear_1576_21693)"/>
<path id="Vector_149" style="mix-blend-mode:multiply" opacity="0.63" d="M99.0117 41.5712C99.0117 41.5712 102.95 33.5819 103.654 30.8214C103.654 30.8214 111.29 34.4263 115.116 41.2302L103.91 47.4495C103.91 47.4495 102.453 43.9745 99.0117 41.555V41.5712Z" fill="url(#paint5_linear_1576_21693)"/>
<g id="Group_8" style="mix-blend-mode:screen">
<path id="Vector_150" opacity="0.01" d="M57.7257 75.9317C59.6627 71.1251 64.2891 66.9356 66.2101 68.1372C67.7309 69.0953 65.3937 73.9181 63.6328 78.3837C62.064 82.3296 59.5187 87.0875 57.8218 86.8276C55.9648 86.5354 55.5166 81.3715 57.7257 75.9317Z" fill="#030303"/>
<path id="Vector_151" opacity="0.03" d="M57.7381 75.9479C59.6591 71.1901 64.2215 67.033 66.1264 68.2184C67.6312 69.1603 65.326 73.9506 63.5651 78.3674C62.0123 82.2971 59.483 87.0063 57.8181 86.7465C55.9772 86.4542 55.561 81.3391 57.7381 75.9317V75.9479Z" fill="#070605"/>
<path id="Vector_152" opacity="0.04" d="M57.7745 75.9479C59.6795 71.2225 64.1938 67.0979 66.0828 68.2833C67.5715 69.2252 65.2824 73.9505 63.5375 78.3511C62.0007 82.2484 59.5034 86.925 57.8545 86.6652C56.0296 86.3892 55.6294 81.3065 57.7745 75.9479Z" fill="#0A0908"/>
<path id="Vector_153" opacity="0.06" d="M57.7897 75.9479C59.6787 71.2712 64.145 67.1791 66.002 68.3483C67.4747 69.2739 65.2016 73.9505 63.4727 78.3187C61.9359 82.1834 59.4706 86.8276 57.8378 86.5678C56.0288 86.2917 55.6446 81.2416 57.7737 75.9479H57.7897Z" fill="#0E0C0B"/>
<path id="Vector_154" opacity="0.07" d="M57.8043 75.9642C59.6772 71.3363 64.0955 67.2605 65.9365 68.4134C67.3932 69.3227 65.1521 73.9507 63.4232 78.2863C61.9024 82.1186 59.4691 86.7303 57.8523 86.4867C56.0594 86.2107 55.6912 81.2093 57.8043 75.9642Z" fill="#110F0D"/>
<path id="Vector_155" opacity="0.08" d="M57.8213 75.9644C59.6623 71.3689 64.0486 67.3418 65.8575 68.4785C67.2982 69.3716 65.0731 73.9508 63.3602 78.2702C61.8554 82.0863 59.4382 86.6493 57.8533 86.4057C56.0924 86.1296 55.7242 81.1769 57.8213 75.9806V75.9644Z" fill="#141210"/>
<path id="Vector_156" opacity="0.1" d="M57.8417 75.9804C59.6667 71.4337 64.0049 67.439 65.7979 68.5595C67.2226 69.4526 65.0295 73.9668 63.3166 78.2538C61.8118 82.0373 59.4426 86.5679 57.8578 86.3243C56.1128 86.0482 55.7767 81.128 57.8417 75.9966V75.9804Z" fill="#181513"/>
<path id="Vector_157" opacity="0.11" d="M57.8529 75.9803C59.6618 71.466 63.952 67.5039 65.7129 68.6243C67.1056 69.5012 64.9445 73.9667 63.2476 78.2212C61.7589 81.9723 59.4057 86.4703 57.8529 86.2268C56.124 85.9669 55.8038 81.0792 57.8529 75.9803Z" fill="#1B1815"/>
<path id="Vector_158" opacity="0.13" d="M57.8698 75.9803C59.6627 71.5147 63.8889 67.585 65.6498 68.673C67.0265 69.5336 64.8814 73.9505 63.2005 78.1887C61.7278 81.9073 59.4066 86.3728 57.8698 86.1293C56.1569 85.8694 55.8527 81.0304 57.8698 75.9803Z" fill="#1F1A18"/>
<path id="Vector_159" opacity="0.14" d="M57.8834 75.9964C59.6603 71.5633 63.8385 67.6823 65.5674 68.7541C66.9281 69.6147 64.815 73.9666 63.1341 78.1723C61.6613 81.8747 59.3722 86.2915 57.8514 86.048C56.1705 85.7882 55.8664 80.9978 57.8674 75.9964H57.8834Z" fill="#221D1B"/>
<path id="Vector_160" opacity="0.15" d="M57.902 75.9965C59.6629 71.6122 63.7931 67.7474 65.506 68.8192C66.8506 69.6636 64.7536 73.9667 63.0887 78.14C61.6319 81.8099 59.3748 86.178 57.87 85.9507C56.2051 85.6909 55.917 80.933 57.902 75.9965Z" fill="#25201D"/>
<path id="Vector_161" opacity="0.17" d="M57.9133 75.9964C59.6582 71.6445 63.7403 67.8285 65.4211 68.8677C66.7498 69.6959 64.6688 73.9504 63.0199 78.0912C61.5631 81.7286 59.338 86.0642 57.8652 85.8369C56.2164 85.5771 55.9442 80.8679 57.9133 75.9802V75.9964Z" fill="#292320"/>
<path id="Vector_162" opacity="0.18" d="M57.9266 76.0128C59.6555 71.7096 63.6896 67.9098 65.3384 68.9491C66.6511 69.761 64.6021 73.9667 62.9532 78.0913C61.5125 81.6962 59.3193 85.9994 57.8466 85.7721C56.2137 85.5123 55.9736 80.8518 57.9106 76.0128H57.9266Z" fill="#2C2623"/>
<path id="Vector_163" opacity="0.2" d="M57.9532 76.0126C59.6661 71.7419 63.6521 67.9908 65.285 69.0138C66.5817 69.8257 64.5486 73.9665 62.9158 78.0586C61.491 81.6473 59.3139 85.9018 57.8732 85.6907C56.2563 85.4471 56.0322 80.8029 57.9532 76.0288V76.0126Z" fill="#302925"/>
<path id="Vector_164" opacity="0.21" d="M57.9626 76.0288C59.6595 71.8068 63.5975 68.0882 65.1984 69.095C66.463 69.8907 64.462 73.9827 62.8451 78.0423C61.4204 81.5986 59.2753 85.8205 57.8666 85.6094C56.2817 85.3659 56.0576 80.7704 57.9626 76.0288Z" fill="#332C28"/>
<path id="Vector_165" opacity="0.23" d="M57.9819 76.0292C59.6627 71.8559 63.5367 68.1536 65.1376 69.1441C66.3862 69.9235 64.4172 73.9669 62.8003 78.0103C61.3916 81.534 59.2785 85.7235 57.8698 85.5124C56.301 85.2688 56.0929 80.7221 57.9819 76.0292Z" fill="#372F2B"/>
<path id="Vector_166" opacity="0.24" d="M57.9972 76.029C59.6621 71.8882 63.4881 68.2345 65.0569 69.2088C66.2895 69.9883 64.3365 73.9667 62.7357 77.9776C61.343 81.4689 59.2459 85.6259 57.8692 85.4148C56.3164 85.1712 56.1243 80.6732 57.9972 76.029Z" fill="#3A322D"/>
<path id="Vector_167" opacity="0.25" d="M58.0122 76.0452C59.6451 71.9531 63.439 68.3157 64.9918 69.29C66.2084 70.0532 64.2714 73.9829 62.6866 77.9614C61.2939 81.4364 59.2448 85.5447 57.8841 85.3336C56.3474 85.09 56.1873 80.6245 58.0122 76.0452Z" fill="#3D3530"/>
<path id="Vector_168" opacity="0.27" d="M58.032 76.0453C59.6488 71.9857 63.3948 68.397 64.9156 69.355C66.1162 70.102 64.2112 73.983 62.6264 77.9452C61.2497 81.3877 59.2166 85.4635 57.8719 85.2524C56.3511 85.0251 56.2071 80.592 58.016 76.0615L58.032 76.0453Z" fill="#413833"/>
<path id="Vector_169" opacity="0.28" d="M58.0451 76.0614C59.6459 72.0505 63.3438 68.4943 64.8486 69.4199C66.0332 70.1506 64.1442 73.9829 62.5754 77.9126C61.2147 81.3226 59.2137 85.366 57.885 85.1549C56.3962 84.9275 56.2521 80.5432 58.0451 76.0614Z" fill="#443B36"/>
<path id="Vector_170" opacity="0.3" d="M58.0646 76.0615C59.6494 72.0831 63.2993 68.5594 64.772 69.4849C65.9406 70.2157 64.0837 73.983 62.5149 77.8802C61.1541 81.2578 59.1851 85.2687 57.8885 85.0576C56.4157 84.8303 56.2876 80.4946 58.0646 76.0453V76.0615Z" fill="#483E38"/>
<path id="Vector_171" opacity="0.31" d="M58.0958 76.0615C59.6646 72.1318 63.2665 68.6406 64.7233 69.5499C65.8598 70.2644 64.0349 73.983 62.4821 77.864C61.1374 81.2254 59.2004 85.1875 57.9037 84.9764C56.447 84.7491 56.3349 80.4459 58.0958 76.0615Z" fill="#4B413B"/>
<path id="Vector_172" opacity="0.32" d="M58.1096 76.0777C59.6624 72.1805 63.2002 68.7217 64.6409 69.6148C65.7615 70.313 63.9526 73.9992 62.4158 77.8314C61.0871 81.1603 59.1661 85.0738 57.9015 84.8789C56.4607 84.6516 56.3807 80.3971 58.1096 76.0614V76.0777Z" fill="#4E443E"/>
<path id="Vector_173" opacity="0.34" d="M58.1231 76.0781C59.6599 72.2296 63.1497 68.8033 64.5585 69.6802C65.663 70.3784 63.8861 73.9996 62.3493 77.7994C61.0206 81.0958 59.1477 84.9768 57.899 84.7981C56.4903 84.587 56.4102 80.3651 58.1231 76.0781Z" fill="#524740"/>
<path id="Vector_174" opacity="0.35" d="M58.1365 76.0939C59.6573 72.2779 63.0991 68.9003 64.4918 69.761C65.5804 70.443 63.8195 74.0154 62.2987 77.799C60.986 81.0629 59.129 84.9114 57.9124 84.7328C56.5197 84.5217 56.4557 80.3322 58.1365 76.1102V76.0939Z" fill="#554A43"/>
<path id="Vector_175" opacity="0.37" d="M58.1528 76.094C59.6576 72.3267 63.0513 68.9654 64.412 69.826C65.4846 70.4918 63.7397 74.0155 62.2349 77.7666C60.9382 81.0143 59.0973 84.814 57.8967 84.6354C56.52 84.4243 56.4719 80.2835 58.1368 76.1103L58.1528 76.094Z" fill="#594D46"/>
<path id="Vector_176" opacity="0.38" d="M58.1723 76.0942C59.661 72.3756 63.0068 69.0468 64.3515 69.8749C65.408 70.5245 63.6951 73.9995 62.1904 77.7181C60.8937 80.9333 59.1008 84.7006 57.9161 84.522C56.5554 84.3109 56.5234 80.2188 58.1723 76.078V76.0942Z" fill="#5C4F48"/>
<path id="Vector_177" opacity="0.39" d="M58.1883 76.11C59.6611 72.4239 62.9588 69.1275 64.2715 69.9557C65.312 70.6052 63.6151 74.0153 62.1263 77.7176C60.8457 80.9004 59.0688 84.6352 57.9162 84.4566C56.5715 84.2455 56.5555 80.2021 58.1883 76.11Z" fill="#5F524B"/>
<path id="Vector_178" opacity="0.41" d="M58.2042 76.1103C59.6609 72.4729 62.9106 69.2089 64.2073 70.0209C65.2158 70.6542 63.5509 74.0155 62.0782 77.6854C60.8135 80.8519 59.0686 84.538 57.916 84.3594C56.6033 84.1645 56.6033 80.1374 58.2042 76.1103Z" fill="#63554E"/>
<path id="Vector_179" opacity="0.42" d="M58.2204 76.1261C59.6611 72.5212 62.8468 69.306 64.1274 70.1017C65.1199 70.7187 63.4871 74.0314 62.0143 77.6688C60.7497 80.8028 59.0368 84.4564 57.9162 84.2778C56.6195 84.083 56.6355 80.1045 58.2204 76.1261Z" fill="#665850"/>
<path id="Vector_180" opacity="0.44" d="M58.2362 76.1266C59.645 72.5704 62.7986 69.3715 64.0633 70.1509C65.0398 70.768 63.4229 74.0156 61.9662 77.6206C60.7175 80.7221 59.0367 84.3433 57.9321 84.1647C56.6514 83.9698 56.6834 80.0401 58.2523 76.1104L58.2362 76.1266Z" fill="#6A5B53"/>
<path id="Vector_181" opacity="0.45" d="M58.253 76.1265C59.6457 72.6028 62.7513 69.4525 63.984 70.2157C64.9445 70.8166 63.3436 74.0155 61.9029 77.6042C60.6702 80.6733 59.0054 84.262 57.9168 84.0833C56.6522 83.8885 56.7002 79.9913 58.253 76.1265Z" fill="#6D5E56"/>
<path id="Vector_182" opacity="0.46" d="M58.2682 76.1428C59.6449 72.6678 62.7024 69.5337 63.9191 70.297C64.8636 70.8815 63.2948 74.0318 61.854 77.588C60.6214 80.6408 59.0045 84.1808 57.932 84.0184C56.6993 83.8236 56.7474 79.9751 58.2682 76.159V76.1428Z" fill="#706158"/>
<path id="Vector_183" opacity="0.48" d="M58.2869 76.1427C59.6476 72.7001 62.6572 69.6148 63.8418 70.3618C64.7703 70.9301 63.2175 74.0317 61.7928 77.5554C60.5761 80.5757 58.9753 84.0833 57.9348 83.9209C56.7181 83.7422 56.7982 79.9262 58.2869 76.1427Z" fill="#74645B"/>
<path id="Vector_184" opacity="0.49" d="M58.3039 76.1591C59.6486 72.7652 62.6102 69.7124 63.7628 70.4269C64.6752 70.9952 63.1384 74.0318 61.7297 77.5393C60.5291 80.5272 58.9603 83.986 57.9197 83.8398C56.7191 83.6612 56.8152 79.8939 58.2879 76.1591H58.3039Z" fill="#77675E"/>
<path id="Vector_185" opacity="0.51" d="M58.3203 76.159C59.649 72.7977 62.5625 69.7773 63.699 70.4918C64.5795 71.0439 63.0907 74.0318 61.682 77.5068C60.4814 80.4622 58.9446 83.8885 57.9361 83.7423C56.7515 83.5637 56.8635 79.8289 58.3203 76.159Z" fill="#7B6A60"/>
<path id="Vector_186" opacity="0.52" d="M58.3293 76.159C59.6419 72.8463 62.4914 69.8585 63.612 70.5567C64.4764 71.0926 63.0037 74.0317 61.611 77.4743C60.4264 80.4134 58.9056 83.791 57.9291 83.6449C56.7605 83.4663 56.8885 79.7801 58.3293 76.159Z" fill="#7E6D63"/>
<path id="Vector_187" opacity="0.54" d="M58.3474 76.1751C59.6441 72.9112 62.4455 69.9396 63.5501 70.6216C64.3986 71.1575 62.9578 74.0317 61.5651 77.458C60.3965 80.3646 58.9077 83.7098 57.9312 83.5636C56.7946 83.385 56.9227 79.7476 58.3474 76.1751Z" fill="#827066"/>
<path id="Vector_188" opacity="0.55" d="M58.3644 76.1751C59.6451 72.9436 62.3985 70.0207 63.4711 70.6865C64.3035 71.2061 62.8787 74.0316 61.502 77.4254C60.3334 80.2996 58.8767 83.6123 57.9322 83.4661C56.8116 83.2875 56.9557 79.6826 58.3644 76.1751Z" fill="#857368"/>
<path id="Vector_189" opacity="0.56" d="M58.3968 76.1915C59.6615 73.0087 62.3669 70.1183 63.4234 70.7678C64.2398 71.2712 62.8311 74.048 61.4704 77.4094C60.3178 80.2511 58.8931 83.5312 57.9646 83.3851C56.86 83.2227 57.0361 79.6503 58.3968 76.1752V76.1915Z" fill="#88766B"/>
<path id="Vector_190" opacity="0.58" d="M58.4105 76.1912C59.6592 73.041 62.3166 70.183 63.3411 70.8326C64.1415 71.3197 62.7648 74.0478 61.4041 77.3929C60.2675 80.2184 58.8588 83.4498 57.9463 83.3037C56.8577 83.1413 57.0498 79.6175 58.3945 76.1912H58.4105Z" fill="#8C796E"/>
<path id="Vector_191" opacity="0.59" d="M58.4236 76.1914C59.6563 73.0898 62.2656 70.2643 63.2741 70.8814C64.0585 71.3686 62.6978 74.0317 61.3531 77.3443C60.2165 80.1373 58.8558 83.3363 57.9594 83.2064C56.8868 83.044 57.0949 79.569 58.4236 76.1914Z" fill="#8F7C70"/>
<path id="Vector_192" opacity="0.61" d="M58.4422 76.2075C59.6428 73.1384 62.2201 70.3454 63.1966 70.9624C63.949 71.4334 62.6203 74.0477 61.2917 77.3279C60.1711 80.0884 58.8264 83.2549 57.9619 83.125C56.9214 82.9626 57.1295 79.5201 58.4422 76.2075Z" fill="#937F73"/>
<path id="Vector_193" opacity="0.62" d="M58.4637 76.2075C59.6483 73.1872 62.1616 70.4267 63.1381 71.0275C63.8745 71.4822 62.5778 74.0641 61.2491 77.3118C60.1445 80.0398 58.8319 83.1738 57.9674 83.0439C56.9429 82.8815 57.167 79.4877 58.4637 76.2238V76.2075Z" fill="#968276"/>
<path id="Vector_194" opacity="0.63" d="M58.4726 76.2077C59.6412 73.2198 62.1065 70.508 63.051 71.0926C63.7714 71.5472 62.4907 74.0642 61.178 77.2794C60.0734 79.9912 58.7928 83.0765 57.9604 82.9466C56.9518 82.8005 57.208 79.4391 58.4726 76.2239V76.2077Z" fill="#998478"/>
<path id="Vector_195" opacity="0.65" d="M58.4902 76.2239C59.6428 73.2848 62.06 70.5892 62.9885 71.1575C63.6928 71.596 62.4282 74.0642 61.1315 77.2469C60.043 79.9263 58.7943 82.9791 57.9779 82.8492C56.9854 82.703 57.2575 79.3742 58.5062 76.2239H58.4902Z" fill="#9D877B"/>
<path id="Vector_196" opacity="0.66" d="M58.5096 76.2237C59.6462 73.317 62.0154 70.6702 62.9118 71.2223C63.6002 71.6445 62.3676 74.064 61.0709 77.2305C59.9983 79.8774 58.7657 82.8815 57.9653 82.7678C57.0048 82.6216 57.2769 79.3415 58.5096 76.2237Z" fill="#A08A7E"/>
<path id="Vector_197" opacity="0.68" d="M58.5249 76.2402C59.6455 73.3823 61.9667 70.7516 62.8311 71.3037C63.5035 71.7097 62.2869 74.0805 61.0062 77.2145C59.9336 79.8289 58.733 82.8005 57.9646 82.6869C57.0201 82.5407 57.3083 79.3093 58.5089 76.2402H58.5249Z" fill="#A48D80"/>
<path id="Vector_198" opacity="0.69" d="M58.5389 76.2399C59.6435 73.4307 61.9167 70.8325 62.7651 71.3521C63.4215 71.7581 62.2208 74.064 60.9562 77.1655C59.8996 79.7636 58.731 82.6866 57.9786 82.5729C57.0502 82.4267 57.3543 79.244 58.5389 76.2237V76.2399Z" fill="#A79083"/>
<path id="Vector_199" opacity="0.7" d="M58.5533 76.2403C59.6419 73.4635 61.867 70.9141 62.6834 71.4175C63.3078 71.8072 62.1552 74.0643 60.8905 77.1334C59.85 79.699 58.6974 82.5895 57.961 82.4758C57.0485 82.3459 57.3847 79.1794 58.5373 76.224L58.5533 76.2403Z" fill="#AA9386"/>
<path id="Vector_200" opacity="0.72" d="M58.5716 76.2562C59.6442 73.5282 61.8053 70.995 62.6217 71.4984C63.23 71.8719 62.0935 74.0803 60.8448 77.1331C59.8043 79.6663 58.6997 82.5243 57.9793 82.4106C57.0829 82.2807 57.4351 79.1629 58.5716 76.2562Z" fill="#AE9688"/>
<path id="Vector_201" opacity="0.73" d="M58.5874 76.2564C59.644 73.5608 61.7571 71.0763 62.5415 71.5635C63.1338 71.9369 62.0292 74.0804 60.7806 77.1008C59.756 79.6015 58.6675 82.427 57.9791 82.3295C57.1147 82.1996 57.4669 79.1306 58.5874 76.2726V76.2564Z" fill="#B1998B"/>
<path id="Vector_202" opacity="0.75" d="M58.6061 76.2726C59.6467 73.6257 61.7117 71.1575 62.4801 71.6284C63.0564 71.9857 61.9679 74.0804 60.7352 77.0683C59.7267 79.5527 58.6702 82.3295 57.9978 82.2321C57.1494 82.1022 57.5176 79.0656 58.6221 76.2564L58.6061 76.2726Z" fill="#B59C8E"/>
<path id="Vector_203" opacity="0.76" d="M58.6219 76.2725C59.6464 73.6581 61.6634 71.2386 62.3998 71.6933C62.9601 72.0343 61.8876 74.0803 60.6709 77.052C59.6624 79.504 58.6379 82.2483 57.9815 82.1508C57.1491 82.0209 57.5333 79.033 58.6219 76.2725Z" fill="#B89F91"/>
<path id="Vector_204" opacity="0.77" d="M58.6378 76.2729C59.6303 73.7072 61.6153 71.3202 62.3357 71.7586C62.88 72.0996 61.8395 74.0807 60.6228 77.0199C59.6303 79.4394 58.6378 82.1512 57.9975 82.0538C57.1811 81.9401 57.5813 78.9847 58.6378 76.2729Z" fill="#BBA293"/>
<path id="Vector_205" opacity="0.79" d="M58.6542 76.2891C59.6307 73.756 61.5677 71.4014 62.256 71.8398C62.7843 72.1646 61.7598 74.097 60.5592 77.0036C59.5667 79.3907 58.6062 82.07 57.9978 81.9726C57.2134 81.8589 57.6297 78.9522 58.6542 76.2891Z" fill="#BFA596"/>
<path id="Vector_206" opacity="0.8" d="M58.6702 76.2888C59.6307 73.8044 61.5036 71.4823 62.192 71.8882C62.6883 72.1968 61.6957 74.0804 60.5111 76.9708C59.5346 79.3417 58.6062 81.9723 57.9978 81.8748C57.2294 81.7612 57.6617 78.887 58.6702 76.2888Z" fill="#C2A899"/>
<path id="Vector_207" opacity="0.82" d="M58.6864 76.3055C59.6309 73.8535 61.4559 71.5639 62.1122 71.9698C62.5924 72.2621 61.6319 74.0971 60.4473 76.955C59.4868 79.2934 58.5744 81.8915 57.9981 81.7941C57.2457 81.6804 57.6939 78.8549 58.6864 76.3055Z" fill="#C6AB9B"/>
<path id="Vector_208" opacity="0.83" d="M58.7146 76.305C59.6431 73.9017 61.42 71.6446 62.0443 72.0343C62.5085 72.3266 61.5641 74.0966 60.3955 76.9221C59.435 79.2279 58.5705 81.7936 58.0102 81.6962C57.2738 81.5825 57.7381 78.8057 58.7146 76.305Z" fill="#C9AE9E"/>
<path id="Vector_209" opacity="0.85" d="M58.7313 76.3053C59.6437 73.9508 61.3726 71.7261 61.981 72.0996C62.4292 72.3756 61.5007 74.0969 60.3481 76.9062C59.4036 79.1795 58.5552 81.6965 58.0109 81.6153C57.2905 81.5016 57.7708 78.7736 58.7313 76.3053Z" fill="#CDB1A1"/>
<path id="Vector_210" opacity="0.86" d="M58.7533 76.3214C59.6498 73.9993 61.3306 71.8072 61.9069 72.1644C62.3391 72.4242 61.4427 74.0968 60.2901 76.8735C59.3616 79.1307 58.5292 81.5989 58.0169 81.534C57.3286 81.4365 57.8248 78.7247 58.7533 76.3214Z" fill="#D0B4A3"/>
<path id="Vector_211" opacity="0.87" d="M58.7663 76.3214C59.6468 74.048 61.2796 71.8883 61.8399 72.2293C62.2561 72.4891 61.3757 74.0967 60.2391 76.841C59.3106 79.0656 58.5262 81.5014 58.0299 81.4365C57.3576 81.339 57.8698 78.6759 58.7823 76.3214H58.7663Z" fill="#D3B7A6"/>
<path id="Vector_212" opacity="0.89" d="M58.7808 76.3377C59.6453 74.0968 61.2301 71.9696 61.7584 72.3106C62.1586 72.5541 61.2941 74.113 60.1735 76.8411C59.2611 79.0333 58.4927 81.4366 58.0124 81.3716C57.3561 81.2742 57.8844 78.6598 58.7648 76.3539L58.7808 76.3377Z" fill="#D7B9A9"/>
<path id="Vector_213" opacity="0.9" d="M58.8021 76.3374C59.6506 74.1452 61.1714 72.0504 61.6996 72.359C62.0678 72.5863 61.2514 74.0965 60.1308 76.792C59.2344 78.9518 58.498 81.3226 58.0337 81.2576C57.3934 81.1602 57.9377 78.5783 58.8021 76.3374Z" fill="#DABCAB"/>
<path id="Vector_214" opacity="0.92" d="M58.8132 76.3373C59.6456 74.1776 61.1184 72.1316 61.6146 72.4238C61.9668 72.6349 61.1664 74.1126 60.0618 76.7595C59.1653 78.903 58.461 81.2251 58.0288 81.1601C57.4204 81.0627 57.9647 78.5295 58.8132 76.3373Z" fill="#DEBFAE"/>
<path id="Vector_215" opacity="0.93" d="M58.8276 76.3539C59.6441 74.2429 61.0688 72.2131 61.5491 72.5054C61.8852 72.7165 61.1168 74.1292 60.0123 76.7598C59.1318 78.8708 58.4595 81.1604 58.0272 81.0955C57.4349 81.0143 57.9952 78.5136 58.8276 76.3539Z" fill="#E1C2B1"/>
<path id="Vector_216" opacity="0.94" d="M58.8463 76.3539C59.6467 74.2754 61.0235 72.2943 61.4717 72.5704C61.7919 72.7653 61.0395 74.1293 59.9509 76.7274C59.0865 78.8059 58.4301 81.0631 58.0299 80.9981C57.4536 80.9169 58.0299 78.4649 58.8463 76.3539Z" fill="#E4C5B3"/>
<path id="Vector_217" opacity="0.96" d="M58.8623 76.3701C59.6307 74.3403 60.9754 72.3755 61.4077 72.6353C61.7118 72.8139 60.9754 74.1292 59.9029 76.6949C59.0384 78.7409 58.4301 80.9656 58.0459 80.9006C57.4856 80.8194 58.0939 78.3999 58.8784 76.3539L58.8623 76.3701Z" fill="#E8C8B6"/>
<path id="Vector_218" opacity="0.97" d="M58.8743 76.3698C59.6267 74.3725 60.9234 72.4564 61.3236 72.6999C61.6118 72.8786 60.9074 74.1289 59.8348 76.6621C58.9864 78.6919 58.3941 80.8679 58.0259 80.8029C57.4816 80.7217 58.1059 78.3509 58.8743 76.3536V76.3698Z" fill="#EBCBB9"/>
<path id="Vector_219" opacity="0.99" d="M58.8875 76.3702C59.6239 74.4216 60.8726 72.5379 61.2408 72.7653C61.5129 72.9277 60.8245 74.1293 59.768 76.6463C58.9356 78.6436 58.3753 80.7871 58.0231 80.7383C57.5108 80.6571 58.1351 78.3351 58.8715 76.3864L58.8875 76.3702Z" fill="#EFCEBB"/>
<path id="Vector_220" d="M58.9073 76.3865C59.6276 74.4703 60.8122 72.6192 61.1804 72.8465C61.4206 72.9927 60.7642 74.1456 59.7237 76.6301C58.8913 78.5949 58.363 80.7059 58.0428 80.6572C57.5466 80.5922 58.1869 78.2864 58.9073 76.4027V76.3865Z" fill="#F2D1BE"/>
</g>
<g id="Group_9" style="mix-blend-mode:screen">
<path id="Vector_221" opacity="0.01" d="M95.5697 4.09283C100.004 6.67474 103.494 11.871 102.053 13.641C100.916 15.0538 96.4982 12.0659 92.3841 9.69509C88.7342 7.60033 84.412 4.4176 84.8922 2.74505C85.4205 0.910105 90.5271 1.15368 95.5697 4.0766V4.09283Z" fill="#030303"/>
<path id="Vector_222" opacity="0.03" d="M95.5522 4.10941C99.9545 6.65884 103.412 11.8064 101.988 13.5602C100.867 14.9567 96.4967 12.0013 92.3985 9.64671C88.7647 7.5682 84.4905 4.41794 84.9707 2.76162C85.499 0.942922 90.5576 1.20274 95.5522 4.09317V4.10941Z" fill="#070605"/>
<path id="Vector_223" opacity="0.04" d="M95.5556 4.12587C99.9098 6.65906 103.352 11.7417 101.943 13.4792C100.838 14.8595 96.5161 11.9365 92.45 9.59821C88.8481 7.53593 84.6059 4.41816 85.0702 2.77808C85.5824 0.975614 90.609 1.25167 95.5556 4.12587Z" fill="#0A0908"/>
<path id="Vector_224" opacity="0.06" d="M95.5382 4.1417C99.8604 6.64241 103.27 11.6926 101.877 13.3976C100.773 14.7616 96.5147 11.8549 92.4646 9.54909C88.8947 7.50305 84.6686 4.41775 85.1328 2.79391C85.6451 1.02392 90.6236 1.29997 95.5222 4.1417H95.5382Z" fill="#0E0C0B"/>
<path id="Vector_225" opacity="0.07" d="M95.5398 4.1581C99.83 6.64258 103.208 11.6278 101.831 13.3166C100.742 14.6644 96.5323 11.7902 92.5142 9.4843C88.9604 7.4545 84.7822 4.40168 85.2464 2.81032C85.7587 1.05657 90.6893 1.33262 95.5398 4.1581Z" fill="#110F0D"/>
<path id="Vector_226" opacity="0.08" d="M95.5198 4.17434C99.762 6.64258 103.124 11.5628 101.779 13.2354C100.706 14.5669 96.5443 11.7252 92.5422 9.43558C89.0204 7.40578 84.8743 4.40167 85.3225 2.82655C85.8187 1.08904 90.7173 1.38133 95.5198 4.17434Z" fill="#141210"/>
<path id="Vector_227" opacity="0.1" d="M95.5213 4.19037C99.7315 6.62613 103.061 11.5139 101.733 13.154C100.676 14.4693 96.5459 11.66 92.5918 9.38666C89.086 7.3731 84.9879 4.40147 85.4361 2.84258C85.9324 1.12131 90.7829 1.42984 95.5374 4.19037H95.5213Z" fill="#181513"/>
<path id="Vector_228" opacity="0.11" d="M95.5078 4.20669C99.686 6.62622 102.984 11.449 101.671 13.0729C100.63 14.3557 96.5484 11.5952 92.6103 9.33803C89.1365 7.34071 85.0544 4.38531 85.5027 2.8589C85.9989 1.15387 90.8014 1.47864 95.5078 4.20669Z" fill="#1B1815"/>
<path id="Vector_229" opacity="0.13" d="M95.5035 4.2227C99.6336 6.60974 102.915 11.3838 101.619 12.9914C100.594 14.258 96.56 11.53 92.654 9.27284C89.2122 7.29176 85.1621 4.36884 85.5944 2.85867C86.0746 1.16988 90.8451 1.51088 95.5195 4.20646L95.5035 4.2227Z" fill="#1F1A18"/>
<path id="Vector_230" opacity="0.14" d="M95.4898 4.2395C99.5879 6.61031 102.838 11.3195 101.557 12.9108C100.548 14.1612 96.5624 11.4656 92.6724 9.2247C89.2466 7.25985 85.2445 4.36941 85.6767 2.87548C86.157 1.21916 90.8794 1.54393 95.5058 4.22326L95.4898 4.2395Z" fill="#221D1B"/>
<path id="Vector_231" opacity="0.15" d="M95.4915 4.25519C99.5416 6.60976 102.775 11.2702 101.511 12.8291C100.502 14.0632 96.5801 11.4001 92.7221 9.17543C89.3283 7.22682 85.3423 4.36886 85.7745 2.9074C86.2548 1.26732 90.9292 1.60833 95.5075 4.25519H95.4915Z" fill="#25201D"/>
<path id="Vector_232" opacity="0.17" d="M95.4681 4.27167C99.4861 6.59376 102.688 11.2055 101.439 12.7481C100.447 13.966 96.5726 11.3191 92.7306 9.11072C89.3689 7.17835 85.4149 4.35286 85.8311 2.90764C86.2953 1.2838 90.9377 1.64105 95.4681 4.25543V4.27167Z" fill="#292320"/>
<path id="Vector_233" opacity="0.18" d="M95.4579 4.28759C99.444 6.59344 102.614 11.1402 101.381 12.6666C100.404 13.8682 96.5785 11.2539 92.7685 9.06168C89.4228 7.14555 85.5168 4.35254 85.933 2.92356C86.3972 1.31596 90.9916 1.68944 95.4739 4.27135L95.4579 4.28759Z" fill="#2C2623"/>
<path id="Vector_234" opacity="0.2" d="M95.4579 4.30429C99.3959 6.57766 102.55 11.0919 101.333 12.5859C100.372 13.7713 96.5785 11.1894 92.8005 9.01343C89.4868 7.11353 85.6128 4.353 86.013 2.94026C86.4772 1.3489 91.0236 1.73862 95.4579 4.28805V4.30429Z" fill="#302925"/>
<path id="Vector_235" opacity="0.21" d="M95.4401 4.32026C99.3461 6.5774 102.468 11.0267 101.267 12.5044C100.323 13.6736 96.5767 11.1242 92.8307 8.96444C89.549 7.06455 85.691 4.35273 86.0912 2.95623C86.5395 1.39734 91.0538 1.77083 95.4401 4.32026Z" fill="#332C28"/>
<path id="Vector_236" opacity="0.23" d="M95.4459 4.3368C99.3039 6.5777 102.41 10.9621 101.225 12.4398C100.296 13.5927 96.5985 11.0757 92.8686 8.91603C89.6029 7.03237 85.7929 4.35303 86.1931 2.97277C86.6414 1.43012 91.1077 1.81984 95.4459 4.3368Z" fill="#372F2B"/>
<path id="Vector_237" opacity="0.24" d="M95.4299 4.35278C99.2559 6.5612 102.329 10.8969 101.161 12.3583C100.248 13.495 96.5985 11.0105 92.9006 8.86706C89.6669 6.99964 85.889 4.35278 86.2732 3.00499C86.7054 1.47858 91.1397 1.88454 95.4299 4.36902V4.35278Z" fill="#3A322D"/>
<path id="Vector_238" opacity="0.25" d="M95.426 4.36919C99.22 6.56138 102.262 10.8483 101.109 12.2773C100.197 13.3977 96.6106 10.9457 92.9287 8.81852C89.7271 6.96734 85.9651 4.35295 86.3653 3.0214C86.7976 1.51123 91.1838 1.93343 95.426 4.38543V4.36919Z" fill="#3D3530"/>
<path id="Vector_239" opacity="0.27" d="M95.4101 4.38542C99.156 6.54513 102.182 10.7834 101.045 12.1961C100.149 13.3003 96.6107 10.8808 92.9608 8.76979C89.7752 6.93485 86.0613 4.35294 86.4455 3.03763C86.8777 1.5437 91.2159 1.98213 95.4101 4.40166V4.38542Z" fill="#413833"/>
<path id="Vector_240" opacity="0.28" d="M95.4062 4.40161C99.1202 6.54508 102.114 10.7184 100.993 12.1149C100.113 13.2028 96.6229 10.7995 92.989 8.70479C89.8354 6.88609 86.1535 4.33665 86.5216 3.03758C86.9379 1.55988 91.2441 1.99832 95.3902 4.40161H95.4062Z" fill="#443B36"/>
<path id="Vector_241" opacity="0.3" d="M95.3961 4.41777C99.078 6.54501 102.039 10.6696 100.935 12.0336C100.07 13.1053 96.6287 10.7345 93.0268 8.656C89.8892 6.85354 86.2553 4.33658 86.6235 3.05375C87.0397 1.60853 91.2979 2.04697 95.4121 4.41777H95.3961Z" fill="#483E38"/>
<path id="Vector_242" opacity="0.31" d="M95.3982 4.43403C99.032 6.52878 101.978 10.6046 100.889 11.9524C100.041 13.0079 96.6308 10.6696 93.0609 8.6073C89.9553 6.82107 86.3375 4.3366 86.7057 3.07C87.1219 1.64102 91.3321 2.09569 95.3982 4.43403Z" fill="#4B413B"/>
<path id="Vector_243" opacity="0.32" d="M95.3783 4.45047C98.9802 6.52898 101.894 10.5399 100.821 11.8714C99.9887 12.9107 96.6269 10.6048 93.0891 8.55879C90.0155 6.77256 86.4297 4.3368 86.7818 3.08644C87.1821 1.6737 91.3602 2.14461 95.3783 4.45047Z" fill="#4E443E"/>
<path id="Vector_244" opacity="0.34" d="M95.3763 4.46649C98.9301 6.51253 101.828 10.4747 100.771 11.79C99.9547 12.813 96.6409 10.5397 93.1191 8.49362C90.0615 6.72363 86.5237 4.32034 86.8759 3.10246C87.2761 1.70596 91.4062 2.19311 95.3763 4.46649Z" fill="#524740"/>
<path id="Vector_245" opacity="0.35" d="M95.3643 4.48268C98.8861 6.51248 101.752 10.4259 100.711 11.7088C99.8946 12.7156 96.6449 10.4747 93.1551 8.44485C90.1296 6.6911 86.6238 4.32029 86.9599 3.11865C87.3601 1.73838 91.4423 2.22554 95.3643 4.48268Z" fill="#554A43"/>
<path id="Vector_246" opacity="0.37" d="M95.3642 4.49912C98.854 6.51269 101.687 10.3612 100.663 11.6278C99.8625 12.6183 96.6609 10.4099 93.1871 8.39634C90.1935 6.65883 86.7037 4.3205 87.0559 3.1351C87.4401 1.78731 91.4902 2.27446 95.3642 4.51536V4.49912Z" fill="#594D46"/>
<path id="Vector_247" opacity="0.38" d="M95.3484 4.51546C98.7901 6.49654 101.608 10.2963 100.599 11.5467C99.8147 12.521 96.661 10.345 93.2193 8.34772C90.2417 6.62645 86.7999 4.3206 87.1361 3.15143C87.5203 1.81988 91.5384 2.32327 95.3484 4.5317V4.51546Z" fill="#5C4F48"/>
<path id="Vector_248" opacity="0.39" d="M95.3446 4.53175C98.7543 6.4966 101.54 10.2477 100.547 11.4656C99.7789 12.4236 96.6733 10.2639 93.2475 8.28282C90.302 6.57779 86.8922 4.30441 87.2124 3.15149C87.5966 1.83617 91.5666 2.3558 95.3286 4.53175H95.3446Z" fill="#5F524B"/>
<path id="Vector_249" opacity="0.41" d="M95.3284 4.54739C98.7062 6.47976 101.46 10.1821 100.483 11.3838C99.7307 12.3256 96.6731 10.1984 93.2794 8.23351C90.3659 6.54471 86.9721 4.30381 87.3083 3.16712C87.6765 1.86805 91.6145 2.40392 95.3284 4.54739Z" fill="#63554E"/>
<path id="Vector_250" opacity="0.42" d="M95.3169 4.5641C98.6466 6.48023 101.384 10.1176 100.424 11.303C99.6872 12.2286 96.6616 10.1339 93.2999 8.18526C90.4024 6.51271 87.0566 4.30428 87.3768 3.20007C87.745 1.91723 91.635 2.4531 95.3009 4.58033L95.3169 4.5641Z" fill="#665850"/>
<path id="Vector_251" opacity="0.44" d="M95.3128 4.58022C98.6105 6.48012 101.316 10.0526 100.371 11.2217C99.651 12.1311 96.6735 10.0688 93.3438 8.13643C90.4783 6.48012 87.1646 4.30417 87.4687 3.21619C87.8369 1.9496 91.6789 2.5017 95.2968 4.59646L95.3128 4.58022Z" fill="#6A5B53"/>
<path id="Vector_252" opacity="0.45" d="M95.2989 4.5962C98.5486 6.46362 101.238 10.0036 100.31 11.1403C99.5891 12.0334 96.6756 10.0036 93.3619 8.07122C90.5285 6.4149 87.2468 4.28767 87.5509 3.21594C87.9031 1.98182 91.7131 2.53392 95.2989 4.5962Z" fill="#6D5E56"/>
<path id="Vector_253" opacity="0.46" d="M95.2968 4.6125C98.5145 6.46368 101.172 9.9387 100.259 11.0591C99.555 11.936 96.6895 9.9387 93.4078 8.02257C90.5904 6.38249 87.3407 4.28773 87.6448 3.23223C87.997 2.01435 91.759 2.5827 95.2968 4.6125Z" fill="#706158"/>
<path id="Vector_254" opacity="0.48" d="M95.2826 4.62913C98.4682 6.44783 101.094 9.87414 100.213 10.9784C99.5248 11.8228 96.7073 9.87414 93.4416 7.97425C90.6562 6.3504 87.4385 4.28813 87.7427 3.24887C88.0949 2.04722 91.8088 2.63181 95.2986 4.62913H95.2826Z" fill="#74645B"/>
<path id="Vector_255" opacity="0.49" d="M95.2864 4.64526C98.424 6.44772 101.033 9.82531 100.169 10.897C99.4966 11.7252 96.7271 9.80907 93.4934 7.90918C90.724 6.30157 87.5544 4.27177 87.8425 3.24875C88.1787 2.06335 91.8606 2.66417 95.3024 4.62902L95.2864 4.64526Z" fill="#77675E"/>
<path id="Vector_256" opacity="0.51" d="M95.2671 4.66146C98.3727 6.44769 100.95 9.76033 100.102 10.8158C99.4452 11.6277 96.7238 9.72785 93.5062 7.86043C90.7687 6.26907 87.6311 4.27174 87.9033 3.2812C88.2394 2.11203 91.8733 2.71285 95.2671 4.66146Z" fill="#7B6A60"/>
<path id="Vector_257" opacity="0.52" d="M95.2664 4.6776C98.324 6.43135 100.885 9.69527 100.053 10.7345C99.4126 11.5302 96.7392 9.66279 93.5535 7.81161C90.8481 6.23649 87.7265 4.27164 88.0147 3.29733C88.3348 2.16064 91.9367 2.76147 95.2824 4.6776H95.2664Z" fill="#7E6D63"/>
<path id="Vector_258" opacity="0.54" d="M95.2472 4.69395C98.2727 6.43146 100.786 9.63043 99.9856 10.6535C99.3613 11.4329 96.7199 9.59796 93.5663 7.76302C90.8769 6.20413 87.8033 4.27176 88.0755 3.31369C88.3956 2.19324 91.9495 2.8103 95.2472 4.71019V4.69395Z" fill="#827066"/>
<path id="Vector_259" opacity="0.55" d="M95.2471 4.70997C98.2406 6.415 100.722 9.58149 99.9375 10.572C99.3132 11.3352 96.7358 9.53277 93.6142 7.69783C90.9568 6.15518 87.9153 4.25529 88.1714 3.31346C88.4916 2.20925 91.9974 2.84255 95.2471 4.70997Z" fill="#857368"/>
<path id="Vector_260" opacity="0.56" d="M95.2389 4.72645C98.1844 6.41525 100.65 9.51679 99.8813 10.4911C99.273 11.2381 96.7437 9.46807 93.6381 7.64937C91.0127 6.10672 87.9872 4.25554 88.2593 3.32995C88.5635 2.24198 92.0373 2.89151 95.2389 4.72645Z" fill="#88766B"/>
<path id="Vector_261" opacity="0.58" d="M95.2349 4.74242C98.1485 6.39874 100.582 9.45156 99.8293 10.4096C99.237 11.1404 96.7557 9.40285 93.6821 7.60038C91.0728 6.07397 88.0953 4.25527 88.3514 3.34592C88.6555 2.27419 92.0813 2.92372 95.2349 4.74242Z" fill="#8C796E"/>
<path id="Vector_262" opacity="0.59" d="M95.2172 4.75884C98.0987 6.39892 100.5 9.40303 99.7635 10.3286C99.1872 11.0431 96.754 9.33808 93.6964 7.55185C91.1191 6.04168 88.1735 4.25545 88.4297 3.36234C88.7338 2.30684 92.1116 2.97262 95.2172 4.75884Z" fill="#8F7C70"/>
<path id="Vector_263" opacity="0.61" d="M95.2171 4.77513C98.0506 6.39897 100.436 9.33813 99.7154 10.2475C99.1551 10.9457 96.7699 9.27317 93.7443 7.48695C91.199 5.99301 88.2855 4.23926 88.5256 3.37863C88.8138 2.35561 92.1595 3.02138 95.2331 4.77513H95.2171Z" fill="#937F73"/>
<path id="Vector_264" opacity="0.62" d="M95.2036 4.79119C98.0051 6.38255 100.358 9.27299 99.6539 10.1661C99.1096 10.8481 96.7724 9.1918 93.7629 7.43805C91.2335 5.96035 88.3521 4.22284 88.5922 3.39468C88.8803 2.3879 92.178 3.06992 95.2036 4.79119Z" fill="#968276"/>
<path id="Vector_265" opacity="0.63" d="M95.205 4.80774C97.9584 6.38287 100.296 9.20835 99.6073 10.0852C99.079 10.751 96.7898 9.12716 93.8123 7.38965C91.315 5.92819 88.4655 4.22316 88.7056 3.41124C88.9938 2.4207 92.2434 3.11895 95.221 4.80774H95.205Z" fill="#998478"/>
<path id="Vector_266" opacity="0.65" d="M95.1858 4.82376C97.9072 6.36641 100.212 9.15942 99.54 10.0038C99.0118 10.6534 96.7706 9.06199 93.8251 7.34072C91.3598 5.8955 88.5424 4.22294 88.7665 3.42726C89.0386 2.45296 92.2563 3.15121 95.1858 4.82376Z" fill="#9D877B"/>
<path id="Vector_267" opacity="0.66" d="M95.168 4.84004C97.8574 6.36645 100.131 9.09451 99.4742 9.92266C98.962 10.556 96.7688 8.99707 93.8553 7.2758C91.4061 5.84682 88.6206 4.20674 88.8447 3.4273C89.1169 2.46923 92.2865 3.18372 95.168 4.8238V4.84004Z" fill="#A08A7E"/>
<path id="Vector_268" opacity="0.68" d="M95.1658 4.85612C97.8072 6.36629 100.064 9.02939 99.424 9.84131C98.9278 10.4584 96.7827 8.93196 93.8852 7.22693C91.4679 5.81419 88.7145 4.20658 88.9386 3.44338C89.2108 2.51779 92.3324 3.23228 95.1658 4.83988V4.85612Z" fill="#A48D80"/>
<path id="Vector_269" opacity="0.69" d="M95.1581 4.8725C97.7674 6.35019 99.9926 8.98082 99.3683 9.76026C98.888 10.3611 96.7909 8.86715 93.9255 7.17835C91.5242 5.76561 88.8188 4.20672 89.0269 3.476C89.2831 2.56665 92.3727 3.29737 95.1581 4.88874V4.8725Z" fill="#A79083"/>
<path id="Vector_270" opacity="0.7" d="M95.1559 4.88863C97.7333 6.35009 99.9264 8.91576 99.3181 9.67896C98.8538 10.2635 96.8048 8.80209 93.9553 7.12953C91.5861 5.73303 88.9127 4.20662 89.1208 3.49213C89.3769 2.59901 92.4185 3.34598 95.1559 4.90487V4.88863Z" fill="#AA9386"/>
<path id="Vector_271" opacity="0.72" d="M95.1381 4.90491C97.6674 6.33389 99.8445 8.85085 99.2522 9.59781C98.804 10.1662 96.8029 8.73718 93.9855 7.06462C91.6483 5.68436 88.9909 4.19042 89.199 3.49217C89.4551 2.6153 92.4487 3.36226 95.1381 4.90491Z" fill="#AE9688"/>
<path id="Vector_272" opacity="0.73" d="M95.1347 4.92129C97.632 6.33403 99.7771 8.78603 99.2008 9.51676C98.7685 10.0689 96.8155 8.65612 94.0141 7.01604C91.6929 5.65202 89.0835 4.19056 89.2756 3.50855C89.5158 2.64791 92.4773 3.41112 95.1187 4.92129H95.1347Z" fill="#B1998B"/>
<path id="Vector_273" opacity="0.75" d="M95.1243 4.93734C97.5735 6.33384 99.7027 8.73713 99.1424 9.43538C98.7101 9.97125 96.8212 8.59098 94.0517 6.96714C91.7625 5.61935 89.1852 4.19037 89.3773 3.5246C89.6174 2.6802 92.5309 3.45964 95.1243 4.93734Z" fill="#B59C8E"/>
<path id="Vector_274" opacity="0.76" d="M95.1248 4.95358C97.542 6.31761 99.6391 8.67218 99.0949 9.35419C98.6786 9.87382 96.8217 8.52603 94.0843 6.91843C91.8271 5.58688 89.2818 4.19037 89.4579 3.54084C89.682 2.72892 92.5635 3.50836 95.1088 4.95358H95.1248Z" fill="#B89F91"/>
<path id="Vector_275" opacity="0.77" d="M95.1031 4.96963C97.4883 6.31742 99.5534 8.60704 99.0251 9.27281C98.6249 9.7762 96.816 8.46089 94.1106 6.85329C91.8694 5.53798 89.3561 4.17395 89.5322 3.55689C89.7563 2.76121 92.5898 3.55689 95.1031 4.96963Z" fill="#BBA293"/>
<path id="Vector_276" opacity="0.79" d="M95.1048 4.98649C97.442 6.3018 99.4911 8.55894 98.9788 9.19224C98.5946 9.67939 96.8337 8.39656 94.1443 6.80519C91.9351 5.50612 89.4539 4.17457 89.63 3.57375C89.8541 2.7943 92.6395 3.58999 95.1048 4.98649Z" fill="#BFA596"/>
<path id="Vector_277" opacity="0.8" d="M95.0855 5.00259C97.3906 6.30166 99.4077 8.49385 98.9114 9.11091C98.5432 9.58182 96.8304 8.33146 94.173 6.75634C91.9959 5.45726 89.5466 4.17443 89.7067 3.58985C89.9148 2.82664 92.6682 3.63856 95.0855 5.00259Z" fill="#C2A899"/>
<path id="Vector_278" opacity="0.82" d="M95.0926 5.01876C97.3498 6.30159 99.3508 8.42882 98.8705 9.02964C98.5184 9.48432 96.8535 8.26644 94.2121 6.69131C92.051 5.40848 89.6338 4.15812 89.8099 3.58977C90.018 2.84281 92.7234 3.67097 95.0926 5.00252V5.01876Z" fill="#C6AB9B"/>
<path id="Vector_279" opacity="0.83" d="M95.0771 5.03481C97.3023 6.28517 99.2713 8.36369 98.8071 8.94827C98.4709 9.38671 96.854 8.20131 94.2447 6.64242C92.1156 5.37582 89.7304 4.15794 89.8905 3.60583C90.0986 2.89134 92.7559 3.7195 95.0771 5.01858V5.03481Z" fill="#C9AE9E"/>
<path id="Vector_280" opacity="0.85" d="M95.0739 5.05117C97.267 6.28529 99.204 8.3151 98.7558 8.8672C98.4196 9.27316 96.8668 8.12023 94.2735 6.59382C92.1764 5.34347 89.8232 4.15806 89.9672 3.62219C90.1593 2.92394 92.7847 3.76834 95.0579 5.03494L95.0739 5.05117Z" fill="#CDB1A1"/>
<path id="Vector_281" opacity="0.86" d="M95.0557 5.06726C97.2008 6.2689 99.1218 8.24999 98.6896 8.78586C98.3694 9.17558 96.8646 8.05513 94.3033 6.54496C92.2222 5.31084 89.917 4.15791 90.0611 3.63828C90.2532 2.95627 92.8305 3.80066 95.0557 5.06726Z" fill="#D0B4A3"/>
<path id="Vector_282" opacity="0.87" d="M95.0538 5.08361C97.1669 6.26901 99.0559 8.18515 98.6397 8.70477C98.3355 9.07826 96.8628 7.99028 94.3334 6.48011C92.2844 5.26223 89.9952 4.14178 90.1393 3.65463C90.3314 2.98885 92.8607 3.84949 95.0378 5.08361H95.0538Z" fill="#D3B7A6"/>
<path id="Vector_283" opacity="0.89" d="M95.0421 5.09981C97.1232 6.26897 98.9801 8.13639 98.5959 8.62354C98.3078 8.98079 96.8831 7.92529 94.3858 6.43136C92.3527 5.22971 90.1116 4.14174 90.2396 3.67083C90.4157 3.02129 92.913 3.89816 95.0421 5.09981Z" fill="#D7B9A9"/>
<path id="Vector_284" opacity="0.9" d="M95.0282 5.11623C97.0612 6.25292 98.9022 8.07162 98.534 8.54253C98.2618 8.88354 96.8851 7.86052 94.4038 6.38282C92.4028 5.19742 90.1937 4.14192 90.3217 3.68725C90.4978 3.05395 92.9471 3.94706 95.0282 5.11623Z" fill="#DABCAB"/>
<path id="Vector_285" opacity="0.92" d="M95.0259 5.13243C97.0269 6.25288 98.8359 8.00662 98.4837 8.4613C98.2276 8.78607 96.8989 7.79553 94.4496 6.33407C92.4806 5.1649 90.2874 4.14188 90.4155 3.70344C90.5916 3.10262 92.9928 3.99574 95.0259 5.13243Z" fill="#DEBFAE"/>
<path id="Vector_286" opacity="0.93" d="M95.015 5.14873C96.968 6.23671 98.761 7.94174 98.4248 8.38018C98.1847 8.68871 96.904 7.73064 94.4707 6.26918C92.5177 5.10002 90.3726 4.12571 90.4847 3.70351C90.6448 3.11893 93.014 4.01204 95.015 5.13249V5.14873Z" fill="#E1C2B1"/>
<path id="Vector_287" opacity="0.94" d="M95.0085 5.16475C96.9295 6.23648 98.6904 7.8928 98.3702 8.29876C98.1301 8.59105 96.9135 7.66546 94.5122 6.22024C92.5912 5.06731 90.4782 4.12549 90.5902 3.71953C90.7503 3.15118 93.0715 4.06053 95.0245 5.14851L95.0085 5.16475Z" fill="#E4C5B3"/>
<path id="Vector_288" opacity="0.96" d="M94.9938 5.18112C96.8828 6.23662 98.6117 7.82798 98.3075 8.21771C98.0834 8.49376 96.9148 7.58441 94.5295 6.17167C92.6406 5.03498 90.5595 4.12563 90.6555 3.75214C90.8156 3.20004 93.0888 4.12563 94.9938 5.18112Z" fill="#E8C8B6"/>
<path id="Vector_289" opacity="0.97" d="M94.9962 5.19714C96.8372 6.22016 98.5501 7.76281 98.2619 8.1363C98.0538 8.39611 96.9332 7.51924 94.58 6.12273C92.707 5.00228 90.658 4.12541 90.77 3.76816C90.9141 3.23229 93.1553 4.17412 95.0122 5.19714H94.9962Z" fill="#EBCBB9"/>
<path id="Vector_290" opacity="0.99" d="M94.9776 5.21364C96.7865 6.22043 98.4674 7.71436 98.1952 8.05537C98.0031 8.29894 96.9146 7.45455 94.5934 6.05804C92.7524 4.95383 90.7354 4.10943 90.8314 3.76843C90.9755 3.26503 93.1686 4.20686 94.9776 5.19741V5.21364Z" fill="#EFCEBB"/>
<path id="Vector_291" d="M94.9743 5.22967C96.7512 6.20398 98.4001 7.6492 98.144 7.97397C97.9679 8.2013 96.9273 7.38938 94.6381 6.00912C92.8292 4.92114 90.8442 4.10922 90.9242 3.78445C91.0683 3.2973 93.2134 4.25537 94.9743 5.21344V5.22967Z" fill="#F2D1BE"/>
</g>
</g>
</g>
</g>
<defs>
<linearGradient id="paint0_linear_1576_21693" x1="87.6217" y1="19.7294" x2="48.3408" y2="-0.652071" gradientUnits="userSpaceOnUse">
<stop stop-color="#CD4E27"/>
<stop offset="1" stop-color="#F37845"/>
</linearGradient>
<linearGradient id="paint1_linear_1576_21693" x1="87.2381" y1="7.9738" x2="78.794" y2="4.68416" gradientUnits="userSpaceOnUse">
<stop stop-color="#F4784F"/>
<stop offset="1" stop-color="#F4784F" stop-opacity="0"/>
</linearGradient>
<linearGradient id="paint2_linear_1576_21693" x1="84.133" y1="58.1364" x2="92.6471" y2="72.0523" gradientUnits="userSpaceOnUse">
<stop stop-color="#CD4E27"/>
<stop offset="1" stop-color="#F37845"/>
</linearGradient>
<linearGradient id="paint3_linear_1576_21693" x1="76.3996" y1="78.868" x2="90.3634" y2="86.5031" gradientUnits="userSpaceOnUse">
<stop stop-color="#F4784F"/>
<stop offset="0.05" stop-color="#F4784F" stop-opacity="0.89"/>
<stop offset="0.14" stop-color="#F4784F" stop-opacity="0.69"/>
<stop offset="0.25" stop-color="#F4784F" stop-opacity="0.5"/>
<stop offset="0.36" stop-color="#F4784F" stop-opacity="0.35"/>
<stop offset="0.47" stop-color="#F4784F" stop-opacity="0.22"/>
<stop offset="0.58" stop-color="#F4784F" stop-opacity="0.12"/>
<stop offset="0.7" stop-color="#F4784F" stop-opacity="0.05"/>
<stop offset="0.83" stop-color="#F4784F" stop-opacity="0.01"/>
<stop offset="1" stop-color="#F4784F" stop-opacity="0"/>
</linearGradient>
<linearGradient id="paint4_linear_1576_21693" x1="70.0931" y1="21.0026" x2="81.193" y2="52.2161" gradientUnits="userSpaceOnUse">
<stop stop-color="#CD4E27"/>
<stop offset="1" stop-color="#F37845"/>
</linearGradient>
<linearGradient id="paint5_linear_1576_21693" x1="105.359" y1="34.8116" x2="107.648" y2="43.3518" gradientUnits="userSpaceOnUse">
<stop stop-color="#DA783F"/>
<stop offset="0.11" stop-color="#E07842" stop-opacity="0.76"/>
<stop offset="0.21" stop-color="#E57846" stop-opacity="0.56"/>
<stop offset="0.32" stop-color="#E97848" stop-opacity="0.39"/>
<stop offset="0.44" stop-color="#ED784B" stop-opacity="0.25"/>
<stop offset="0.56" stop-color="#F0784C" stop-opacity="0.14"/>
<stop offset="0.69" stop-color="#F2784E" stop-opacity="0.06"/>
<stop offset="0.83" stop-color="#F3784E" stop-opacity="0.01"/>
<stop offset="1" stop-color="#F4784F" stop-opacity="0"/>
</linearGradient>
</defs>
</svg>
