<svg width="177" height="38" viewBox="0 0 177 38" fill="none" xmlns="http://www.w3.org/2000/svg">
<g id="Group 34577">
<g id="Group">
<path id="Vector" d="M166.072 7.75454C166.702 4.84441 166.371 2.24608 166.001 0.622129C165.819 0.576658 165.637 0.537683 165.455 0.498708C163.513 0.12195 161.577 0.180413 159.641 0.5117C157.881 0.810508 156.153 1.23923 154.522 1.97326C153.314 2.51241 152.139 3.13601 151.262 4.16885C150.742 4.77946 150.287 5.42904 150.203 6.2605C150.079 7.49471 150.56 8.49507 151.424 9.32004C152.333 10.1775 153.412 10.8076 154.516 11.3792C156.315 12.3081 158.238 12.9057 160.174 13.4774C161.064 13.7372 161.954 14.01 162.876 14.2893C163.857 13.0941 164.585 11.8794 165.124 10.6777C165.111 10.6777 165.098 10.6712 165.091 10.6647C165.078 10.6647 165.059 10.6517 165.046 10.6452C164.669 10.5542 164.286 10.4698 163.902 10.3789C161.908 9.93065 159.908 9.51491 157.959 8.88482C156.588 8.4431 155.269 7.89096 154.107 7.02701C153.97 6.92308 153.847 6.80615 153.691 6.67624C153.795 6.5788 153.873 6.49435 153.964 6.4229C154.633 5.91623 155.367 5.57195 156.172 5.3316C158.303 4.68852 160.466 4.46116 162.681 4.75347C163.552 4.8704 164.409 5.03279 165.182 5.46801C166.111 5.99418 166.241 6.17606 166.15 7.25437C166.137 7.42326 166.111 7.59215 166.085 7.75454H166.072Z" fill="url(#paint0_linear_1525_838)"/>
<path id="Vector_2" d="M165.994 0.622132C165.994 0.622132 162.863 -0.248308 159.199 0.589653L159.706 4.66254C159.706 4.66254 163.35 4.46766 165.162 5.46802C165.162 5.46802 165.663 5.76033 165.766 5.85777C165.766 5.85777 166.163 6.1241 166.15 6.63727C166.15 6.63727 166.15 7.37129 166.078 7.68309C166.078 7.68309 166.897 4.07791 165.987 0.622132H165.994Z" fill="url(#paint1_linear_1525_838)"/>
<path id="Vector_3" d="M175.965 18.0764C175.023 15.5885 173.205 13.9256 170.925 12.6848C170.84 12.6394 170.756 12.6004 170.671 12.5549C170.353 13.4968 169.788 14.8999 168.787 16.8552C168.794 16.8552 168.807 16.8682 168.813 16.8747C168.82 16.8747 168.826 16.8876 168.833 16.8941C169.846 17.6801 170.632 18.5766 171.009 19.8368C171.386 21.0904 170.97 22.0908 170.275 23.0522C169.45 24.1954 168.378 25.0789 167.235 25.8844C165.442 27.1446 163.493 28.0994 161.48 28.9439C161.428 28.9699 161.369 28.9829 161.265 29.0154C161.265 29.0154 161.265 29.0154 161.259 29.0154H161.246C161.246 29.0154 161.233 29.0218 161.226 29.0283C161.226 29.0283 161.22 29.0283 161.213 29.0283C159.401 31.5877 157.264 34.4718 154.73 37.7003C156.484 38.0316 158.16 37.6678 159.83 37.1936C163.935 36.0178 167.612 34.0431 170.879 31.2889C172.549 29.8793 174.043 28.3138 175.173 26.4365C176.277 24.5982 176.868 22.6235 176.654 20.4539C176.569 19.6224 176.271 18.8494 175.978 18.0829L175.965 18.0764Z" fill="url(#paint2_linear_1525_838)"/>
<path id="Vector_4" style="mix-blend-mode:multiply" opacity="0.63" d="M161.2 29.0284L154.717 37.7003C154.717 37.7003 158.16 38.7916 166.156 34.5563L166.11 26.6184C166.11 26.6184 164.207 27.9565 161.2 29.0349V29.0284Z" fill="url(#paint3_linear_1525_838)"/>
<path id="Vector_5" d="M169.451 2.38906C168.438 1.49263 167.275 0.940488 165.996 0.622192C166.372 2.24615 166.704 4.84448 166.067 7.75461C165.976 8.15735 165.872 8.56658 165.742 8.98232C165.21 10.7167 164.313 12.5225 162.865 14.2764L158.61 19.9148C157.941 20.7592 157.265 21.6037 156.596 22.4482C155.232 24.1696 153.933 25.9429 152.64 27.7163C152.426 28.0151 152.224 28.3204 152.023 28.6322C151.744 29.0804 151.471 29.5351 151.198 29.9898C151.068 30.2042 150.99 30.4445 150.919 30.6849C150.808 31.0551 150.737 31.4319 150.62 31.8021C150.425 32.4257 150.419 33.0558 150.529 33.6859C150.542 33.7444 150.536 33.8094 150.542 33.8743L150.665 34.329C150.841 34.6928 150.99 35.0825 151.205 35.4203C152.017 36.6935 153.199 37.3951 154.673 37.6809C154.686 37.6809 154.699 37.6809 154.712 37.6874C166.242 22.9873 169.666 15.4911 170.666 12.542C170.666 12.542 170.653 12.542 170.647 12.5355C170.835 11.8535 171.03 11.1909 171.205 10.5218C171.634 8.88488 171.692 7.21545 171.329 5.57201C171.056 4.32481 170.419 3.24651 169.438 2.37606L169.451 2.38906Z" fill="url(#paint4_linear_1525_838)"/>
<path id="Vector_6" style="mix-blend-mode:multiply" opacity="0.63" d="M168.793 16.8552C168.793 16.8552 170.391 13.6592 170.677 12.5549C170.677 12.5549 173.775 13.997 175.328 16.7188L170.781 19.2067C170.781 19.2067 170.19 17.8165 168.793 16.8487V16.8552Z" fill="url(#paint5_linear_1525_838)"/>
<g id="Group_2" style="mix-blend-mode:screen">
<path id="Vector_7" opacity="0.01" d="M152.039 30.6004C152.825 28.6776 154.703 27.0017 155.482 27.4824C156.099 27.8656 155.151 29.7949 154.436 31.5813C153.8 33.1597 152.767 35.063 152.078 34.9591C151.325 34.8422 151.143 32.7765 152.039 30.6004Z" fill="#030303"/>
<path id="Vector_8" opacity="0.03" d="M152.045 30.607C152.824 28.7037 154.676 27.0407 155.449 27.5149C156.059 27.8917 155.124 29.808 154.409 31.5748C153.779 33.1468 152.753 35.0306 152.077 34.9267C151.33 34.8098 151.161 32.7636 152.045 30.6005V30.607Z" fill="#070605"/>
<path id="Vector_9" opacity="0.04" d="M152.059 30.6069C152.832 28.7166 154.664 27.0667 155.43 27.5408C156.034 27.9176 155.105 29.8079 154.397 31.5683C153.774 33.1273 152.76 34.9981 152.091 34.8941C151.351 34.7837 151.188 32.7505 152.059 30.6069Z" fill="#0A0908"/>
<path id="Vector_10" opacity="0.06" d="M152.065 30.6067C152.832 28.7359 154.644 27.099 155.398 27.5667C155.995 27.937 155.073 29.8077 154.371 31.5551C153.748 33.1011 152.747 34.9589 152.085 34.855C151.351 34.7446 151.195 32.7244 152.059 30.6067H152.065Z" fill="#0E0C0B"/>
<path id="Vector_11" opacity="0.07" d="M152.071 30.6133C152.831 28.762 154.624 27.1316 155.371 27.5928C155.962 27.9565 155.052 29.8079 154.351 31.5422C153.734 33.0753 152.746 34.9201 152.09 34.8226C151.363 34.7122 151.213 32.7115 152.071 30.6133Z" fill="#110F0D"/>
<path id="Vector_12" opacity="0.08" d="M152.078 30.6133C152.825 28.775 154.605 27.164 155.339 27.6187C155.924 27.976 155.021 29.8078 154.326 31.5357C153.715 33.0622 152.734 34.8876 152.091 34.7901C151.377 34.6797 151.227 32.6985 152.078 30.6198V30.6133Z" fill="#141210"/>
<path id="Vector_13" opacity="0.1" d="M152.086 30.6199C152.826 28.8011 154.586 27.2031 155.314 27.6513C155.892 28.0086 155.002 29.8144 154.307 31.5293C153.697 33.0428 152.735 34.8552 152.092 34.7577C151.384 34.6473 151.248 32.6791 152.086 30.6264V30.6199Z" fill="#181513"/>
<path id="Vector_14" opacity="0.11" d="M152.092 30.6198C152.826 28.814 154.566 27.229 155.281 27.6772C155.846 28.028 154.969 29.8143 154.281 31.5162C153.677 33.0168 152.722 34.8161 152.092 34.7187C151.39 34.6147 151.26 32.6595 152.092 30.6198Z" fill="#1B1815"/>
<path id="Vector_15" opacity="0.13" d="M152.1 30.6199C152.827 28.8335 154.542 27.2616 155.257 27.6968C155.815 28.0411 154.945 29.8079 154.263 31.5033C153.665 32.9909 152.723 34.7772 152.1 34.6798C151.405 34.5759 151.281 32.6401 152.1 30.6199Z" fill="#1F1A18"/>
<path id="Vector_16" opacity="0.14" d="M152.104 30.6262C152.825 28.8529 154.521 27.3004 155.222 27.7291C155.774 28.0734 154.917 29.8143 154.235 31.4967C153.637 32.9777 152.708 34.7446 152.091 34.6471C151.409 34.5432 151.286 32.6269 152.098 30.6262H152.104Z" fill="#221D1B"/>
<path id="Vector_17" opacity="0.15" d="M152.111 30.6264C152.826 28.8725 154.502 27.3265 155.197 27.7552C155.743 28.093 154.892 29.8144 154.216 31.4838C153.625 32.9519 152.709 34.6993 152.098 34.6083C151.423 34.5044 151.306 32.6011 152.111 30.6264Z" fill="#25201D"/>
<path id="Vector_18" opacity="0.17" d="M152.117 30.6264C152.825 28.8855 154.482 27.359 155.164 27.7747C155.703 28.106 154.859 29.8079 154.19 31.4643C153.598 32.9194 152.696 34.6538 152.098 34.5629C151.429 34.4589 151.318 32.5751 152.117 30.6199V30.6264Z" fill="#292320"/>
<path id="Vector_19" opacity="0.18" d="M152.124 30.6329C152.825 28.9115 154.462 27.3915 155.131 27.8072C155.664 28.132 154.832 29.8144 154.163 31.4643C153.579 32.9064 152.689 34.6278 152.091 34.5369C151.429 34.4329 151.331 32.5686 152.117 30.6329H152.124Z" fill="#2C2623"/>
<path id="Vector_20" opacity="0.2" d="M152.131 30.633C152.826 28.9246 154.443 27.4241 155.106 27.8333C155.632 28.1581 154.807 29.8145 154.145 31.4515C153.567 32.887 152.683 34.5889 152.098 34.5045C151.442 34.4071 151.351 32.5493 152.131 30.6395V30.633Z" fill="#302925"/>
<path id="Vector_21" opacity="0.21" d="M152.137 30.6393C152.825 28.9504 154.423 27.4629 155.073 27.8656C155.586 28.1839 154.774 29.8209 154.118 31.4448C153.54 32.8674 152.669 34.5563 152.098 34.4719C151.455 34.3744 151.364 32.5361 152.137 30.6393Z" fill="#332C28"/>
<path id="Vector_22" opacity="0.23" d="M152.145 30.6393C152.827 28.9699 154.399 27.4888 155.048 27.8851C155.555 28.1969 154.756 29.8143 154.1 31.4318C153.528 32.8414 152.671 34.5173 152.099 34.4328C151.463 34.3354 151.378 32.5166 152.145 30.6393Z" fill="#372F2B"/>
<path id="Vector_23" opacity="0.24" d="M152.151 30.6393C152.826 28.9828 154.379 27.5213 155.015 27.911C155.516 28.2228 154.723 29.8143 154.074 31.4188C153.508 32.8154 152.658 34.4783 152.099 34.3939C151.469 34.2964 151.391 32.4971 152.151 30.6393Z" fill="#3A322D"/>
<path id="Vector_24" opacity="0.25" d="M152.157 30.6458C152.819 29.0088 154.359 27.5538 154.989 27.9435C155.483 28.2488 154.697 29.8208 154.053 31.4123C153.488 32.8024 152.657 34.4458 152.105 34.3614C151.481 34.2639 151.416 32.4776 152.157 30.6458Z" fill="#3D3530"/>
<path id="Vector_25" opacity="0.27" d="M152.163 30.6458C152.82 29.0218 154.34 27.5862 154.957 27.9695C155.444 28.2683 154.671 29.8208 154.028 31.4058C153.469 32.7829 152.644 34.4133 152.099 34.3289C151.481 34.238 151.423 32.4646 152.157 30.6523L152.163 30.6458Z" fill="#413833"/>
<path id="Vector_26" opacity="0.28" d="M152.171 30.6525C152.82 29.048 154.321 27.6254 154.931 27.9957C155.412 28.288 154.645 29.821 154.009 31.393C153.457 32.7571 152.645 34.3746 152.106 34.2901C151.501 34.1992 151.443 32.4453 152.171 30.6525Z" fill="#443B36"/>
<path id="Vector_27" opacity="0.3" d="M152.177 30.6523C152.82 29.0608 154.301 27.6512 154.898 28.0215C155.373 28.3138 154.619 29.8208 153.983 31.3798C153.43 32.731 152.631 34.3354 152.105 34.251C151.508 34.1601 151.456 32.4257 152.177 30.6458V30.6523Z" fill="#483E38"/>
<path id="Vector_28" opacity="0.31" d="M152.189 30.6522C152.825 29.0802 154.287 27.6836 154.878 28.0474C155.339 28.3332 154.599 29.8208 153.969 31.3733C153.423 32.7179 152.637 34.3029 152.111 34.2184C151.52 34.1275 151.474 32.4061 152.189 30.6522Z" fill="#4B413B"/>
<path id="Vector_29" opacity="0.32" d="M152.195 30.6588C152.825 29.0998 154.26 27.7161 154.845 28.0734C155.3 28.3527 154.566 29.8273 153.942 31.3603C153.403 32.6919 152.623 34.2574 152.11 34.1795C151.526 34.0885 151.493 32.3866 152.195 30.6523V30.6588Z" fill="#4E443E"/>
<path id="Vector_30" opacity="0.34" d="M152.202 30.6587C152.826 29.1192 154.242 27.7485 154.814 28.0993C155.262 28.3786 154.541 29.8272 153.917 31.3472C153.378 32.6659 152.618 34.2184 152.111 34.1469C151.54 34.0625 151.507 32.3736 152.202 30.6587Z" fill="#524740"/>
<path id="Vector_31" opacity="0.35" d="M152.209 30.6654C152.826 29.1389 154.223 27.7877 154.788 28.132C155.229 28.4048 154.515 29.8339 153.898 31.3475C153.365 32.6531 152.612 34.1926 152.118 34.1212C151.553 34.0367 151.527 32.3608 152.209 30.6719V30.6654Z" fill="#554A43"/>
<path id="Vector_32" opacity="0.37" d="M152.216 30.6653C152.826 29.1582 154.203 27.8136 154.756 28.1579C155.191 28.4242 154.483 29.8338 153.872 31.3343C153.346 32.6335 152.599 34.1535 152.112 34.0821C151.553 33.9976 151.534 32.3412 152.209 30.6718L152.216 30.6653Z" fill="#594D46"/>
<path id="Vector_33" opacity="0.38" d="M152.221 30.6653C152.826 29.1778 154.183 27.8462 154.729 28.1774C155.158 28.4373 154.463 29.8274 153.852 31.3149C153.326 32.6011 152.598 34.1081 152.118 34.0367C151.565 33.9522 151.552 32.3153 152.221 30.6588V30.6653Z" fill="#5C4F48"/>
<path id="Vector_34" opacity="0.39" d="M152.228 30.6719C152.826 29.1973 154.164 27.8787 154.696 28.21C155.119 28.4698 154.43 29.8339 153.826 31.315C153.306 32.5881 152.585 34.0822 152.117 34.0107C151.572 33.9263 151.565 32.3088 152.228 30.6719Z" fill="#5F524B"/>
<path id="Vector_35" opacity="0.41" d="M152.235 30.6718C152.826 29.2168 154.145 27.9111 154.671 28.2359C155.08 28.4892 154.405 29.8339 153.807 31.3019C153.294 32.5686 152.586 34.0432 152.118 33.9717C151.586 33.8938 151.586 32.2828 152.235 30.6718Z" fill="#63554E"/>
<path id="Vector_36" opacity="0.42" d="M152.242 30.6784C152.826 29.2364 154.119 27.9502 154.639 28.2685C155.041 28.5153 154.379 29.8405 153.781 31.2955C153.268 32.5492 152.573 34.0108 152.118 33.9393C151.592 33.8614 151.599 32.2699 152.242 30.6784Z" fill="#665850"/>
<path id="Vector_37" opacity="0.44" d="M152.248 30.6782C152.819 29.2556 154.099 27.976 154.612 28.2878C155.008 28.5346 154.352 29.8338 153.761 31.2758C153.254 32.5165 152.572 33.9651 152.124 33.8937C151.605 33.8157 151.618 32.2437 152.254 30.6717L152.248 30.6782Z" fill="#6A5B53"/>
<path id="Vector_38" opacity="0.45" d="M152.253 30.6782C152.818 29.2686 154.078 28.0085 154.578 28.3138C154.968 28.5541 154.319 29.8338 153.734 31.2694C153.234 32.4971 152.558 33.9326 152.116 33.8612C151.603 33.7832 151.623 32.2242 152.253 30.6782Z" fill="#6D5E56"/>
<path id="Vector_39" opacity="0.46" d="M152.261 30.6848C152.819 29.2947 154.06 28.041 154.554 28.3463C154.937 28.5802 154.3 29.8404 153.716 31.2629C153.216 32.4842 152.56 33.9003 152.124 33.8353C151.624 33.7573 151.644 32.2178 152.261 30.6913V30.6848Z" fill="#706158"/>
<path id="Vector_40" opacity="0.48" d="M152.267 30.6848C152.819 29.3077 154.04 28.0735 154.521 28.3723C154.898 28.5997 154.268 29.8404 153.69 31.25C153.196 32.4582 152.546 33.8613 152.124 33.7963C151.63 33.7249 151.663 32.1984 152.267 30.6848Z" fill="#74645B"/>
<path id="Vector_41" opacity="0.49" d="M152.272 30.6914C152.818 29.3338 154.02 28.1125 154.487 28.3984C154.858 28.6257 154.234 29.8404 153.662 31.2435C153.175 32.4388 152.539 33.8224 152.116 33.7639C151.629 33.6925 151.668 32.1854 152.266 30.6914H152.272Z" fill="#77675E"/>
<path id="Vector_42" opacity="0.51" d="M152.28 30.6914C152.819 29.3468 154.002 28.1385 154.463 28.4244C154.82 28.6452 154.216 29.8405 153.644 31.2306C153.157 32.4128 152.534 33.7834 152.124 33.725C151.644 33.6535 151.689 32.1595 152.28 30.6914Z" fill="#7B6A60"/>
<path id="Vector_43" opacity="0.52" d="M152.287 30.6913C152.82 29.3661 153.976 28.1709 154.431 28.4502C154.781 28.6646 154.184 29.8403 153.619 31.2174C153.138 32.3932 152.521 33.7443 152.125 33.6858C151.65 33.6144 151.702 32.1398 152.287 30.6913Z" fill="#7E6D63"/>
<path id="Vector_44" opacity="0.54" d="M152.293 30.6978C152.819 29.3922 153.956 28.2034 154.404 28.4763C154.748 28.6906 154.164 29.8404 153.599 31.211C153.125 32.3737 152.52 33.7119 152.124 33.6534C151.663 33.582 151.715 32.1269 152.293 30.6978Z" fill="#827066"/>
<path id="Vector_45" opacity="0.55" d="M152.3 30.6979C152.819 29.4052 153.937 28.236 154.372 28.5023C154.71 28.7102 154.132 29.8404 153.573 31.1981C153.099 32.3478 152.508 33.673 152.124 33.6145C151.67 33.5431 151.728 32.101 152.3 30.6979Z" fill="#857368"/>
<path id="Vector_46" opacity="0.56" d="M152.314 30.7042C152.827 29.4311 153.925 28.2748 154.354 28.5346C154.685 28.736 154.114 29.8468 153.561 31.1914C153.094 32.3282 152.516 33.6403 152.139 33.5819C151.691 33.5169 151.762 32.0878 152.314 30.6977V30.7042Z" fill="#88766B"/>
<path id="Vector_47" opacity="0.58" d="M152.32 30.7042C152.826 29.444 153.905 28.3008 154.321 28.5606C154.645 28.7555 154.087 29.8468 153.535 31.1849C153.073 32.3152 152.502 33.6079 152.131 33.5494C151.69 33.4845 151.768 32.0749 152.313 30.7042H152.32Z" fill="#8C796E"/>
<path id="Vector_48" opacity="0.59" d="M152.326 30.7042C152.826 29.4635 153.885 28.3332 154.294 28.5801C154.613 28.7749 154.06 29.8402 153.515 31.1654C153.054 32.2827 152.501 33.5624 152.138 33.5104C151.702 33.4454 151.787 32.0553 152.326 30.7042Z" fill="#8F7C70"/>
<path id="Vector_49" opacity="0.61" d="M152.332 30.7109C152.819 29.4832 153.865 28.3659 154.262 28.6127C154.567 28.8011 154.028 29.8469 153.489 31.1591C153.034 32.2634 152.488 33.5301 152.137 33.4781C151.715 33.4132 151.8 32.036 152.332 30.7109Z" fill="#937F73"/>
<path id="Vector_50" opacity="0.62" d="M152.337 30.7107C152.818 29.5025 153.838 28.3982 154.234 28.6385C154.533 28.8204 154.007 29.8532 153.468 31.1524C153.019 32.2437 152.487 33.4974 152.136 33.4454C151.72 33.3805 151.811 32.0228 152.337 30.7172V30.7107Z" fill="#968276"/>
<path id="Vector_51" opacity="0.63" d="M152.344 30.7108C152.819 29.5155 153.819 28.4307 154.202 28.6646C154.495 28.8465 153.975 29.8533 153.442 31.1395C152.994 32.2243 152.474 33.4585 152.137 33.4065C151.727 33.3481 151.831 32.0034 152.344 30.7173V30.7108Z" fill="#998478"/>
<path id="Vector_52" opacity="0.65" d="M152.353 30.7173C152.821 29.5415 153.801 28.4632 154.178 28.6906C154.464 28.866 153.951 29.8533 153.425 31.1265C152.983 32.1983 152.476 33.4195 152.145 33.3676C151.742 33.3091 151.853 31.9775 152.359 30.7173H152.353Z" fill="#9D877B"/>
<path id="Vector_53" opacity="0.66" d="M152.358 30.7174C152.819 29.5546 153.781 28.4958 154.144 28.7166C154.424 28.8855 153.923 29.8534 153.397 31.1201C152.962 32.1789 152.462 33.3807 152.137 33.3352C151.747 33.2767 151.858 31.9646 152.358 30.7174Z" fill="#A08A7E"/>
<path id="Vector_54" opacity="0.68" d="M152.366 30.7238C152.82 29.5805 153.762 28.5282 154.113 28.749C154.386 28.9114 153.892 29.8598 153.373 31.1135C152.937 32.1593 152.45 33.3481 152.138 33.3026C151.755 33.2441 151.872 31.9515 152.359 30.7238H152.366Z" fill="#A48D80"/>
<path id="Vector_55" opacity="0.69" d="M152.37 30.7238C152.819 29.6 153.741 28.5607 154.085 28.7685C154.352 28.9309 153.864 29.8533 153.351 31.094C152.923 32.1334 152.448 33.3026 152.143 33.2571C151.766 33.1987 151.89 31.9255 152.37 30.7173V30.7238Z" fill="#A79083"/>
<path id="Vector_56" opacity="0.7" d="M152.379 30.7238C152.82 29.613 153.723 28.5931 154.054 28.7945C154.308 28.9504 153.84 29.8533 153.327 31.081C152.905 32.1074 152.437 33.2636 152.138 33.2182C151.768 33.1662 151.904 31.8995 152.372 30.7173L152.379 30.7238Z" fill="#AA9386"/>
<path id="Vector_57" opacity="0.72" d="M152.383 30.7304C152.819 29.6391 153.696 28.6257 154.027 28.8271C154.274 28.9765 153.813 29.86 153.306 31.0812C152.884 32.0945 152.435 33.2378 152.143 33.1923C151.779 33.1403 151.922 31.8931 152.383 30.7304Z" fill="#AE9688"/>
<path id="Vector_58" opacity="0.73" d="M152.39 30.7303C152.819 29.652 153.676 28.6581 153.995 28.853C154.235 29.0024 153.787 29.8598 153.28 31.0681C152.864 32.0684 152.423 33.1987 152.143 33.1597C151.792 33.1077 151.935 31.88 152.39 30.7368V30.7303Z" fill="#B1998B"/>
<path id="Vector_59" opacity="0.75" d="M152.397 30.7368C152.819 29.6779 153.657 28.6906 153.969 28.879C154.203 29.0219 153.761 29.8598 153.261 31.0551C152.852 32.0489 152.423 33.1597 152.15 33.1207C151.806 33.0688 151.955 31.854 152.404 30.7303L152.397 30.7368Z" fill="#B59C8E"/>
<path id="Vector_60" opacity="0.76" d="M152.403 30.7368C152.819 29.6909 153.638 28.7231 153.936 28.905C154.164 29.0414 153.729 29.8598 153.235 31.0486C152.826 32.0294 152.41 33.1272 152.144 33.0883C151.806 33.0363 151.962 31.8411 152.403 30.7368Z" fill="#B89F91"/>
<path id="Vector_61" opacity="0.77" d="M152.411 30.7368C152.814 29.7105 153.619 28.7556 153.911 28.931C154.132 29.0674 153.71 29.8599 153.216 31.0356C152.814 32.0035 152.411 33.0883 152.151 33.0493C151.82 33.0039 151.982 31.8216 152.411 30.7368Z" fill="#BBA293"/>
<path id="Vector_62" opacity="0.79" d="M152.416 30.7433C152.813 29.73 153.599 28.7881 153.878 28.9634C154.092 29.0934 153.676 29.8664 153.189 31.0291C152.787 31.984 152.397 33.0558 152.15 33.0168C151.832 32.9714 152.001 31.8086 152.416 30.7433Z" fill="#BFA596"/>
<path id="Vector_63" opacity="0.8" d="M152.424 30.7434C152.814 29.7496 153.574 28.8207 153.853 28.983C154.055 29.1065 153.652 29.86 153.171 31.0162C152.775 31.9646 152.398 33.017 152.151 32.978C151.84 32.9325 152.015 31.7827 152.424 30.7434Z" fill="#C2A899"/>
<path id="Vector_64" opacity="0.82" d="M152.43 30.7496C152.814 29.7688 153.554 28.8529 153.82 29.0153C154.015 29.1322 153.626 29.8662 153.145 31.0095C152.755 31.9449 152.385 32.9842 152.151 32.9452C151.846 32.8998 152.028 31.7695 152.43 30.7496Z" fill="#C6AB9B"/>
<path id="Vector_65" opacity="0.83" d="M152.442 30.7497C152.819 29.7883 153.54 28.8854 153.794 29.0413C153.982 29.1582 153.599 29.8663 153.124 30.9966C152.735 31.919 152.384 32.9453 152.157 32.9063C151.858 32.8609 152.046 31.7501 152.442 30.7497Z" fill="#C9AE9E"/>
<path id="Vector_66" opacity="0.85" d="M152.449 30.7497C152.819 29.8078 153.52 28.9179 153.767 29.0673C153.949 29.1777 153.572 29.8663 153.105 30.99C152.721 31.8995 152.377 32.9063 152.156 32.8738C151.864 32.8284 152.059 31.7371 152.449 30.7497Z" fill="#CDB1A1"/>
<path id="Vector_67" opacity="0.86" d="M152.455 30.7562C152.818 29.8273 153.501 28.9503 153.734 29.0933C153.91 29.1972 153.546 29.8663 153.078 30.977C152.702 31.88 152.364 32.8673 152.156 32.8413C151.877 32.8024 152.078 31.7176 152.455 30.7562Z" fill="#D0B4A3"/>
<path id="Vector_68" opacity="0.87" d="M152.463 30.7562C152.82 29.8468 153.482 28.9828 153.71 29.1193C153.879 29.2232 153.521 29.8663 153.06 30.9641C152.683 31.854 152.365 32.8284 152.164 32.8024C151.891 32.7634 152.099 31.6981 152.469 30.7562H152.463Z" fill="#D3B7A6"/>
<path id="Vector_69" opacity="0.89" d="M152.468 30.7628C152.819 29.8663 153.462 29.0154 153.676 29.1518C153.839 29.2492 153.488 29.8728 153.033 30.9641C152.663 31.8411 152.351 32.8024 152.156 32.7765C151.89 32.7375 152.104 31.6917 152.462 30.7693L152.468 30.7628Z" fill="#D7B9A9"/>
<path id="Vector_70" opacity="0.9" d="M152.474 30.7628C152.818 29.8859 153.436 29.0479 153.65 29.1713C153.799 29.2623 153.468 29.8664 153.013 30.9447C152.65 31.8086 152.351 32.757 152.162 32.731C151.903 32.6921 152.123 31.6592 152.474 30.7628Z" fill="#DABCAB"/>
<path id="Vector_71" opacity="0.92" d="M152.482 30.7628C152.82 29.8989 153.417 29.0804 153.619 29.1973C153.762 29.2818 153.437 29.8729 152.989 30.9317C152.625 31.7892 152.339 32.7181 152.164 32.6921C151.917 32.6531 152.138 31.6398 152.482 30.7628Z" fill="#DEBFAE"/>
<path id="Vector_72" opacity="0.93" d="M152.489 30.7692C152.82 29.9247 153.398 29.1127 153.593 29.2297C153.73 29.3141 153.418 29.8792 152.97 30.9316C152.612 31.776 152.34 32.6919 152.164 32.6659C151.924 32.6335 152.151 31.6331 152.489 30.7692Z" fill="#E1C2B1"/>
<path id="Vector_73" opacity="0.94" d="M152.494 30.7693C152.819 29.9379 153.378 29.1454 153.56 29.2558C153.689 29.3338 153.384 29.8794 152.942 30.9188C152.592 31.7502 152.325 32.6531 152.163 32.6272C151.929 32.5947 152.163 31.6138 152.494 30.7693Z" fill="#E4C5B3"/>
<path id="Vector_74" opacity="0.96" d="M152.502 30.7758C152.814 29.9638 153.359 29.1778 153.535 29.2817C153.658 29.3532 153.359 29.8794 152.924 30.9057C152.573 31.7242 152.326 32.6141 152.17 32.5881C151.943 32.5556 152.19 31.5878 152.508 30.7693L152.502 30.7758Z" fill="#E8C8B6"/>
<path id="Vector_75" opacity="0.97" d="M152.508 30.7756C152.813 29.9767 153.339 29.2102 153.502 29.3076C153.619 29.379 153.333 29.8792 152.898 30.8926C152.553 31.7046 152.313 32.575 152.163 32.549C151.943 32.5165 152.196 31.5681 152.508 30.7692V30.7756Z" fill="#EBCBB9"/>
<path id="Vector_76" opacity="0.99" d="M152.513 30.7758C152.811 29.9963 153.318 29.2428 153.468 29.3338C153.578 29.3987 153.299 29.8794 152.87 30.8863C152.532 31.6853 152.305 32.5427 152.162 32.5232C151.954 32.4907 152.207 31.5618 152.506 30.7823L152.513 30.7758Z" fill="#EFCEBB"/>
<path id="Vector_77" d="M152.52 30.7822C152.812 30.0157 153.293 29.2752 153.442 29.3661C153.54 29.4246 153.273 29.8858 152.851 30.8796C152.513 31.6656 152.299 32.5101 152.169 32.4906C151.968 32.4646 152.227 31.5422 152.52 30.7887V30.7822Z" fill="#F2D1BE"/>
</g>
<g id="Group_3" style="mix-blend-mode:screen">
<path id="Vector_78" opacity="0.01" d="M167.396 1.86282C169.196 2.89565 170.612 4.97431 170.027 5.68236C169.566 6.2475 167.773 5.05226 166.104 4.10387C164.623 3.26591 162.869 1.99273 163.064 1.32366C163.278 0.589634 165.35 0.687071 167.396 1.85632V1.86282Z" fill="#030303"/>
<path id="Vector_79" opacity="0.03" d="M167.389 1.86942C169.175 2.88927 170.578 4.94844 170 5.64999C169.545 6.20863 167.772 5.02639 166.109 4.0845C164.635 3.25303 162.9 1.99284 163.095 1.33027C163.309 0.602736 165.362 0.706669 167.389 1.86293V1.86942Z" fill="#070605"/>
<path id="Vector_80" opacity="0.04" d="M167.388 1.87583C169.155 2.88918 170.552 4.92237 169.98 5.61743C169.532 6.16957 167.778 5.00032 166.128 4.06492C164.666 3.23995 162.945 1.99276 163.133 1.33668C163.341 0.615642 165.381 0.726071 167.388 1.87583Z" fill="#0A0908"/>
<path id="Vector_81" opacity="0.06" d="M167.383 1.88238C169.137 2.88274 170.521 4.90294 169.955 5.585C169.507 6.13065 167.779 4.9679 166.136 4.04549C164.687 3.22702 162.972 1.99281 163.161 1.34323C163.369 0.635185 165.389 0.745614 167.377 1.88238H167.383Z" fill="#0E0C0B"/>
<path id="Vector_82" opacity="0.07" d="M167.383 1.8889C169.124 2.88276 170.494 4.87698 169.935 5.55254C169.494 6.0917 167.785 4.94193 166.155 4.01953C164.713 3.20755 163.017 1.98633 163.206 1.34974C163.414 0.648194 165.414 0.758623 167.383 1.8889Z" fill="#110F0D"/>
<path id="Vector_83" opacity="0.08" d="M167.376 1.89532C169.097 2.88268 170.462 4.85092 169.916 5.51999C169.481 6.05264 167.792 4.91587 166.168 3.99996C164.739 3.18798 163.056 1.98626 163.238 1.35616C163.44 0.66111 165.427 0.778034 167.376 1.89532Z" fill="#141210"/>
<path id="Vector_84" opacity="0.1" d="M167.376 1.90188C169.084 2.87625 170.435 4.83149 169.896 5.48757C169.467 6.01373 167.791 4.88995 166.187 3.98054C164.764 3.17506 163.101 1.98632 163.283 1.36272C163.485 0.674164 165.453 0.797585 167.382 1.90188H167.376Z" fill="#181513"/>
<path id="Vector_85" opacity="0.11" d="M167.369 1.90833C169.064 2.87621 170.402 4.80547 169.869 5.45505C169.447 5.96822 167.791 4.86393 166.193 3.96101C164.783 3.16202 163.127 1.97978 163.309 1.36918C163.51 0.687115 165.459 0.817032 167.369 1.90833Z" fill="#1B1815"/>
<path id="Vector_86" opacity="0.13" d="M167.37 1.91495C169.046 2.86984 170.377 4.77961 169.851 5.4227C169.435 5.92937 167.799 4.83807 166.214 3.93515C164.817 3.14266 163.173 1.97341 163.349 1.3693C163.544 0.693738 165.48 0.83015 167.376 1.90846L167.37 1.91495Z" fill="#1F1A18"/>
<path id="Vector_87" opacity="0.14" d="M167.362 1.92138C169.025 2.86977 170.344 4.75356 169.824 5.39015C169.415 5.89033 167.797 4.81202 166.219 3.9156C164.829 3.1296 163.205 1.97335 163.38 1.37573C163.575 0.713158 165.491 0.843074 167.369 1.91489L167.362 1.92138Z" fill="#221D1B"/>
<path id="Vector_88" opacity="0.15" d="M167.362 1.92785C169.006 2.86975 170.318 4.73405 169.805 5.35765C169.396 5.85133 167.804 4.78601 166.239 3.89609C164.861 3.11659 163.244 1.97332 163.419 1.3887C163.614 0.732619 165.511 0.869032 167.369 1.92785H167.362Z" fill="#25201D"/>
<path id="Vector_89" opacity="0.17" d="M167.356 1.93439C168.987 2.8633 170.286 4.70811 169.779 5.32521C169.377 5.8124 167.805 4.75358 166.246 3.87015C164.881 3.09715 163.277 1.96687 163.446 1.38874C163.634 0.739162 165.518 0.88207 167.356 1.9279V1.93439Z" fill="#292320"/>
<path id="Vector_90" opacity="0.18" d="M167.35 1.94093C168.968 2.86334 170.254 4.68217 169.754 5.29278C169.357 5.77347 167.805 4.72764 166.259 3.8507C164.901 3.0842 163.316 1.96691 163.485 1.39528C163.673 0.752194 165.538 0.901598 167.357 1.93443L167.35 1.94093Z" fill="#2C2623"/>
<path id="Vector_91" opacity="0.2" d="M167.35 1.94737C168.948 2.85678 170.228 4.66262 169.734 5.26024C169.344 5.73443 167.805 4.7016 166.272 3.83116C164.927 3.07114 163.355 1.96685 163.517 1.40172C163.706 0.765126 165.551 0.921026 167.35 1.94087V1.94737Z" fill="#302925"/>
<path id="Vector_92" opacity="0.21" d="M167.344 1.95378C168.929 2.8567 170.196 4.63655 169.709 5.22767C169.326 5.69537 167.805 4.67553 166.285 3.81158C164.954 3.05157 163.388 1.96677 163.551 1.40813C163.733 0.784529 165.564 0.933933 167.344 1.95378Z" fill="#332C28"/>
<path id="Vector_93" opacity="0.23" d="M167.343 1.96037C168.908 2.85679 170.168 4.61066 169.688 5.20179C169.311 5.66299 167.81 4.65614 166.297 3.79219C164.972 3.03868 163.426 1.96686 163.588 1.41472C163.77 0.797616 165.582 0.953516 167.343 1.96037Z" fill="#372F2B"/>
<path id="Vector_94" opacity="0.24" d="M167.338 1.96683C168.89 2.85027 170.138 4.58465 169.663 5.16928C169.293 5.62398 167.812 4.63012 166.312 3.77267C164.999 3.02565 163.466 1.96683 163.622 1.42768C163.798 0.817073 165.597 0.979469 167.338 1.97333V1.96683Z" fill="#3A322D"/>
<path id="Vector_95" opacity="0.25" d="M167.337 1.97335C168.877 2.85029 170.111 4.56518 169.643 5.13682C169.273 5.58503 167.818 4.60416 166.324 3.75321C165.024 3.01268 163.498 1.96685 163.66 1.4342C163.836 0.830085 165.616 0.998976 167.337 1.97985V1.97335Z" fill="#3D3530"/>
<path id="Vector_96" opacity="0.27" d="M167.33 1.97989C168.85 2.84383 170.078 4.53924 169.617 5.10438C169.253 5.5461 167.818 4.57822 166.337 3.73376C165.044 2.99973 163.537 1.9669 163.693 1.44074C163.868 0.84312 165.629 1.01851 167.33 1.98639V1.97989Z" fill="#413833"/>
<path id="Vector_97" opacity="0.28" d="M167.33 1.98641C168.837 2.84386 170.052 4.51329 169.597 5.07193C169.24 5.50715 167.824 4.54577 166.35 3.70781C165.07 2.98027 163.576 1.96043 163.725 1.44076C163.894 0.849644 165.641 1.02503 167.324 1.98641H167.33Z" fill="#443B36"/>
<path id="Vector_98" opacity="0.3" d="M167.322 1.99295C168.816 2.84391 170.018 4.49385 169.57 5.03949C169.219 5.46822 167.822 4.51983 166.361 3.68836C165.088 2.96733 163.613 1.96047 163.762 1.4473C163.931 0.869175 165.659 1.04456 167.329 1.99295H167.322Z" fill="#483E38"/>
<path id="Vector_99" opacity="0.31" d="M167.325 1.99931C168.799 2.83727 169.995 4.46772 169.553 5.00687C169.209 5.4291 167.825 4.4937 166.376 3.66873C165.116 2.95419 163.648 1.96033 163.798 1.45366C163.967 0.882025 165.675 1.06391 167.325 1.99931Z" fill="#4B413B"/>
<path id="Vector_100" opacity="0.32" d="M167.316 2.00581C168.778 2.83727 169.96 4.44174 169.525 4.9744C169.187 5.39013 167.823 4.46773 166.387 3.64925C165.14 2.93471 163.685 1.96034 163.828 1.46016C163.991 0.895023 165.686 1.0834 167.316 2.00581Z" fill="#4E443E"/>
<path id="Vector_101" opacity="0.34" d="M167.317 2.01222C168.759 2.83069 169.934 4.41567 169.506 4.94183C169.174 5.35107 167.83 4.44166 166.401 3.62318C165.16 2.91514 163.724 1.95376 163.867 1.46657C164.03 0.907928 165.706 1.1028 167.317 2.01222Z" fill="#524740"/>
<path id="Vector_102" opacity="0.35" d="M167.31 2.01889C168.739 2.83087 169.902 4.39636 169.48 4.90953C169.148 5.31227 167.83 4.41585 166.414 3.60387C165.186 2.90232 163.763 1.95393 163.9 1.47324C164.062 0.921093 165.719 1.11597 167.31 2.01889Z" fill="#554A43"/>
<path id="Vector_103" opacity="0.37" d="M167.311 2.02532C168.727 2.8308 169.877 4.37031 169.461 4.87699C169.136 5.27323 167.837 4.3898 166.428 3.58432C165.213 2.88926 163.797 1.95387 163.94 1.47967C164.096 0.940517 165.739 1.13539 167.311 2.03182V2.02532Z" fill="#594D46"/>
<path id="Vector_104" opacity="0.38" d="M167.305 2.0318C168.701 2.82429 169.844 4.34432 169.435 4.8445C169.117 5.23425 167.837 4.3638 166.441 3.56482C165.232 2.87626 163.836 1.95385 163.972 1.48615C164.128 0.953497 165.759 1.15487 167.305 2.0383V2.0318Z" fill="#5C4F48"/>
<path id="Vector_105" opacity="0.39" d="M167.304 2.03835C168.688 2.82434 169.818 4.32488 169.416 4.81206C169.104 5.19532 167.844 4.33137 166.454 3.53888C165.258 2.85682 163.875 1.9474 164.005 1.4862C164.16 0.960039 165.771 1.1679 167.298 2.03835H167.304Z" fill="#5F524B"/>
<path id="Vector_106" opacity="0.41" d="M167.297 2.04489C168.668 2.8179 169.785 4.29894 169.389 4.77964C169.083 5.15639 167.843 4.30544 166.466 3.51945C165.283 2.84388 163.906 1.94746 164.043 1.49275C164.192 0.973082 165.79 1.18744 167.297 2.04489Z" fill="#63554E"/>
<path id="Vector_107" opacity="0.42" d="M167.291 2.05136C168.642 2.81786 169.753 4.27293 169.363 4.74712C169.064 5.11738 167.837 4.27942 166.473 3.49992C165.297 2.83085 163.939 1.94742 164.069 1.50571C164.219 0.992536 165.797 1.2069 167.285 2.05785L167.291 2.05136Z" fill="#665850"/>
<path id="Vector_108" opacity="0.44" d="M167.292 2.05783C168.631 2.81784 169.728 4.24692 169.345 4.71462C169.053 5.07839 167.845 4.25342 166.493 3.48042C165.331 2.81784 163.986 1.9474 164.109 1.51218C164.259 1.00551 165.818 1.22636 167.286 2.06433L167.292 2.05783Z" fill="#6A5B53"/>
<path id="Vector_109" opacity="0.45" d="M167.285 2.06429C168.603 2.81131 169.695 4.2274 169.318 4.68211C169.026 5.03938 167.843 4.2274 166.499 3.4544C165.349 2.79183 164.017 1.94087 164.141 1.51215C164.284 1.01847 165.83 1.23932 167.285 2.06429Z" fill="#6D5E56"/>
<path id="Vector_110" opacity="0.46" d="M167.285 2.07096C168.591 2.81148 169.669 4.20159 169.299 4.6498C169.013 5.00058 167.85 4.20159 166.518 3.43508C165.375 2.779 164.057 1.94104 164.18 1.51881C164.323 1.03163 165.849 1.25898 167.285 2.07096Z" fill="#706158"/>
<path id="Vector_111" opacity="0.48" d="M167.279 2.0773C168.571 2.80483 169.637 4.17545 169.279 4.61716C169 4.95495 167.857 4.17545 166.532 3.41544C165.401 2.76585 164.096 1.94088 164.219 1.52515C164.362 1.04446 165.869 1.27831 167.285 2.0773H167.279Z" fill="#74645B"/>
<path id="Vector_112" opacity="0.49" d="M167.278 2.08382C168.551 2.80485 169.61 4.15599 169.259 4.58471C168.986 4.916 167.863 4.14949 166.55 3.38948C165.427 2.74639 164.141 1.93441 164.257 1.52518C164.394 1.05098 165.888 1.29133 167.284 2.07732L167.278 2.08382Z" fill="#77675E"/>
<path id="Vector_113" opacity="0.51" d="M167.272 2.09037C168.532 2.80491 169.578 4.13006 169.234 4.55229C168.968 4.87708 167.863 4.11707 166.558 3.37005C165.447 2.73346 164.174 1.93447 164.284 1.53823C164.42 1.07053 165.895 1.31087 167.272 2.09037Z" fill="#7B6A60"/>
<path id="Vector_114" opacity="0.52" d="M167.272 2.09673C168.513 2.79828 169.552 4.10394 169.215 4.51967C168.955 4.83797 167.87 4.09095 166.577 3.35042C165.48 2.72033 164.213 1.93433 164.33 1.54458C164.46 1.08988 165.921 1.33022 167.279 2.09673H167.272Z" fill="#7E6D63"/>
<path id="Vector_115" opacity="0.54" d="M167.265 2.10332C168.492 2.79837 169.512 4.07805 169.187 4.48729C168.934 4.79909 167.862 4.06506 166.583 3.33103C165.491 2.70743 164.244 1.93443 164.354 1.55117C164.484 1.10296 165.926 1.3498 167.265 2.10982V2.10332Z" fill="#827066"/>
<path id="Vector_116" opacity="0.55" d="M167.266 2.10975C168.481 2.79181 169.488 4.0585 169.169 4.45474C168.916 4.76005 167.87 4.03901 166.603 3.30498C165.525 2.68788 164.291 1.92787 164.395 1.55111C164.525 1.10939 165.947 1.36273 167.266 2.10975Z" fill="#857368"/>
<path id="Vector_117" opacity="0.56" d="M167.259 2.1162C168.454 2.79176 169.455 4.03247 169.143 4.42222C168.896 4.72102 167.87 4.01298 166.609 3.28545C165.544 2.66834 164.316 1.92782 164.427 1.55756C164.55 1.12234 165.96 1.38217 167.259 2.1162Z" fill="#88766B"/>
<path id="Vector_118" opacity="0.58" d="M167.258 2.12276C168.441 2.78533 169.428 4.00655 169.123 4.3898C168.882 4.68211 167.876 3.98706 166.628 3.26602C165.57 2.65541 164.361 1.92788 164.465 1.56412C164.589 1.13539 165.979 1.39522 167.258 2.12276Z" fill="#8C796E"/>
<path id="Vector_119" opacity="0.59" d="M167.253 2.12927C168.422 2.78535 169.396 3.98708 169.098 4.35734C168.864 4.64316 167.876 3.9611 166.636 3.24656C165.59 2.64244 164.395 1.9279 164.499 1.57063C164.622 1.1484 165.993 1.41473 167.253 2.12927Z" fill="#8F7C70"/>
<path id="Vector_120" opacity="0.61" d="M167.252 2.13576C168.402 2.78535 169.37 3.96109 169.077 4.32486C168.85 4.60418 167.882 3.93511 166.655 3.22057C165.622 2.62295 164.439 1.9214 164.537 1.57712C164.654 1.16789 166.011 1.43422 167.259 2.13576H167.252Z" fill="#937F73"/>
<path id="Vector_121" opacity="0.62" d="M167.245 2.14238C168.382 2.77897 169.337 3.93523 169.051 4.2925C168.83 4.56532 167.882 3.90275 166.661 3.2012C165.634 2.61008 164.465 1.91503 164.562 1.58374C164.679 1.181 166.017 1.45383 167.245 2.14238Z" fill="#968276"/>
<path id="Vector_122" opacity="0.63" d="M167.247 2.14881C168.364 2.7789 169.312 3.90918 169.033 4.25995C168.819 4.52628 167.89 3.8767 166.681 3.18164C165.668 2.59702 164.512 1.91496 164.609 1.59017C164.726 1.19392 166.045 1.47324 167.253 2.14881H167.247Z" fill="#998478"/>
<path id="Vector_123" opacity="0.65" d="M167.241 2.15524C168.345 2.77234 169.28 3.88963 169.008 4.22741C168.793 4.48724 167.884 3.85065 166.689 3.16209C165.688 2.58397 164.545 1.9149 164.636 1.5966C164.746 1.20685 166.052 1.48617 167.241 2.15524Z" fill="#9D877B"/>
<path id="Vector_124" opacity="0.66" d="M167.233 2.16165C168.324 2.77226 169.247 3.86356 168.98 4.19485C168.773 4.44818 167.883 3.82459 166.7 3.13603C165.707 2.5644 164.576 1.90832 164.667 1.59652C164.778 1.21326 166.064 1.49908 167.233 2.15516V2.16165Z" fill="#A08A7E"/>
<path id="Vector_125" opacity="0.68" d="M167.233 2.16828C168.305 2.77239 169.221 3.83771 168.961 4.1625C168.76 4.40934 167.889 3.79873 166.714 3.11667C165.733 2.55153 164.615 1.90845 164.706 1.60314C164.817 1.23288 166.084 1.5187 167.233 2.16178V2.16828Z" fill="#A48D80"/>
<path id="Vector_126" opacity="0.69" d="M167.225 2.17471C168.284 2.76583 169.187 3.81815 168.933 4.12995C168.738 4.3703 167.887 3.77268 166.725 3.09712C165.75 2.53198 164.653 1.90838 164.737 1.61607C164.841 1.2523 166.095 1.54461 167.225 2.18121V2.17471Z" fill="#A79083"/>
<path id="Vector_127" opacity="0.7" d="M167.225 2.18128C168.271 2.76591 169.161 3.79225 168.914 4.09755C168.726 4.3314 167.894 3.74678 166.738 3.07771C165.776 2.51907 164.692 1.90846 164.776 1.62264C164.88 1.26537 166.114 1.56418 167.225 2.18778V2.18128Z" fill="#AA9386"/>
<path id="Vector_128" opacity="0.72" d="M167.221 2.18777C168.248 2.7594 169.131 3.76626 168.891 4.06507C168.709 4.29242 167.897 3.72079 166.754 3.05172C165.805 2.49957 164.727 1.90196 164.811 1.62264C164.915 1.27186 166.13 1.57067 167.221 2.18777Z" fill="#AE9688"/>
<path id="Vector_129" opacity="0.73" d="M167.219 2.1942C168.233 2.75934 169.103 3.74021 168.869 4.03252C168.694 4.25338 167.901 3.68824 166.765 3.03216C165.823 2.48651 164.764 1.90189 164.842 1.62906C164.939 1.28478 166.141 1.59009 167.213 2.1942H167.219Z" fill="#B1998B"/>
<path id="Vector_130" opacity="0.75" d="M167.213 2.20069C168.207 2.75933 169.071 3.72072 168.844 4.00004C168.668 4.2144 167.902 3.66225 166.778 3.01267C165.849 2.47352 164.803 1.90189 164.881 1.63556C164.978 1.29777 166.161 1.60957 167.213 2.20069Z" fill="#B59C8E"/>
<path id="Vector_131" opacity="0.76" d="M167.213 2.20712C168.194 2.75276 169.045 3.69466 168.824 3.96748C168.655 4.17535 167.902 3.6362 166.791 2.99311C165.875 2.46045 164.842 1.90181 164.914 1.64198C165.005 1.31719 166.174 1.62899 167.207 2.20712H167.213Z" fill="#B89F91"/>
<path id="Vector_132" opacity="0.77" d="M167.207 2.21363C168.175 2.75279 169.013 3.6687 168.799 3.93503C168.637 4.1364 167.903 3.61024 166.805 2.96715C165.895 2.44099 164.875 1.89534 164.947 1.6485C165.038 1.3302 166.188 1.6485 167.207 2.21363Z" fill="#BBA293"/>
<path id="Vector_133" opacity="0.79" d="M167.208 2.22016C168.156 2.74632 168.987 3.64924 168.78 3.90258C168.624 4.09745 167.909 3.58428 166.818 2.94769C165.921 2.42802 164.915 1.89537 164.986 1.65502C165.077 1.34322 166.207 1.66152 167.208 2.22016Z" fill="#BFA596"/>
<path id="Vector_134" opacity="0.8" d="M167.199 2.22679C168.135 2.74646 168.953 3.62339 168.752 3.87023C168.602 4.05861 167.907 3.55843 166.829 2.92834C165.946 2.40867 164.952 1.8955 165.017 1.66165C165.101 1.35635 166.218 1.68114 167.199 2.22679Z" fill="#C2A899"/>
<path id="Vector_135" opacity="0.82" d="M167.2 2.23316C168.116 2.74633 168.928 3.59728 168.733 3.83763C168.59 4.01951 167.915 3.53233 166.843 2.90223C165.966 2.38906 164.985 1.88888 165.056 1.66153C165.141 1.36272 166.239 1.69401 167.2 2.22666V2.23316Z" fill="#C6AB9B"/>
<path id="Vector_136" opacity="0.83" d="M167.194 2.23976C168.097 2.73993 168.896 3.5714 168.707 3.80525C168.571 3.98064 167.915 3.50644 166.856 2.88284C165.992 2.37617 165.024 1.88898 165.089 1.66812C165.173 1.38231 166.252 1.71359 167.194 2.23326V2.23976Z" fill="#C9AE9E"/>
<path id="Vector_137" opacity="0.85" d="M167.194 2.24627C168.084 2.73996 168.87 3.55193 168.688 3.77279C168.551 3.93519 167.921 3.47398 166.869 2.86338C166.018 2.3632 165.063 1.889 165.122 1.67464C165.2 1.39532 166.265 1.7331 167.187 2.23978L167.194 2.24627Z" fill="#CDB1A1"/>
<path id="Vector_138" opacity="0.86" d="M167.188 2.25268C168.058 2.73337 168.837 3.52587 168.662 3.74023C168.532 3.89613 167.922 3.44792 166.882 2.8438C166.038 2.35012 165.102 1.88892 165.161 1.68105C165.239 1.40823 166.285 1.74601 167.188 2.25268Z" fill="#D0B4A3"/>
<path id="Vector_139" opacity="0.87" d="M167.186 2.25922C168.044 2.73342 168.81 3.49993 168.641 3.70779C168.518 3.8572 167.92 3.42198 166.894 2.81786C166.063 2.33068 165.134 1.88246 165.192 1.68759C165.27 1.42126 166.296 1.76554 167.18 2.25922H167.186Z" fill="#D3B7A6"/>
<path id="Vector_140" opacity="0.89" d="M167.181 2.26573C168.026 2.73343 168.779 3.48045 168.623 3.67532C168.506 3.81823 167.928 3.396 166.915 2.79838C166.09 2.31769 165.181 1.88247 165.233 1.69409C165.304 1.43426 166.317 1.78504 167.181 2.26573Z" fill="#D7B9A9"/>
<path id="Vector_141" opacity="0.9" d="M167.174 2.2722C167.999 2.7269 168.746 3.45444 168.596 3.64282C168.486 3.77923 167.927 3.36999 166.92 2.77887C166.108 2.30468 165.212 1.88245 165.264 1.70056C165.335 1.44723 166.329 1.8045 167.174 2.2722Z" fill="#DABCAB"/>
<path id="Vector_142" opacity="0.92" d="M167.174 2.2787C167.986 2.72691 168.72 3.42846 168.577 3.61034C168.473 3.74026 167.934 3.34401 166.94 2.75939C166.141 2.29169 165.251 1.88245 165.303 1.70707C165.374 1.46672 166.349 1.82399 167.174 2.2787Z" fill="#DEBFAE"/>
<path id="Vector_143" opacity="0.93" d="M167.168 2.28515C167.961 2.72037 168.688 3.40243 168.552 3.57782C168.454 3.70124 167.935 3.31799 166.947 2.73336C166.155 2.26566 165.284 1.87591 165.33 1.70702C165.395 1.47317 166.356 1.83044 167.168 2.27865V2.28515Z" fill="#E1C2B1"/>
<path id="Vector_144" opacity="0.94" d="M167.168 2.29153C167.947 2.72025 168.662 3.38283 168.532 3.54522C168.434 3.66215 167.941 3.29189 166.966 2.71376C166.187 2.25255 165.329 1.8758 165.375 1.7134C165.44 1.48605 166.382 1.84981 167.174 2.28503L167.168 2.29153Z" fill="#E4C5B3"/>
<path id="Vector_145" opacity="0.96" d="M167.16 2.2981C167.927 2.72033 168.628 3.35692 168.505 3.51282C168.414 3.62325 167.94 3.25949 166.972 2.69435C166.205 2.23964 165.361 1.87588 165.4 1.72647C165.465 1.50561 166.387 1.87588 167.16 2.2981Z" fill="#E8C8B6"/>
<path id="Vector_146" opacity="0.97" d="M167.162 2.30456C167.909 2.7138 168.604 3.3309 168.487 3.48031C168.403 3.58424 167.948 3.23346 166.993 2.67482C166.233 2.22661 165.402 1.87584 165.447 1.73293C165.506 1.51857 166.415 1.89532 167.168 2.30456H167.162Z" fill="#EBCBB9"/>
<path id="Vector_147" opacity="0.99" d="M167.156 2.31126C167.89 2.714 168.572 3.31162 168.462 3.44803C168.384 3.54547 167.942 3.20768 167.001 2.64904C166.253 2.20733 165.435 1.86954 165.474 1.73313C165.532 1.53176 166.422 1.90852 167.156 2.30476V2.31126Z" fill="#EFCEBB"/>
<path id="Vector_148" d="M167.154 2.3176C167.875 2.70735 168.544 3.28548 168.44 3.41539C168.369 3.50633 167.947 3.18154 167.018 2.6294C166.284 2.19418 165.478 1.86939 165.511 1.73947C165.569 1.54459 166.44 1.92785 167.154 2.3111V2.3176Z" fill="#F2D1BE"/>
</g>
</g>
<path id="Vector_149" d="M68.5571 36.479C68.5571 36.7908 68.5051 36.9987 68.2453 37.1026C66.8422 37.6223 65.543 37.8301 63.8281 37.8301C59.5668 37.8301 57.0205 35.7515 57.0205 30.6068V16.9396H53.7466C53.4867 16.8876 53.3828 16.7837 53.3828 16.4719V12.1067C53.3828 11.7949 53.4867 11.6909 53.7985 11.6909H57.0724C57.1244 9.87209 57.3323 6.5982 57.5921 5.29903C57.6441 5.0392 57.748 4.8833 58.0078 4.83133L63.2565 4.1038C63.5163 4.05184 63.6202 4.1038 63.6202 4.36364C63.4643 6.07853 63.3604 9.14456 63.3604 11.6909H68.4012C68.661 11.6909 68.7649 11.7949 68.7649 12.0547V16.5758C68.7649 16.8356 68.661 16.9396 68.4012 16.9396H63.3084V29.2556C63.3084 31.5422 64.036 32.6335 66.2705 32.6335C66.9461 32.6335 67.5177 32.5815 68.2453 32.4256C68.4012 32.3736 68.5571 32.4256 68.5571 32.7374V36.479Z" fill="#214D6D"/>
<path id="Vector_150" d="M72.7656 4.62341C72.7656 2.49278 74.2727 1.03772 76.3513 1.03772C78.5859 1.03772 79.8851 2.54475 79.8851 4.62341C79.8851 6.70208 78.482 8.20911 76.2994 8.20911C74.1168 8.20911 72.7656 6.75404 72.7656 4.62341ZM73.1294 12.0546C73.1294 11.7948 73.2853 11.6909 73.5451 11.6909H79.0536C79.3654 11.6909 79.4693 11.7428 79.4693 12.0546V36.8947C79.4693 37.2065 79.3654 37.3104 79.0016 37.3104H73.6491C73.2853 37.3104 73.1294 37.1545 73.1294 36.8427V12.0546Z" fill="#214D6D"/>
<path id="Vector_151" d="M103.844 36.5831C103.844 36.8429 103.792 36.9468 103.584 36.9988C101.921 37.6744 99.8423 37.8303 97.8156 37.8303C89.397 37.8303 84.4082 32.062 84.4082 24.5788C84.4082 17.0956 90.1245 11.1714 98.699 11.1714C101.297 11.1714 102.7 11.4312 103.584 11.743C103.792 11.847 103.844 12.0029 103.844 12.3147L103.792 16.9397C103.792 17.3034 103.584 17.3034 103.376 17.2515C102.285 16.8357 100.934 16.5759 98.9069 16.5759C94.1779 16.5759 90.8521 19.3821 90.8521 24.3709C90.8521 30.0353 94.9574 32.2179 98.9588 32.2179C100.83 32.2179 102.441 32.062 103.48 31.6982C103.74 31.5943 103.844 31.7502 103.844 31.958V36.5831Z" fill="#214D6D"/>
<path id="Vector_152" d="M130.138 31.5941C130.138 34.2964 130.346 35.8554 130.45 36.9467C130.502 37.2065 130.346 37.3105 130.034 37.3105H125.253C124.889 37.3105 124.785 37.2065 124.734 36.9986C124.578 36.479 124.422 35.6995 124.37 35.1798C122.135 37.2585 119.485 37.8301 117.146 37.8301C112.21 37.8301 108.416 35.1798 108.416 27.9045V12.0547C108.416 11.7429 108.52 11.6909 108.832 11.6909H114.288C114.6 11.6909 114.652 11.7949 114.652 12.0547V27.177C114.652 30.3989 116.055 32.3736 119.173 32.3736C121.148 32.3736 122.603 31.6981 123.902 30.5028V12.0547C123.902 11.7949 124.006 11.6909 124.318 11.6909H129.774C130.086 11.6909 130.138 11.7949 130.138 12.0547V31.5941Z" fill="#214D6D"/>
<path id="Vector_153" d="M136.736 0.726035C136.736 0.466203 136.892 0.310303 137.204 0.310303H142.557C142.868 0.310303 143.024 0.466203 143.024 0.726035V30.5549C143.024 32.1658 143.596 32.6855 144.843 32.6855C145.259 32.6855 145.363 32.6855 145.83 32.6335C145.986 32.5816 146.038 32.6855 146.038 32.9453V36.8428C146.038 37.2066 145.986 37.2586 145.727 37.4145C145.155 37.6743 144.22 37.8302 142.764 37.8302C139.439 37.8302 136.736 36.583 136.736 31.1265V0.726035Z" fill="#214D6D"/>
<path id="Vector_154" d="M31.0888 36.8428L19.0845 3.48026C19.0325 3.22042 18.9806 3.16846 18.7207 3.16846H11.4974C11.2895 3.16846 11.1856 3.32436 11.1856 3.53222C11.0816 5.29909 10.9257 5.81875 10.7179 6.33842L0.0127606 36.7908C-0.039206 37.1546 0.0647272 37.3105 0.376527 37.3105H5.57319C5.8655 37.3105 6.0149 37.2131 6.11884 36.9467H6.13183C8.80161 32.3217 9.94488 30.8796 13.4916 28.7945C16.1419 27.242 18.6688 26.4105 20.7344 25.9558L21.4295 28.3138L24.4436 36.9922C24.5475 37.2001 24.7034 37.304 24.9632 37.304H30.7835C31.0953 37.304 31.1472 37.1481 31.0953 36.8363L31.0888 36.8428ZM10.8543 24.3189C10.5685 24.4878 10.2957 24.6501 10.0293 24.819L10.6659 22.6559C12.2249 17.927 14.3036 11.8469 15.135 8.36512H15.187C16.0769 11.4831 17.9997 17.2319 19.2144 20.9735C16.785 21.5386 13.8748 22.5455 10.8543 24.3189Z" fill="#214D6D"/>
<g id="Group_4" opacity="0.6">
<g id="Group_5" style="mix-blend-mode:screen">
<path id="Vector_155" opacity="0.01" d="M15.1081 3.18789C17.9273 3.03849 21.5519 8.3066 19.6681 10.5801C19.038 11.3466 17.5505 11.4051 14.9457 11.561C12.6332 11.6974 11.1781 10.4827 10.4246 9.91107C9.12542 8.9302 11.9056 3.35678 15.1081 3.1814V3.18789Z" fill="#030303"/>
<path id="Vector_156" opacity="0.03" d="M15.1085 3.20742C17.8953 3.05802 21.4809 8.25468 19.6231 10.5022C18.9995 11.2622 17.525 11.3207 14.9526 11.4701C12.6661 11.6065 11.2175 10.4048 10.477 9.83966C9.19735 8.87178 11.9516 3.36982 15.1085 3.20093V3.20742Z" fill="#070605"/>
<path id="Vector_157" opacity="0.04" d="M15.1155 3.22695C17.8698 3.07755 21.4165 8.20275 19.5847 10.4178C18.9675 11.1648 17.506 11.2233 14.9596 11.3792C12.6926 11.5156 11.2635 10.3334 10.5295 9.77474C9.26928 8.81336 11.9975 3.39584 15.109 3.22695H15.1155Z" fill="#0A0908"/>
<path id="Vector_158" opacity="0.06" d="M15.1165 3.23979C17.8382 3.09688 21.3459 8.14414 19.5401 10.3332C18.936 11.0738 17.4809 11.1322 14.967 11.2816C12.726 11.4115 11.3034 10.2488 10.5824 9.69664C9.34166 8.74825 12.0374 3.40868 15.1165 3.24628V3.23979Z" fill="#0E0C0B"/>
<path id="Vector_159" opacity="0.07" d="M15.1156 3.25936C17.8049 3.11645 21.2737 8.09226 19.4938 10.2489C18.8962 10.9829 17.4541 11.0349 14.9662 11.1843C12.7512 11.3142 11.3416 10.1644 10.627 9.61877C9.4058 8.67688 12.0756 3.42176 15.1091 3.25936H15.1156Z" fill="#110F0D"/>
<path id="Vector_160" opacity="0.08" d="M15.1155 3.27883C17.7723 3.13593 21.1956 8.03378 19.4482 10.1644C18.8571 10.8854 17.428 10.9439 14.9726 11.0868C12.777 11.2167 11.3804 10.0865 10.6854 9.54081C9.48362 8.61191 12.1274 3.43473 15.1155 3.27234V3.27883Z" fill="#141210"/>
<path id="Vector_161" opacity="0.1" d="M15.1152 3.29839C17.7395 3.15549 21.1238 7.98188 19.4024 10.0865C18.8178 10.8011 17.4017 10.853 14.9723 10.9959C12.8027 11.1194 11.419 10.0086 10.7305 9.47592C9.54825 8.55352 12.1596 3.45429 15.1087 3.29839H15.1152Z" fill="#181513"/>
<path id="Vector_162" opacity="0.11" d="M15.1137 3.3177C17.7055 3.18128 21.0509 7.92973 19.3555 10.0019C18.7838 10.7034 17.3743 10.7619 14.9773 10.9048C12.8337 11.0282 11.4566 9.93045 10.781 9.40428C9.61824 8.49487 12.2036 3.4736 15.1137 3.3177Z" fill="#1B1815"/>
<path id="Vector_163" opacity="0.13" d="M15.1147 3.33739C17.6741 3.20098 20.9739 7.87798 19.311 9.92416C18.7459 10.6192 17.3493 10.6777 14.9848 10.8141C12.8671 10.9375 11.503 9.8592 10.834 9.33304C9.69069 8.43012 12.2435 3.49329 15.1147 3.34389V3.33739Z" fill="#1F1A18"/>
<path id="Vector_164" opacity="0.14" d="M15.1159 3.35685C17.6428 3.22043 20.9037 7.82597 19.2667 9.83968C18.7081 10.5282 17.3245 10.5802 14.986 10.7166C12.8878 10.8335 11.5367 9.77472 10.8806 9.25506C9.75683 8.35863 12.2837 3.50625 15.1094 3.35685H15.1159Z" fill="#221D1B"/>
<path id="Vector_165" opacity="0.15" d="M15.1216 3.37625C17.616 3.24633 20.838 7.76742 19.227 9.75515C18.6813 10.4307 17.3042 10.4892 14.9982 10.6191C12.926 10.736 11.5879 9.69668 10.9448 9.17702C9.84053 8.29359 12.3414 3.51915 15.1281 3.36975L15.1216 3.37625Z" fill="#25201D"/>
<path id="Vector_166" opacity="0.17" d="M15.1213 3.38926C17.5833 3.25934 20.7662 7.70898 19.1812 9.67072C18.6421 10.3398 17.2779 10.3918 14.9979 10.5217C12.9517 10.6386 11.6201 9.61226 10.99 9.10558C9.90519 8.22865 12.3736 3.53866 15.1213 3.38926Z" fill="#292320"/>
<path id="Vector_167" opacity="0.18" d="M15.1219 3.40884C17.5514 3.27892 20.6888 7.6571 19.1363 9.58636C18.6037 10.2424 17.2525 10.3009 15.005 10.4308C12.9783 10.5477 11.6596 9.5344 11.0425 9.03422C9.97722 8.17027 12.4197 3.55174 15.1219 3.40884Z" fill="#2C2623"/>
<path id="Vector_168" opacity="0.2" d="M15.1212 3.42838C17.5182 3.30496 20.6167 7.6052 19.0901 9.50847C18.5705 10.1581 17.2258 10.21 15.0043 10.3399C13.0036 10.4504 11.6979 9.463 11.0873 8.96283C10.0415 8.10538 12.4579 3.57129 15.1147 3.42838H15.1212Z" fill="#302925"/>
<path id="Vector_169" opacity="0.21" d="M15.1203 3.44771C17.4847 3.32429 20.5443 7.55307 19.0437 9.42387C18.5306 10.067 17.2054 10.1189 15.0098 10.2423C13.0351 10.3528 11.7359 9.3784 11.1383 8.88472C10.112 8.04026 12.4959 3.58413 15.1203 3.44771Z" fill="#332C28"/>
<path id="Vector_170" opacity="0.23" d="M15.1209 3.46717C17.4529 3.34375 20.4734 7.49458 18.9989 9.3394C18.4922 9.96949 17.1801 10.0215 15.0104 10.1449C13.0552 10.2553 11.7755 9.29393 11.1909 8.81323C10.184 7.97527 12.542 3.60358 15.1209 3.46717Z" fill="#372F2B"/>
<path id="Vector_171" opacity="0.24" d="M15.1215 3.48675C17.421 3.36333 20.4026 7.4427 18.954 9.26154C18.4604 9.88513 17.1547 9.9371 15.0176 10.054C13.0883 10.158 11.8151 9.22256 11.2435 8.74187C10.2561 7.9169 12.5881 3.62316 15.1215 3.48675Z" fill="#3A322D"/>
<path id="Vector_172" opacity="0.25" d="M15.1212 3.50617C17.3883 3.38925 20.3244 7.39067 18.9083 9.17702C18.4211 9.79413 17.1285 9.84609 15.0173 9.96302C13.114 10.067 11.8538 9.14455 11.2887 8.67035C10.3208 7.85188 12.6203 3.64258 15.1212 3.50617Z" fill="#3D3530"/>
<path id="Vector_173" opacity="0.27" d="M15.1278 3.51915C17.3623 3.40223 20.2595 7.3322 18.8694 9.09257C18.3887 9.69668 17.109 9.74865 15.0303 9.86557C13.153 9.96951 11.8993 9.06009 11.3472 8.59239C10.3988 7.78691 12.6723 3.64907 15.1278 3.51915Z" fill="#413833"/>
<path id="Vector_174" opacity="0.28" d="M15.1275 3.53861C17.3296 3.42168 20.1878 7.28021 18.8237 9.00809C18.356 9.60571 17.0828 9.65768 15.0301 9.76811C13.1723 9.86554 11.9381 8.98211 11.3924 8.51441C10.4635 7.71543 12.7046 3.66203 15.121 3.53861H15.1275Z" fill="#443B36"/>
<path id="Vector_175" opacity="0.3" d="M15.1276 3.55816C17.2972 3.44773 20.1164 7.2218 18.7783 8.92371C18.3171 9.51483 17.0569 9.5603 15.0367 9.67073C13.2048 9.76817 11.9771 8.89773 11.451 8.44302C10.5415 7.65702 12.7566 3.68158 15.1276 3.55816Z" fill="#483E38"/>
<path id="Vector_176" opacity="0.31" d="M15.127 3.57773C17.2641 3.4673 20.0443 7.16993 18.7322 8.84585C18.2774 9.42398 17.0303 9.47594 15.036 9.57988C13.2302 9.67731 12.0155 8.82636 11.4958 8.37165C10.6059 7.59215 12.795 3.70115 15.127 3.57773Z" fill="#4B413B"/>
<path id="Vector_177" opacity="0.32" d="M15.1281 3.59719C17.2328 3.48676 19.9675 7.11793 18.6878 8.76137C18.2461 9.333 17.0054 9.37847 15.0437 9.4889C13.2573 9.57984 12.0556 8.74838 11.5489 8.30017C10.6785 7.53366 12.8351 3.72061 15.1281 3.59719Z" fill="#4E443E"/>
<path id="Vector_178" opacity="0.34" d="M15.1289 3.61661C17.201 3.51268 19.8968 7.06589 18.6431 8.68336C18.2079 9.242 16.9802 9.29396 15.0509 9.3979C13.2905 9.48884 12.1018 8.67036 11.6016 8.22865C10.7507 7.46864 12.8813 3.73354 15.1289 3.61661Z" fill="#524740"/>
<path id="Vector_179" opacity="0.35" d="M15.1283 3.63607C17.168 3.53213 19.8248 7.01389 18.5971 8.59888C18.1683 9.15102 16.9536 9.19649 15.0503 9.30042C13.316 9.39137 12.1337 8.59238 11.6465 8.15716C10.8151 7.41014 12.9197 3.75299 15.1283 3.63607Z" fill="#554A43"/>
<path id="Vector_180" opacity="0.37" d="M15.1269 3.64917C17.1341 3.54524 19.7519 6.95555 18.5502 8.50805C18.1344 9.0537 16.9262 9.09917 15.0554 9.19661C13.347 9.28105 12.1713 8.50155 11.7036 8.07283C10.8916 7.33231 12.9638 3.7596 15.1334 3.64917H15.1269Z" fill="#594D46"/>
<path id="Vector_181" opacity="0.38" d="M15.1342 3.66864C17.1089 3.5647 19.6813 6.89706 18.512 8.43008C18.1028 8.96273 16.9076 9.0082 15.0627 9.10564C13.3738 9.19009 12.2176 8.42358 11.7564 8.00135C10.9639 7.27382 13.0101 3.77906 15.1342 3.66864Z" fill="#5C4F48"/>
<path id="Vector_182" opacity="0.39" d="M15.1354 3.68818C17.0777 3.59074 19.611 6.84515 18.4678 8.34568C18.065 8.87184 16.8828 8.91731 15.0704 9.01475C13.4075 9.0992 12.2578 8.35218 11.8095 7.92995C11.0365 7.20891 13.0502 3.7986 15.1354 3.68818Z" fill="#5F524B"/>
<path id="Vector_183" opacity="0.41" d="M15.133 3.70751C17.0427 3.61007 19.5371 6.79303 18.4199 8.26758C18.0236 8.78724 16.8544 8.83272 15.068 8.92366C13.4311 9.00161 12.2943 8.27407 11.8526 7.85834C11.0991 7.1503 13.0868 3.81794 15.133 3.70751Z" fill="#63554E"/>
<path id="Vector_184" opacity="0.42" d="M15.1332 3.72709C17.0105 3.62965 19.4659 6.74115 18.3746 8.18323C17.9914 8.6899 16.8286 8.73537 15.0748 8.82631C13.4573 8.90426 12.3335 8.18972 11.9113 7.78698C11.1773 7.08543 13.139 3.83102 15.1397 3.72709H15.1332Z" fill="#665850"/>
<path id="Vector_185" opacity="0.44" d="M15.1351 3.74663C16.9799 3.65569 19.3964 6.68924 18.3311 8.09883C17.9543 8.59901 16.8046 8.64448 15.0767 8.72893C13.4852 8.80688 12.3744 8.11182 11.9587 7.70908C11.2441 7.02052 13.1734 3.84407 15.1351 3.74663Z" fill="#6A5B53"/>
<path id="Vector_186" opacity="0.45" d="M15.1361 3.76609C16.9484 3.67514 19.3194 6.63724 18.2865 8.02085C17.9163 8.51453 16.7795 8.55351 15.0841 8.63795C13.5186 8.7159 12.4143 8.03384 12.0116 7.6376C11.3165 6.95554 13.2198 3.86352 15.1425 3.76609H15.1361Z" fill="#6D5E56"/>
<path id="Vector_187" opacity="0.46" d="M15.1338 3.78543C16.9136 3.69448 19.2456 6.57863 18.2388 7.93626C17.8815 8.41695 16.7512 8.46242 15.0818 8.54687C13.5358 8.61832 12.451 7.95575 12.0547 7.566C11.3792 6.89693 13.2565 3.88286 15.1338 3.78543Z" fill="#706158"/>
<path id="Vector_188" opacity="0.48" d="M15.1351 3.79866C16.8825 3.70772 19.1755 6.52041 18.1946 7.85206C17.8439 8.32625 16.7266 8.36523 15.0896 8.44967C13.5696 8.52113 12.4913 7.87804 12.108 7.49479C11.452 6.83221 13.2968 3.9026 15.1351 3.80516V3.79866Z" fill="#74645B"/>
<path id="Vector_189" opacity="0.49" d="M15.14 3.81795C16.8549 3.73351 19.109 6.46825 18.1541 7.76741C17.8098 8.22862 16.7055 8.27409 15.0946 8.35204C13.6005 8.42349 12.5352 7.7934 12.165 7.41664C11.5284 6.76706 13.3472 3.91539 15.14 3.81795Z" fill="#77675E"/>
<path id="Vector_190" opacity="0.51" d="M15.1411 3.83743C16.8235 3.75298 19.0386 6.41627 18.1097 7.68296C17.7784 8.13766 16.6806 8.17664 15.1021 8.25459C13.6341 8.31955 12.5753 7.71544 12.218 7.33868C11.6009 6.69559 13.3937 3.92187 15.1476 3.83093L15.1411 3.83743Z" fill="#7B6A60"/>
<path id="Vector_191" opacity="0.52" d="M15.1412 3.85687C16.7912 3.77243 18.9608 6.36426 18.0643 7.60496C17.7395 8.05318 16.6547 8.09215 15.1022 8.16361C13.6537 8.22856 12.6143 7.63744 12.2636 7.26718C11.6659 6.63709 13.4263 3.94132 15.1412 3.85687Z" fill="#7E6D63"/>
<path id="Vector_192" opacity="0.54" d="M15.1404 3.87641C16.7579 3.79846 18.8885 6.31234 18.0181 7.52056C17.6998 7.95578 16.628 8.00125 15.1079 8.07271C13.6853 8.13767 12.6525 7.55954 12.3147 7.20227C11.7366 6.57867 13.471 3.96735 15.1404 3.8829V3.87641Z" fill="#827066"/>
<path id="Vector_193" opacity="0.55" d="M15.1419 3.89599C16.7269 3.81804 18.8185 6.25398 17.9741 7.44271C17.6688 7.87144 16.6035 7.91041 15.1159 7.98187C13.7193 8.04033 12.693 7.48818 12.3682 7.13091C11.8095 6.52031 13.5115 3.98693 15.1419 3.90249V3.89599Z" fill="#857368"/>
<path id="Vector_194" opacity="0.56" d="M15.1412 3.91546C16.6937 3.83751 18.7464 6.20199 17.9279 7.35824C17.6291 7.78047 16.5768 7.81945 15.1152 7.8844C13.7381 7.94287 12.7312 7.40371 12.4194 7.05294C11.8803 6.44883 13.5562 3.9999 15.1477 3.91546H15.1412Z" fill="#88766B"/>
<path id="Vector_195" opacity="0.58" d="M15.1425 3.92849C16.669 3.85704 18.6762 6.14357 17.8837 7.26735C17.5914 7.67658 16.5521 7.71556 15.123 7.78052C13.7718 7.83898 12.7715 7.31282 12.4727 6.96854C11.953 6.37742 13.603 3.99995 15.149 3.922L15.1425 3.92849Z" fill="#8C796E"/>
<path id="Vector_196" opacity="0.59" d="M15.1467 3.94798C16.6407 3.87652 18.6024 6.0916 17.8424 7.18939C17.5631 7.59213 16.5303 7.63111 15.1272 7.68957C13.802 7.74154 12.8147 7.24136 12.5224 6.89708C12.0222 6.31246 13.6396 4.01943 15.1467 3.94798Z" fill="#8F7C70"/>
<path id="Vector_197" opacity="0.61" d="M15.148 3.96732C16.6096 3.89586 18.5324 6.03949 17.7983 7.1048C17.5255 7.50105 16.5057 7.53353 15.1351 7.59849C13.8294 7.65045 12.855 7.16326 12.5757 6.83198C12.095 6.26035 13.6865 4.04527 15.1545 3.97381L15.148 3.96732Z" fill="#937F73"/>
<path id="Vector_198" opacity="0.62" d="M15.1482 3.98691C16.5773 3.91545 18.4611 5.98762 17.753 7.02695C17.4867 7.41021 16.4798 7.44918 15.1352 7.50765C13.8555 7.55961 12.8941 7.08542 12.6213 6.76063C12.1601 6.19549 13.7256 4.06486 15.1482 3.9934V3.98691Z" fill="#968276"/>
<path id="Vector_199" opacity="0.63" d="M15.148 4.00643C16.5446 3.94147 18.3894 5.93569 17.7009 6.94254C17.4475 7.3193 16.4472 7.35178 15.135 7.41024C13.8813 7.45571 12.9264 7.0075 12.6731 6.68271C12.2314 6.13057 13.7644 4.07789 15.148 4.00643Z" fill="#998478"/>
<path id="Vector_200" opacity="0.65" d="M15.1463 4.0259C16.5104 3.96095 18.3163 5.87721 17.6537 6.85808C17.4069 7.22835 16.4195 7.26083 15.1333 7.31279C13.9056 7.35826 12.9637 6.92304 12.7169 6.60475C12.2946 6.0591 13.8017 4.09086 15.1398 4.01941L15.1463 4.0259Z" fill="#9D877B"/>
<path id="Vector_201" opacity="0.66" d="M15.1482 4.04525C16.4798 3.98029 18.2467 5.82511 17.6101 6.77999C17.3697 7.13726 16.3954 7.17624 15.1417 7.22171C13.9335 7.26718 13.0046 6.85145 12.7707 6.53965C12.368 6.00699 13.8425 4.11021 15.1482 4.04525Z" fill="#A08A7E"/>
<path id="Vector_202" opacity="0.68" d="M15.1486 4.0583C16.4477 3.99984 18.1691 5.7667 17.565 6.68911C17.3377 7.03988 16.3698 7.07236 15.1421 7.12433C13.9598 7.1633 13.0439 6.76706 12.8166 6.46176C12.4333 5.93559 13.8819 4.12326 15.1421 4.0648L15.1486 4.0583Z" fill="#A48D80"/>
<path id="Vector_203" opacity="0.69" d="M15.1465 4.07777C16.4132 4.01931 18.0956 5.71472 17.5175 6.61114C17.2966 6.95542 16.3417 6.9879 15.1465 7.03337C13.9902 7.07234 13.0808 6.68909 12.8665 6.39028C12.5027 5.87062 13.9253 4.14273 15.14 4.08426L15.1465 4.07777Z" fill="#A79083"/>
<path id="Vector_204" opacity="0.7" d="M15.1544 4.09736C16.3887 4.0389 18.0321 5.66286 17.48 6.5268C17.2656 6.85809 16.3237 6.89057 15.1544 6.93604C14.0177 6.97501 13.1277 6.61125 12.9264 6.31244C12.5821 5.80576 13.9722 4.15582 15.1544 4.09736Z" fill="#AA9386"/>
<path id="Vector_205" opacity="0.72" d="M15.1545 4.11685C16.3562 4.05838 17.9607 5.61089 17.4345 6.44235C17.2332 6.76714 16.2978 6.79962 15.161 6.8386C14.0502 6.87757 13.1668 6.5268 12.9784 6.23449C12.6536 5.73431 14.0177 4.16881 15.1545 4.11035V4.11685Z" fill="#AE9688"/>
<path id="Vector_206" opacity="0.73" d="M15.1533 4.13623C16.3226 4.08426 17.8881 5.55881 17.3879 6.36429C17.193 6.68259 16.2706 6.71507 15.1598 6.74755C14.049 6.78003 13.1981 6.44874 13.0227 6.16942C12.7174 5.68223 14.0555 4.19469 15.1468 4.13623H15.1533Z" fill="#B1998B"/>
<path id="Vector_207" opacity="0.75" d="M15.1538 4.15579C16.2905 4.10382 17.8171 5.50692 17.3429 6.27992C17.1545 6.58523 16.2451 6.61771 15.1668 6.65018C14.0885 6.68266 13.244 6.37086 13.0751 6.09154C12.7893 5.61085 14.095 4.20126 15.1473 4.14929L15.1538 4.15579Z" fill="#B59C8E"/>
<path id="Vector_208" opacity="0.76" d="M15.1542 4.17531C16.2585 4.12334 17.746 5.45498 17.2978 6.202C17.1224 6.50081 16.226 6.53329 15.1736 6.56577C14.1213 6.59825 13.2834 6.29944 13.1275 6.02662C12.8611 5.55892 14.1408 4.22727 15.1542 4.1818V4.17531Z" fill="#B89F91"/>
<path id="Vector_209" opacity="0.77" d="M15.1547 4.19481C16.2265 4.14934 17.6686 5.40303 17.2528 6.11757C17.084 6.40988 16.2005 6.43587 15.1742 6.46835C14.1478 6.50082 13.3229 6.21501 13.18 5.94868C12.9331 5.48748 14.1868 4.24028 15.1547 4.19481Z" fill="#BBA293"/>
<path id="Vector_210" opacity="0.79" d="M15.1536 4.2077C16.1929 4.16222 17.596 5.34446 17.2062 6.02653C17.0438 6.30585 16.1734 6.33833 15.1795 6.36431C14.1857 6.39029 13.3607 6.13046 13.2308 5.87063C13.0034 5.42241 14.2247 4.25317 15.1536 4.2077Z" fill="#BFA596"/>
<path id="Vector_211" opacity="0.8" d="M15.155 4.22731C16.1619 4.18184 17.526 5.29262 17.1623 5.9487C17.0128 6.22152 16.1489 6.24751 15.181 6.27349C14.2131 6.29947 13.4012 6.05263 13.2777 5.7993C13.0699 5.35758 14.2651 4.27278 15.155 4.22731Z" fill="#C2A899"/>
<path id="Vector_212" opacity="0.82" d="M15.1601 4.24661C16.1345 4.20763 17.4596 5.24047 17.1218 5.86407C16.9789 6.1304 16.128 6.15638 15.1926 6.17587C14.2572 6.19536 13.4452 5.968 13.3348 5.72116C13.1464 5.29244 14.3091 4.27909 15.1601 4.24011V4.24661Z" fill="#C6AB9B"/>
<path id="Vector_213" opacity="0.83" d="M15.1613 4.26629C16.1032 4.22731 17.3894 5.18869 17.0776 5.78631C16.9412 6.03965 16.1032 6.06563 15.1938 6.09161C14.2844 6.1176 13.4854 5.90323 13.388 5.65639C13.2191 5.23416 14.3558 4.30526 15.1613 4.27278V4.26629Z" fill="#C9AE9E"/>
<path id="Vector_214" opacity="0.85" d="M15.1608 4.28578C16.0702 4.24681 17.3174 5.13674 17.0316 5.70187C16.9082 5.94872 16.0767 5.9747 15.1998 5.99419C14.3229 6.01367 13.5239 5.8188 13.4394 5.57845C13.29 5.16922 14.4008 4.31826 15.1608 4.28578Z" fill="#CDB1A1"/>
<path id="Vector_215" opacity="0.86" d="M15.1613 4.30518C16.0382 4.2662 17.2464 5.08467 16.9866 5.61733C16.8697 5.85768 16.0512 5.87716 15.2002 5.89665C14.3493 5.91614 13.5633 5.74075 13.4853 5.5069C13.3554 5.10416 14.4337 4.33765 15.1613 4.30518Z" fill="#D0B4A3"/>
<path id="Vector_216" opacity="0.87" d="M15.1613 4.32476C16.0057 4.29228 17.175 5.03281 16.9411 5.53948C16.8372 5.77333 16.0252 5.79282 15.2068 5.80581C14.3623 5.8188 13.6023 5.6629 13.5373 5.43555C13.4269 5.0458 14.4792 4.35724 15.1613 4.32476Z" fill="#D3B7A6"/>
<path id="Vector_217" opacity="0.89" d="M15.1603 4.33779C15.9723 4.30532 17.1026 4.97439 16.8947 5.44858C16.7973 5.66944 15.9983 5.68893 15.2058 5.70192C14.3808 5.71491 13.6403 5.572 13.5818 5.35114C13.4909 4.96789 14.5172 4.35728 15.1538 4.3313L15.1603 4.33779Z" fill="#D7B9A9"/>
<path id="Vector_218" opacity="0.9" d="M15.1604 4.3571C15.9399 4.32463 17.0312 4.92224 16.8493 5.37045C16.7584 5.58481 15.9724 5.6043 15.2124 5.61729C14.4134 5.62379 13.6793 5.50687 13.6404 5.28601C13.5689 4.91575 14.5628 4.38309 15.1669 4.3571H15.1604Z" fill="#DABCAB"/>
<path id="Vector_219" opacity="0.92" d="M15.1602 4.37679C15.9072 4.35081 16.966 4.87047 16.8036 5.28621C16.7257 5.49407 15.9462 5.50706 15.2121 5.52006C14.4391 5.52655 13.7116 5.42262 13.6856 5.21475C13.6336 4.85099 14.6015 4.40277 15.1602 4.38329V4.37679Z" fill="#DEBFAE"/>
<path id="Vector_220" opacity="0.93" d="M15.1676 4.39622C15.8821 4.37024 16.9019 4.81845 16.7655 5.2017C16.6941 5.39658 15.9276 5.41607 15.226 5.42256C14.479 5.42256 13.7645 5.33812 13.745 5.13674C13.7125 4.78597 14.6479 4.41571 15.1676 4.39622Z" fill="#E1C2B1"/>
<path id="Vector_221" opacity="0.94" d="M15.1663 4.41558C15.8484 4.3896 16.8292 4.76635 16.7188 5.12362C16.6604 5.312 15.9003 5.33149 15.2248 5.33149C14.4972 5.33149 13.7957 5.26653 13.7892 5.06516C13.7762 4.72088 14.6856 4.43507 15.1598 4.41558H15.1663Z" fill="#E4C5B3"/>
<path id="Vector_222" opacity="0.96" d="M15.1669 4.43508C15.8165 4.4156 16.7584 4.7209 16.674 5.0392C16.622 5.22108 15.875 5.23407 15.2319 5.23407C14.5304 5.23407 13.8418 5.1821 13.8418 4.98723C13.8418 4.65594 14.7317 4.44808 15.1669 4.42859V4.43508Z" fill="#E8C8B6"/>
<path id="Vector_223" opacity="0.97" d="M15.1675 4.4545C15.7846 4.43502 16.694 4.66887 16.629 4.96118C16.5901 5.13657 15.8495 5.14956 15.2389 5.14956C14.5634 5.14956 13.8813 5.11058 13.9008 4.9222C13.9268 4.59741 14.7777 4.47399 15.174 4.4545H15.1675Z" fill="#EBCBB9"/>
<path id="Vector_224" opacity="0.99" d="M15.1673 4.46752C15.7519 4.44803 16.6288 4.61043 16.5834 4.87026C16.5574 5.03915 15.8233 5.04565 15.2387 5.04565C14.5826 5.04565 13.9201 5.02616 13.9461 4.84428C13.9915 4.53248 14.8165 4.48051 15.1673 4.47402V4.46752Z" fill="#EFCEBB"/>
<path id="Vector_225" d="M15.167 4.48706C15.7191 4.46757 16.5571 4.55851 16.5376 4.78587C16.5246 4.94177 15.7971 4.95476 15.2449 4.94826C14.6149 4.94826 13.9588 4.94826 13.9977 4.76638C14.0627 4.46108 14.8617 4.49355 15.167 4.48706Z" fill="#F2D1BE"/>
</g>
</g>
<g id="Group_6" opacity="0.6">
<g id="Group_7" style="mix-blend-mode:screen">
<path id="Vector_226" opacity="0.01" d="M6.96174 22.1624C10.0927 21.227 9.91734 23.9292 9.76144 25.5207C9.65101 26.677 5.34428 36.5831 2.38868 37.2327C-0.235634 37.8043 1.7326 32.8025 2.81091 30.7563C3.37604 29.678 4.6947 22.8379 6.96174 22.1624Z" fill="#030303"/>
<path id="Vector_227" opacity="0.03" d="M6.94829 22.2273C10.0338 21.3049 9.84542 24.0007 9.68952 25.5857C9.5726 26.7354 5.30484 36.5701 2.38172 37.2067C-0.216608 37.7718 1.76462 32.7635 2.82993 30.7433C3.38857 29.6715 4.70723 22.8964 6.94179 22.2273H6.94829Z" fill="#070605"/>
<path id="Vector_228" opacity="0.04" d="M6.92846 22.2924C9.97501 21.3829 9.77364 24.0787 9.61774 25.6442C9.50081 26.7875 5.26553 36.5507 2.37489 37.1808C-0.197455 37.7329 1.79676 32.7246 2.84909 30.7304C3.40773 29.6716 4.71988 22.9549 6.92846 22.2988V22.2924Z" fill="#0A0908"/>
<path id="Vector_229" opacity="0.06" d="M6.91659 22.3572C9.91766 21.4672 9.70979 24.1565 9.54739 25.7025C9.43047 26.8328 5.22767 36.531 2.376 37.1481C-0.170359 37.6873 1.83685 32.679 2.87618 30.7043C3.42833 29.652 4.74048 22.9937 6.91659 22.3572Z" fill="#0E0C0B"/>
<path id="Vector_230" opacity="0.07" d="M6.89571 22.4287C9.85781 21.5518 9.63695 24.2346 9.46806 25.7676C9.34464 26.8913 5.18081 36.5182 2.36162 37.1223C-0.158756 37.6484 1.86145 32.6466 2.88779 30.6914C3.43993 29.6456 4.75209 23.0523 6.89571 22.4222V22.4287Z" fill="#110F0D"/>
<path id="Vector_231" opacity="0.08" d="M6.87794 22.4938C9.79457 21.6298 9.56072 24.3126 9.39183 25.8326C9.26841 26.9499 5.13706 36.5117 2.35035 37.0964C-0.137546 37.616 1.88915 32.6078 2.9025 30.6785C3.44815 29.6392 4.76031 23.1109 6.87794 22.4938Z" fill="#141210"/>
<path id="Vector_232" opacity="0.1" d="M6.86256 22.5586C9.74021 21.7141 9.49337 24.3839 9.32448 25.8909C9.19456 27.0017 5.10219 36.4921 2.34796 37.0637C-0.113957 37.5704 1.92573 32.5621 2.92609 30.6589C3.46524 29.626 4.7774 23.1692 6.86256 22.5586Z" fill="#181513"/>
<path id="Vector_233" opacity="0.11" d="M6.84404 22.6235C9.67622 21.7985 9.42288 24.4618 9.24749 25.9494C9.11758 27.0537 5.05769 36.4791 2.33594 37.0378C-0.0999968 37.5379 1.95268 32.5232 2.94005 30.6459C3.4792 29.6195 4.78486 23.2276 6.84404 22.6235Z" fill="#1B1815"/>
<path id="Vector_234" opacity="0.13" d="M6.82502 22.6884C9.61823 21.8764 9.3519 24.5332 9.17002 26.0078C9.0401 27.1056 5.01269 36.4596 2.32991 37.0052C-0.0800372 37.4924 1.98564 32.4776 2.96001 30.6263C3.49267 29.6065 4.79833 23.2795 6.82502 22.6884Z" fill="#1F1A18"/>
<path id="Vector_235" opacity="0.14" d="M6.81265 22.7534C9.56038 21.9609 9.28106 24.6112 9.09918 26.0663C8.96276 27.1576 4.98082 36.4401 2.32403 36.9727C-0.0599361 37.4534 2.01873 32.4322 2.98011 30.6068C3.50627 29.5935 4.81193 23.3315 6.81265 22.7534Z" fill="#221D1B"/>
<path id="Vector_236" opacity="0.15" d="M6.79298 22.825C9.50174 22.0455 9.20943 24.6893 9.02755 26.1378C8.89113 27.2226 4.94167 36.4337 2.31736 36.9534C-0.0341293 37.4211 2.05103 32.3998 2.99942 30.6005C3.52558 29.5936 4.82475 23.3901 6.79948 22.825H6.79298Z" fill="#25201D"/>
<path id="Vector_237" opacity="0.17" d="M6.77308 22.89C9.43637 22.1299 9.13756 24.7673 8.94918 26.1963C8.80627 27.2746 4.89579 36.4143 2.30395 36.9274C-0.0215519 37.3886 2.0766 32.3609 3.012 30.581C3.53166 29.5807 4.83733 23.4421 6.77308 22.89Z" fill="#292320"/>
<path id="Vector_238" opacity="0.18" d="M6.76114 22.9548C9.38545 22.2078 9.06716 24.8386 8.87878 26.2547C8.73587 27.32 4.85786 36.3947 2.29851 36.8948C-0.00101408 37.343 2.11013 32.3153 3.03254 30.5614C3.5522 29.574 4.85137 23.4939 6.76114 22.9548Z" fill="#2C2623"/>
<path id="Vector_239" opacity="0.2" d="M6.74153 23.0198C9.32038 22.2858 8.99559 24.9166 8.80071 26.3132C8.6578 27.372 4.81228 36.3752 2.2854 36.8624C0.011861 37.2976 2.136 32.2698 3.04541 30.542C3.55858 29.5611 4.85775 23.546 6.73504 23.0133L6.74153 23.0198Z" fill="#302925"/>
<path id="Vector_240" opacity="0.21" d="M6.72276 23.0848C9.26263 22.3702 8.92485 24.988 8.72997 26.3781C8.58057 27.4305 4.77402 36.3687 2.28612 36.8364C0.0385599 37.2651 2.17569 32.2309 3.07211 30.529C3.57878 29.5546 4.87795 23.6044 6.72926 23.0848H6.72276Z" fill="#332C28"/>
<path id="Vector_241" opacity="0.23" d="M6.70839 23.1562C9.20279 22.4547 8.85202 25.0725 8.65714 26.4431C8.50774 27.4889 4.73366 36.3557 2.27824 36.8169C0.0631654 37.2327 2.20679 32.1984 3.09022 30.5225C3.59689 29.5546 4.88956 23.6694 6.71489 23.1627L6.70839 23.1562Z" fill="#372F2B"/>
<path id="Vector_242" opacity="0.24" d="M6.68925 23.2211C9.14467 22.539 8.78091 25.1439 8.57954 26.5015C8.42364 27.5408 4.68854 36.3362 2.2656 36.7844C0.0765041 37.1871 2.23312 32.1594 3.10356 30.5029C3.60374 29.5415 4.89641 23.7213 6.68925 23.2211Z" fill="#3A322D"/>
<path id="Vector_243" opacity="0.25" d="M6.67549 23.2862C9.08545 22.6172 8.71518 25.222 8.50732 26.5601C8.35142 27.593 4.6488 36.3168 2.25833 36.7521C0.0952253 37.1483 2.25833 32.114 3.12228 30.4836C3.61596 29.5287 4.90863 23.7734 6.67549 23.2862Z" fill="#3D3530"/>
<path id="Vector_244" opacity="0.27" d="M6.65667 23.3511C9.02765 22.7015 8.64439 25.2934 8.43653 26.625C8.27413 27.6514 4.61049 36.3038 2.2525 36.726C0.115377 37.1093 2.29797 32.075 3.14243 30.4641C3.63611 29.5157 4.92229 23.8253 6.65667 23.3511Z" fill="#413833"/>
<path id="Vector_245" opacity="0.28" d="M6.63757 23.416C8.96307 22.7794 8.56682 25.3712 8.35896 26.6834C8.19656 27.7032 4.5654 36.2842 2.24639 36.6935C0.135245 37.0637 2.33083 32.0295 3.1558 30.4445C3.64299 29.5026 4.92916 23.8772 6.63757 23.4095V23.416Z" fill="#443B36"/>
<path id="Vector_246" opacity="0.3" d="M6.62297 23.4873C8.9095 22.8637 8.50026 25.4491 8.2859 26.7483C8.12351 27.7616 4.52482 36.2711 2.23829 36.6739C0.15313 37.0376 2.36171 31.9969 3.17369 30.4379C3.66087 29.5025 4.94055 23.9421 6.62297 23.4873Z" fill="#483E38"/>
<path id="Vector_247" opacity="0.31" d="M6.60372 23.5525C8.84478 22.9484 8.42905 25.5273 8.20819 26.807C8.0393 27.8138 4.47959 36.2584 2.22554 36.6416C0.172858 36.9924 2.38793 31.9517 3.18692 30.4186C3.66761 29.4962 4.95379 23.9943 6.59723 23.5525H6.60372Z" fill="#4B413B"/>
<path id="Vector_248" opacity="0.32" d="M6.58493 23.6175C8.78701 23.0264 8.35179 25.5988 8.13743 26.8719C7.96854 27.8658 4.44131 36.2454 2.21973 36.6157C0.193037 36.96 2.4211 31.9127 3.2071 30.4057C3.68129 29.4898 4.96747 24.0528 6.58493 23.6175Z" fill="#4E443E"/>
<path id="Vector_249" opacity="0.34" d="M6.57085 23.6824C8.72746 23.1108 8.28574 25.6767 8.06488 26.9303C7.8895 27.9177 4.40124 36.2259 2.21215 36.5831C0.211433 36.9144 2.45249 31.8672 3.2255 30.3861C3.69969 29.4767 4.97937 24.1047 6.56435 23.6824H6.57085Z" fill="#524740"/>
<path id="Vector_250" opacity="0.35" d="M6.55239 23.7473C8.67003 23.1886 8.21532 25.7545 7.98797 26.9887C7.81258 27.9696 4.3568 36.2063 2.20669 36.557C0.231956 36.8753 2.48601 31.8281 3.24602 30.373C3.71372 29.4701 4.9934 24.163 6.55239 23.7473Z" fill="#554A43"/>
<path id="Vector_251" opacity="0.37" d="M6.5328 23.8189C8.60497 23.2797 8.13727 25.8326 7.90991 27.0538C7.72803 28.0282 4.31123 36.1934 2.19359 36.5312C0.244843 36.843 2.51188 31.7892 3.2589 30.3602C3.7266 29.4637 4.99979 24.2216 6.5328 23.8189Z" fill="#594D46"/>
<path id="Vector_252" opacity="0.38" d="M6.51861 23.8837C8.5518 23.3576 8.07111 25.9104 7.84376 27.1186C7.66187 28.0865 4.27755 36.1803 2.19239 36.5051C0.269625 36.8039 2.54966 31.7567 3.28369 30.3406C3.74489 29.4506 5.01807 24.2735 6.51861 23.8837Z" fill="#5C4F48"/>
<path id="Vector_253" opacity="0.39" d="M6.50045 23.9488C8.48817 23.4356 8.00099 25.982 7.76714 27.1772C7.57876 28.1386 4.23341 36.1609 2.18073 36.4727C0.290442 36.7585 2.57697 31.7113 3.29801 30.3212C3.75921 29.4377 5.0259 24.3255 6.50045 23.9423V23.9488Z" fill="#5F524B"/>
<path id="Vector_254" opacity="0.41" d="M6.4814 24.0137C8.43015 23.52 7.92348 26.0599 7.68963 27.2356C7.50125 28.1905 4.18838 36.1414 2.16818 36.4467C0.303876 36.726 2.6034 31.6722 3.31144 30.3081C3.76615 29.4312 5.03284 24.3839 6.47491 24.0137H6.4814Z" fill="#63554E"/>
<path id="Vector_255" opacity="0.42" d="M6.4684 24.0786C8.37168 23.5979 7.85851 26.1313 7.61817 27.294C7.42329 28.2424 4.14939 36.1284 2.16167 36.4142C0.323354 36.6805 2.63587 31.6268 3.33092 30.2886C3.77913 29.4182 5.04582 24.4294 6.46191 24.0786H6.4684Z" fill="#665850"/>
<path id="Vector_256" opacity="0.44" d="M6.44846 24.1499C8.31276 23.6887 7.7801 26.2156 7.54625 27.3654C7.35138 28.3073 4.10996 36.1218 2.16121 36.3946C0.348879 36.6479 2.67438 31.5942 3.35645 30.282C3.80466 29.4246 5.07134 24.4942 6.45495 24.1499H6.44846Z" fill="#6A5B53"/>
<path id="Vector_257" opacity="0.45" d="M6.42802 24.2149C8.24685 23.7667 7.7077 26.2871 7.46735 27.4238C7.27248 28.3592 4.06354 36.1023 2.14727 36.3621C0.36092 36.6089 2.69942 31.5487 3.36849 30.2625C3.8102 29.4116 5.07689 24.5462 6.42802 24.2149Z" fill="#6D5E56"/>
<path id="Vector_258" opacity="0.46" d="M6.41559 24.2801C8.19544 23.8448 7.6433 26.3652 7.39646 27.4825C7.19509 28.4049 4.02512 36.083 2.14133 36.3363C0.380966 36.5702 2.73245 31.5099 3.38853 30.2497C3.82375 29.4053 5.09044 24.6049 6.41559 24.2866V24.2801Z" fill="#706158"/>
<path id="Vector_259" opacity="0.48" d="M6.39685 24.345C8.13124 23.9293 7.5661 26.4366 7.32575 27.5409C7.12438 28.4568 3.9869 36.0635 2.13559 36.3038C0.401205 36.5247 2.76568 31.4644 3.40877 30.2302C3.84399 29.3922 5.10418 24.6568 6.39685 24.345Z" fill="#74645B"/>
<path id="Vector_260" opacity="0.49" d="M6.38205 24.4099C8.07746 24.0072 7.49933 26.5146 7.25249 27.6059C7.04462 28.5153 3.94611 36.0505 2.12728 36.2778C0.425375 36.4922 2.79635 31.4254 3.42645 30.2107C3.85517 29.3792 5.11536 24.7087 6.38205 24.4099Z" fill="#77675E"/>
<path id="Vector_261" opacity="0.51" d="M6.36372 24.4814C8.01365 24.0982 7.42903 26.5926 7.17569 27.6709C6.96783 28.5738 3.9018 36.0375 2.12194 36.2519C0.446019 36.4532 2.82999 31.3865 3.44709 30.1978C3.87581 29.3728 5.12951 24.7672 6.37021 24.4814H6.36372Z" fill="#7B6A60"/>
<path id="Vector_262" opacity="0.52" d="M6.34427 24.5462C7.95523 24.1759 7.35112 26.6703 7.09778 27.7291C6.88342 28.6256 3.85637 36.0178 2.10899 36.2192C0.459051 36.4076 2.85601 31.3408 3.46012 30.1781C3.88235 29.3596 5.13605 24.819 6.34427 24.5397V24.5462Z" fill="#7E6D63"/>
<path id="Vector_263" opacity="0.54" d="M6.3322 24.6113C7.89769 24.2605 7.28709 26.7419 7.03375 27.7878C6.81939 28.6777 3.82481 35.9985 2.10991 36.1934C0.485958 36.3752 2.89591 31.302 3.48703 30.1652C3.90276 29.3533 5.15646 24.8776 6.3387 24.6113H6.3322Z" fill="#827066"/>
<path id="Vector_264" opacity="0.55" d="M6.31316 24.6762C7.83318 24.3385 7.20958 26.8199 6.95625 27.8527C6.73539 28.7361 3.77979 35.992 2.09737 36.1674C0.499398 36.3362 2.92234 31.2695 3.50047 30.1522C3.9162 29.3467 5.1634 24.9361 6.31316 24.6827V24.6762Z" fill="#857368"/>
<path id="Vector_265" opacity="0.56" d="M6.29349 24.7412C7.77454 24.4164 7.13795 26.8913 6.87812 27.9111C6.65726 28.7881 3.73414 35.9725 2.0842 36.1349C0.434262 36.2973 2.94815 31.224 3.51328 30.1327C3.92252 29.3402 5.16972 24.988 6.29349 24.7412Z" fill="#88766B"/>
<path id="Vector_266" opacity="0.58" d="M6.27844 24.8061C7.71402 24.5008 7.07093 26.9692 6.8046 27.9696C6.57725 28.84 3.6931 35.9529 2.08214 36.1023C0.471173 36.2518 2.98506 31.1785 3.5372 30.1132C3.94644 29.3272 5.18714 25.04 6.28494 24.8061H6.27844Z" fill="#8C796E"/>
<path id="Vector_267" opacity="0.59" d="M6.26047 24.8776C7.65707 24.5853 6.99449 27.0472 6.73466 28.0346C6.50731 28.8985 3.65564 35.94 2.07715 36.0829C0.498669 36.2258 3.01905 31.146 3.5582 30.1067C3.96094 29.3272 5.20165 25.1049 6.26696 24.8841L6.26047 24.8776Z" fill="#8F7C70"/>
<path id="Vector_268" opacity="0.61" d="M6.23946 24.9426C7.59059 24.6633 6.92152 27.1252 6.65519 28.0996C6.42134 28.9505 3.60865 35.927 2.06265 36.057C0.516639 36.1869 3.04352 31.1071 3.56968 30.0873C3.96592 29.3143 5.21312 25.157 6.24596 24.9426H6.23946Z" fill="#937F73"/>
<path id="Vector_269" opacity="0.62" d="M6.22651 25.0075C7.53867 24.7476 6.85011 27.1966 6.58378 28.1579C6.34993 29.0024 3.56972 35.9075 2.05619 36.0244C0.542667 36.1413 3.07604 31.0616 3.58921 30.0677C3.98545 29.3012 5.22616 25.2088 6.22651 25.0075Z" fill="#968276"/>
<path id="Vector_270" opacity="0.63" d="M6.20803 25.0726C7.47471 24.8257 6.77966 27.2746 6.50683 28.2165C6.26649 29.0545 3.52525 35.8881 2.0442 35.992C0.563155 36.096 3.10302 31.0162 3.5967 30.0484C3.98645 29.2883 5.22716 25.2609 6.20153 25.0726H6.20803Z" fill="#998478"/>
<path id="Vector_271" opacity="0.65" d="M6.18908 25.1373C7.41679 24.9099 6.70225 27.3524 6.43592 28.2748C6.19558 29.1062 3.48682 35.8684 2.03825 35.9658C0.589683 36.0633 3.13605 30.977 3.61674 30.0352C3.99999 29.2816 5.24069 25.3192 6.18908 25.1373Z" fill="#9D877B"/>
<path id="Vector_272" opacity="0.66" d="M6.17564 25.209C7.35788 24.9946 6.63685 27.4305 6.36402 28.3465C6.11718 29.1714 3.4474 35.8621 2.0378 35.9466C0.628208 36.031 3.17457 30.9448 3.64227 30.0289C4.02552 29.2819 5.25973 25.3779 6.17564 25.2155V25.209Z" fill="#A08A7E"/>
<path id="Vector_273" opacity="0.68" d="M6.15593 25.2737C7.29919 25.0724 6.55867 27.5083 6.28584 28.4047C6.03251 29.2232 3.4017 35.8424 2.02458 35.9139C0.647469 35.9854 3.20033 30.8991 3.65504 30.0092C4.03179 29.2687 5.266 25.4296 6.15593 25.2737Z" fill="#A48D80"/>
<path id="Vector_274" opacity="0.69" d="M6.1443 25.3388C7.24209 25.1569 6.49507 27.5799 6.21575 28.4633C5.96241 29.2753 3.36408 35.8231 2.01945 35.8815C0.674812 35.94 3.23417 30.8538 3.67588 29.9898C4.05264 29.2558 5.28035 25.4817 6.1378 25.3388H6.1443Z" fill="#A79083"/>
<path id="Vector_275" opacity="0.7" d="M6.12449 25.4038C7.17681 25.2349 6.4168 27.6578 6.14398 28.5218C5.88414 29.3273 3.32479 35.8036 2.01263 35.8491C0.700476 35.8945 3.26633 30.8083 3.69505 29.9704C4.06531 29.2493 5.29302 25.5337 6.12449 25.4038Z" fill="#AA9386"/>
<path id="Vector_276" opacity="0.72" d="M6.10365 25.4688C7.11699 25.3129 6.34399 27.7293 6.06467 28.5867C5.80484 29.3857 3.27796 35.7906 1.99829 35.8296C0.718608 35.8686 3.29095 30.7758 3.70669 29.9574C4.07045 29.2428 5.29816 25.5922 6.10365 25.4688Z" fill="#AE9688"/>
<path id="Vector_277" opacity="0.73" d="M6.08978 25.5401C7.05766 25.4037 6.27166 27.8136 5.99234 28.6516C5.72601 29.4376 3.23811 35.7775 1.99741 35.8035C0.756706 35.8295 3.32905 30.7433 3.73179 29.9443C4.09556 29.2362 5.31677 25.6505 6.08978 25.5401Z" fill="#B1998B"/>
<path id="Vector_278" opacity="0.75" d="M6.07149 25.605C7.0004 25.4816 6.20141 27.8851 5.91559 28.71C5.64926 29.4895 3.19384 35.758 1.98562 35.771C0.777395 35.784 3.35624 30.6978 3.74599 29.9248C4.10326 29.2232 5.32447 25.7025 6.07149 25.605Z" fill="#B59C8E"/>
<path id="Vector_279" opacity="0.76" d="M6.05287 25.6701C6.9363 25.5596 6.12432 27.9631 5.845 28.7686C5.56568 29.5741 3.15573 35.7386 1.97999 35.7386C0.804241 35.7386 3.38958 30.6524 3.76634 29.9053C4.11711 29.2103 5.33833 25.7545 6.05287 25.6636V25.6701Z" fill="#B89F91"/>
<path id="Vector_280" opacity="0.77" d="M6.03909 25.7351C6.87705 25.6441 6.05857 28.0346 5.77276 28.8271C5.48694 29.6196 3.11597 35.7192 1.9727 35.7127C0.829436 35.7062 3.42127 30.6134 3.78504 29.8924C4.1488 29.1714 5.35053 25.813 6.03909 25.7351Z" fill="#BBA293"/>
<path id="Vector_281" opacity="0.79" d="M6.01976 25.8C6.81874 25.722 5.98078 28.1125 5.69496 28.892C5.40915 29.6715 3.07065 35.7061 1.95987 35.6866C0.84908 35.6671 3.44741 30.5744 3.79818 29.8793C4.14896 29.1843 5.35718 25.8714 6.01976 25.8065V25.8Z" fill="#BFA596"/>
<path id="Vector_282" opacity="0.8" d="M6.00074 25.8714C6.75425 25.8065 5.9098 28.1904 5.61748 28.9569C5.32517 29.7234 3.02565 35.6931 1.94734 35.6606C0.869036 35.6281 3.47386 30.5354 3.81164 29.8664C4.14943 29.1973 5.36415 25.9299 5.99424 25.8714H6.00074Z" fill="#C2A899"/>
<path id="Vector_283" opacity="0.82" d="M5.98634 25.9363C6.69438 25.8843 5.83693 28.2618 5.55112 29.0153C5.2653 29.7688 2.99176 35.6735 1.95243 35.628C0.913098 35.5826 3.51792 30.4898 3.84272 29.8467C4.16751 29.2037 5.38872 25.9752 5.99283 25.9363H5.98634Z" fill="#C6AB9B"/>
<path id="Vector_284" opacity="0.83" d="M5.96817 26.0014C6.62425 25.8844 5.7668 28.3398 5.47449 29.0739C5.18218 29.8079 2.94761 35.6541 1.94076 35.6022C0.881941 35.5437 3.54523 30.451 3.85703 29.8274C4.18832 29.1648 5.40303 26.0988 5.96817 26.0014Z" fill="#C9AE9E"/>
<path id="Vector_285" opacity="0.85" d="M5.94815 26.0663C6.56526 25.9624 5.68832 28.4113 5.39601 29.1388C5.1037 29.8664 2.90161 35.6412 1.92724 35.5762C0.894403 35.5048 3.57068 30.412 3.86949 29.8144C4.20078 29.1648 5.409 26.1573 5.94815 26.0663Z" fill="#CDB1A1"/>
<path id="Vector_286" opacity="0.86" d="M5.9362 26.1313C6.50784 26.0468 5.6244 28.4893 5.3256 29.1973C5.02679 29.9054 2.86368 35.6217 1.92178 35.5437C0.914931 35.4593 3.6042 30.3666 3.89002 29.7949C4.21481 29.1518 5.42303 26.2092 5.9362 26.1313Z" fill="#D0B4A3"/>
<path id="Vector_287" opacity="0.87" d="M5.91606 26.2027C6.44872 26.1313 5.5458 28.5672 5.25348 29.2622C4.96117 29.9573 2.82405 35.6087 1.91463 35.5177C0.933761 35.4268 3.63602 30.3276 3.90885 29.7819C4.22714 29.1453 5.43537 26.2677 5.91606 26.2027Z" fill="#D3B7A6"/>
<path id="Vector_288" opacity="0.89" d="M5.9024 26.2677C6.39608 26.2158 5.48017 28.6452 5.18136 29.3208C4.88255 29.9963 2.7844 35.5892 1.91396 35.4853C0.959075 35.3814 3.66783 30.2821 3.93416 29.7625C4.25246 29.1324 5.44769 26.3132 5.90889 26.2612L5.9024 26.2677Z" fill="#D7B9A9"/>
<path id="Vector_289" opacity="0.9" d="M5.88328 26.3326C6.33149 26.2936 5.40259 28.7166 5.10378 29.3857C4.79198 30.0872 2.7393 35.5697 1.90134 35.4657C0.978932 35.3488 3.69419 30.2496 3.94752 29.7559C4.25932 29.1323 5.45456 26.3781 5.88328 26.3391V26.3326Z" fill="#DABCAB"/>
<path id="Vector_290" opacity="0.92" d="M5.86262 26.3977C6.27185 26.4432 5.32346 28.7947 5.02466 29.4442C4.70636 30.1328 2.69265 35.5503 1.88717 35.4334C0.990748 35.3035 3.71899 30.2043 3.95934 29.7366C4.26464 29.1195 5.45988 26.3587 5.86262 26.4042V26.3977Z" fill="#DEBFAE"/>
<path id="Vector_291" opacity="0.93" d="M5.84939 26.4626C6.21316 26.5211 5.25827 28.8661 4.95947 29.5027C4.63467 30.1847 2.65994 35.5308 1.88694 35.4009C1.0165 35.258 3.75774 30.1588 3.98509 29.7105C4.2904 29.0999 5.47913 26.3977 5.85589 26.4561L5.84939 26.4626Z" fill="#E1C2B1"/>
<path id="Vector_292" opacity="0.94" d="M5.83121 26.534C6.14951 26.599 5.18163 28.9505 4.88282 29.5676C4.55803 30.2432 2.61578 35.5178 1.87526 35.3749C1.0308 35.219 3.78503 30.1262 3.99939 29.6975C4.2982 29.0934 5.48694 26.4561 5.83121 26.5275V26.534Z" fill="#E4C5B3"/>
<path id="Vector_293" opacity="0.96" d="M5.81071 26.599C6.09003 26.6769 5.10916 29.0219 4.80386 29.6325C4.47257 30.3016 2.5693 35.4982 1.86775 35.3553C1.04927 35.1864 3.8165 30.0937 4.01787 29.691C4.31018 29.0933 5.49891 26.5145 5.81721 26.599H5.81071Z" fill="#E8C8B6"/>
<path id="Vector_294" opacity="0.97" d="M5.79893 26.6639C6.03278 26.7483 5.03892 29.0933 4.73362 29.6909C4.39583 30.3535 2.53803 35.4787 1.86246 35.3228C1.06997 35.1409 3.85018 30.0482 4.03856 29.6715C4.33087 29.0803 5.51312 26.56 5.79893 26.6639Z" fill="#EBCBB9"/>
<path id="Vector_295" opacity="0.99" d="M5.77913 26.7288C5.974 26.8198 4.96065 29.1713 4.66185 29.7494C4.32406 30.399 2.49874 35.4592 1.85565 35.2903C1.09564 35.0889 3.88235 30.0027 4.05124 29.6519C4.33705 29.0673 5.51929 26.5989 5.77913 26.7288Z" fill="#EFCEBB"/>
<path id="Vector_296" d="M4.07057 29.639C4.34989 29.0609 5.53863 26.6509 5.76598 26.7938C5.92188 26.8978 4.89554 29.2427 4.59024 29.8079C4.24596 30.451 2.45961 35.4333 1.849 35.2579C1.11497 35.0435 3.91467 29.9573 4.07057 29.6325V29.639Z" fill="#F2D1BE"/>
</g>
</g>
<path id="Vector_297" d="M49.2057 11.3986C49.2057 11.3986 49.1667 11.3986 49.1537 11.3986C46.0422 11.3207 43.3984 11.639 39.9686 13.5358C34.4862 16.5823 34.8629 23.1496 34.8629 23.1496V36.8817C34.8629 37.1416 34.9669 37.2975 35.3306 37.2975H40.7351C41.0469 37.2975 41.2028 37.1935 41.2028 36.8817V24.3448C41.2028 17.797 46.3021 17.2968 49.1537 17.3943C49.5175 17.4073 49.6214 17.2903 49.6214 17.0305V11.7559C49.6214 11.4441 49.5175 11.3921 49.2057 11.3921V11.3986Z" fill="#214D6D"/>
</g>
<defs>
<linearGradient id="paint0_linear_1525_838" x1="164.172" y1="8.13119" x2="148.329" y2="-0.213164" gradientUnits="userSpaceOnUse">
<stop stop-color="#CD4E27"/>
<stop offset="1" stop-color="#F37845"/>
</linearGradient>
<linearGradient id="paint1_linear_1525_838" x1="164.018" y1="3.42847" x2="160.605" y2="2.07957" gradientUnits="userSpaceOnUse">
<stop stop-color="#F4784F"/>
<stop offset="1" stop-color="#F4784F" stop-opacity="0"/>
</linearGradient>
<linearGradient id="paint2_linear_1525_838" x1="162.756" y1="23.4949" x2="166.138" y2="29.0984" gradientUnits="userSpaceOnUse">
<stop stop-color="#CD4E27"/>
<stop offset="1" stop-color="#F37845"/>
</linearGradient>
<linearGradient id="paint3_linear_1525_838" x1="159.618" y1="31.7882" x2="165.246" y2="34.9038" gradientUnits="userSpaceOnUse">
<stop stop-color="#F4784F"/>
<stop offset="0.05" stop-color="#F4784F" stop-opacity="0.89"/>
<stop offset="0.14" stop-color="#F4784F" stop-opacity="0.69"/>
<stop offset="0.25" stop-color="#F4784F" stop-opacity="0.5"/>
<stop offset="0.36" stop-color="#F4784F" stop-opacity="0.35"/>
<stop offset="0.47" stop-color="#F4784F" stop-opacity="0.22"/>
<stop offset="0.58" stop-color="#F4784F" stop-opacity="0.12"/>
<stop offset="0.7" stop-color="#F4784F" stop-opacity="0.05"/>
<stop offset="0.83" stop-color="#F4784F" stop-opacity="0.01"/>
<stop offset="1" stop-color="#F4784F" stop-opacity="0"/>
</linearGradient>
<linearGradient id="paint4_linear_1525_838" x1="157.065" y1="8.63882" x2="161.448" y2="21.1601" gradientUnits="userSpaceOnUse">
<stop stop-color="#CD4E27"/>
<stop offset="1" stop-color="#F37845"/>
</linearGradient>
<linearGradient id="paint5_linear_1525_838" x1="171.369" y1="14.1643" x2="172.272" y2="17.5808" gradientUnits="userSpaceOnUse">
<stop stop-color="#DA783F"/>
<stop offset="0.11" stop-color="#E07842" stop-opacity="0.76"/>
<stop offset="0.21" stop-color="#E57846" stop-opacity="0.56"/>
<stop offset="0.32" stop-color="#E97848" stop-opacity="0.39"/>
<stop offset="0.44" stop-color="#ED784B" stop-opacity="0.25"/>
<stop offset="0.56" stop-color="#F0784C" stop-opacity="0.14"/>
<stop offset="0.69" stop-color="#F2784E" stop-opacity="0.06"/>
<stop offset="0.83" stop-color="#F3784E" stop-opacity="0.01"/>
<stop offset="1" stop-color="#F4784F" stop-opacity="0"/>
</linearGradient>
</defs>
</svg>
